%TF.GenerationSoftware,KiCad,Pcbnew,(5.1.9)-1*%
%TF.CreationDate,2021-04-28T21:34:56-07:00*%
%TF.ProjectId,Senior Project,53656e69-6f72-4205-9072-6f6a6563742e,rev?*%
%TF.SameCoordinates,Original*%
%TF.FileFunction,Copper,L2,Bot*%
%TF.FilePolarity,Positive*%
%FSLAX46Y46*%
G04 Gerber Fmt 4.6, Leading zero omitted, Abs format (unit mm)*
G04 Created by KiCad (PCBNEW (5.1.9)-1) date 2021-04-28 21:34:56*
%MOMM*%
%LPD*%
G01*
G04 APERTURE LIST*
%TA.AperFunction,ComponentPad*%
%ADD10R,0.850000X0.850000*%
%TD*%
%TA.AperFunction,ComponentPad*%
%ADD11C,1.400000*%
%TD*%
%TA.AperFunction,ComponentPad*%
%ADD12O,1.400000X1.400000*%
%TD*%
%TA.AperFunction,ComponentPad*%
%ADD13R,1.600000X1.600000*%
%TD*%
%TA.AperFunction,ComponentPad*%
%ADD14C,1.600000*%
%TD*%
%TA.AperFunction,ComponentPad*%
%ADD15R,2.000000X2.000000*%
%TD*%
%TA.AperFunction,ComponentPad*%
%ADD16O,2.000000X2.000000*%
%TD*%
%TA.AperFunction,ComponentPad*%
%ADD17R,1.980000X3.960000*%
%TD*%
%TA.AperFunction,ComponentPad*%
%ADD18O,1.980000X3.960000*%
%TD*%
%TA.AperFunction,ComponentPad*%
%ADD19R,1.524000X1.524000*%
%TD*%
%TA.AperFunction,ComponentPad*%
%ADD20C,1.524000*%
%TD*%
%TA.AperFunction,ViaPad*%
%ADD21C,0.800000*%
%TD*%
%TA.AperFunction,Conductor*%
%ADD22C,0.250000*%
%TD*%
%TA.AperFunction,Conductor*%
%ADD23C,0.254000*%
%TD*%
%TA.AperFunction,Conductor*%
%ADD24C,0.100000*%
%TD*%
G04 APERTURE END LIST*
D10*
%TO.P,,1*%
%TO.N,GND*%
X178880000Y-121850000D03*
%TD*%
D11*
%TO.P,1k1,1*%
%TO.N,GND*%
X138430000Y-127000000D03*
D12*
%TO.P,1k1,2*%
%TO.N,Net-(1k1-Pad2)*%
X138430000Y-119380000D03*
%TD*%
D13*
%TO.P,C1,1*%
%TO.N,GND*%
X73660000Y-113030000D03*
D14*
%TO.P,C1,2*%
%TO.N,+3V3*%
X73660000Y-108030000D03*
%TD*%
D15*
%TO.P,C2,1*%
%TO.N,Net-(C2-Pad1)*%
X83820000Y-97790000D03*
D16*
%TO.P,C2,2*%
%TO.N,GND*%
X83820000Y-112790000D03*
%TD*%
%TO.P,C3,2*%
%TO.N,GND*%
X162320000Y-104140000D03*
D15*
%TO.P,C3,1*%
%TO.N,Net-(C3-Pad1)*%
X147320000Y-104140000D03*
%TD*%
D14*
%TO.P,C4,2*%
%TO.N,Net-(C4-Pad2)*%
X172800000Y-104140000D03*
D13*
%TO.P,C4,1*%
%TO.N,GND*%
X177800000Y-104140000D03*
%TD*%
D10*
%TO.P,,1*%
%TO.N,+3V3*%
X190500000Y-91440000D03*
%TD*%
D17*
%TO.P,,1*%
%TO.N,+3V3*%
X72390000Y-85090000D03*
D18*
%TO.P,,2*%
%TO.N,GND*%
X67390000Y-85090000D03*
%TD*%
D17*
%TO.P,,1*%
%TO.N,Net-(J3-Pad1)*%
X144780000Y-85090000D03*
D18*
%TO.P,,2*%
%TO.N,+5V*%
X139780000Y-85090000D03*
%TO.P,,3*%
%TO.N,GND*%
X134780000Y-85090000D03*
%TD*%
D17*
%TO.P,,1*%
%TO.N,Net-(J4-Pad1)*%
X171450000Y-85090000D03*
D18*
%TO.P,,2*%
%TO.N,GND*%
X166450000Y-85090000D03*
%TD*%
D17*
%TO.P,,1*%
%TO.N,GND*%
X90170000Y-85090000D03*
D18*
%TO.P,,2*%
%TO.N,Net-(J5-Pad2)*%
X85170000Y-85090000D03*
%TD*%
D10*
%TO.P,,1*%
%TO.N,+5V*%
X233680000Y-81280000D03*
%TD*%
%TO.P,,1*%
%TO.N,GND*%
X193040000Y-81280000D03*
%TD*%
%TO.P,,1*%
%TO.N,+5V*%
X181420000Y-121850000D03*
%TD*%
%TO.P,,1*%
%TO.N,Net-(C4-Pad2)*%
X176340000Y-121850000D03*
%TD*%
D12*
%TO.P,R3,2*%
%TO.N,Net-(R3-Pad2)*%
X72390000Y-105410000D03*
D11*
%TO.P,R3,1*%
%TO.N,Net-(C2-Pad1)*%
X72390000Y-97790000D03*
%TD*%
%TO.P,R4,1*%
%TO.N,Net-(C3-Pad1)*%
X142240000Y-104140000D03*
D12*
%TO.P,R4,2*%
%TO.N,Net-(R4-Pad2)*%
X134620000Y-104140000D03*
%TD*%
%TO.P,R5,2*%
%TO.N,Net-(1k1-Pad2)*%
X138430000Y-115570000D03*
D11*
%TO.P,R5,1*%
%TO.N,Net-(J4-Pad1)*%
X138430000Y-107950000D03*
%TD*%
D19*
%TO.P,U1,1*%
%TO.N,GND*%
X63500000Y-110490000D03*
D20*
%TO.P,U1,2*%
%TO.N,+3V3*%
X63500000Y-107950000D03*
%TO.P,U1,3*%
%TO.N,Net-(R3-Pad2)*%
X63500000Y-105410000D03*
%TD*%
%TO.P,U2,30*%
%TO.N,Net-(U2-Pad30)*%
X128360001Y-87380001D03*
%TO.P,U2,29*%
%TO.N,Net-(U2-Pad29)*%
X128360001Y-89920001D03*
%TO.P,U2,28*%
%TO.N,Net-(U2-Pad28)*%
X128360001Y-92460001D03*
%TO.P,U2,27*%
%TO.N,Net-(U2-Pad27)*%
X128360001Y-95000001D03*
%TO.P,U2,26*%
%TO.N,Net-(U2-Pad26)*%
X128360001Y-97540001D03*
%TO.P,U2,25*%
%TO.N,Net-(U2-Pad25)*%
X128360001Y-100080001D03*
%TO.P,U2,24*%
%TO.N,Net-(U2-Pad24)*%
X128360001Y-102620001D03*
%TO.P,U2,23*%
%TO.N,Net-(U2-Pad23)*%
X128360001Y-105160001D03*
%TO.P,U2,22*%
%TO.N,Net-(J3-Pad1)*%
X128360001Y-107700001D03*
%TO.P,U2,21*%
%TO.N,Net-(R4-Pad2)*%
X128360001Y-110240001D03*
%TO.P,U2,20*%
%TO.N,Net-(U2-Pad20)*%
X128360001Y-112780001D03*
%TO.P,U2,19*%
%TO.N,Net-(U2-Pad19)*%
X128360001Y-115320001D03*
%TO.P,U2,18*%
%TO.N,Net-(U2-Pad18)*%
X128360001Y-117860001D03*
%TO.P,U2,17*%
%TO.N,GND*%
X128360001Y-120400001D03*
%TO.P,U2,16*%
%TO.N,Net-(U2-Pad16)*%
X128360001Y-122940001D03*
%TO.P,U2,15*%
%TO.N,Net-(U2-Pad15)*%
X102960001Y-122940001D03*
%TO.P,U2,14*%
%TO.N,GND*%
X102960001Y-120400001D03*
%TO.P,U2,13*%
%TO.N,Net-(U2-Pad13)*%
X102960001Y-117860001D03*
%TO.P,U2,12*%
%TO.N,Net-(U2-Pad12)*%
X102960001Y-115320001D03*
%TO.P,U2,11*%
%TO.N,Net-(U2-Pad11)*%
X102960001Y-112780001D03*
%TO.P,U2,10*%
%TO.N,Net-(U2-Pad10)*%
X102960001Y-110240001D03*
%TO.P,U2,9*%
%TO.N,Net-(U2-Pad9)*%
X102960001Y-107700001D03*
%TO.P,U2,8*%
%TO.N,Net-(U2-Pad8)*%
X102960001Y-105160001D03*
%TO.P,U2,7*%
%TO.N,Net-(U2-Pad7)*%
X102960001Y-102620001D03*
%TO.P,U2,6*%
%TO.N,Net-(U2-Pad6)*%
X102960001Y-100080001D03*
%TO.P,U2,5*%
%TO.N,Net-(U2-Pad5)*%
X102960001Y-97540001D03*
%TO.P,U2,4*%
%TO.N,Net-(U2-Pad4)*%
X102960001Y-95000001D03*
%TO.P,U2,3*%
%TO.N,Net-(C2-Pad1)*%
X102960001Y-92460001D03*
%TO.P,U2,2*%
%TO.N,Net-(J5-Pad2)*%
X102960001Y-89920001D03*
D19*
%TO.P,U2,1*%
%TO.N,Net-(U2-Pad1)*%
X102960001Y-87380001D03*
%TD*%
%TO.P,U4,1*%
%TO.N,Net-(J4-Pad1)*%
X157480000Y-116840000D03*
D20*
%TO.P,U4,2*%
%TO.N,Net-(1k1-Pad2)*%
X157480000Y-119380000D03*
%TO.P,U4,3*%
%TO.N,Net-(C3-Pad1)*%
X157480000Y-121920000D03*
%TO.P,U4,4*%
%TO.N,GND*%
X157480000Y-124460000D03*
%TO.P,U4,5*%
%TO.N,N/C*%
X165100000Y-124460000D03*
%TO.P,U4,6*%
X165100000Y-121920000D03*
%TO.P,U4,7*%
X165100000Y-119380000D03*
%TO.P,U4,8*%
%TO.N,Net-(C4-Pad2)*%
X165100000Y-116840000D03*
%TD*%
D10*
%TO.P,,1*%
%TO.N,+3V3*%
X190500000Y-81280000D03*
%TD*%
%TO.P,,1*%
%TO.N,+5V*%
X233680000Y-91440000D03*
%TD*%
%TO.P,,1*%
%TO.N,GND*%
X193040000Y-91440000D03*
%TD*%
%TO.P,,1*%
%TO.N,GND*%
X236220000Y-81280000D03*
%TD*%
%TO.P,,1*%
%TO.N,GND*%
X236220000Y-91440000D03*
%TD*%
D21*
%TO.N,GND*%
X167640000Y-104140000D03*
X68580000Y-95250000D03*
X66040000Y-97790000D03*
X85090000Y-91440000D03*
%TO.N,+3V3*%
X161290000Y-91440000D03*
X156210000Y-93980000D03*
%TO.N,+5V*%
X180340000Y-111760000D03*
X176530000Y-110490000D03*
%TO.N,Net-(C4-Pad2)*%
X166370000Y-106680000D03*
%TD*%
D22*
%TO.N,GND*%
X167640000Y-104140000D02*
X170180000Y-106680000D01*
X175260000Y-106680000D02*
X177800000Y-104140000D01*
X170180000Y-106680000D02*
X175260000Y-106680000D01*
X157480000Y-124460000D02*
X144780000Y-111760000D01*
%TO.N,Net-(J3-Pad1)*%
X144780000Y-85250000D02*
X144620000Y-85090000D01*
%TO.N,GND*%
X68580000Y-95250000D02*
X66040000Y-97790000D01*
X90170000Y-86360000D02*
X90170000Y-85090000D01*
X85090000Y-91440000D02*
X90170000Y-86360000D01*
X136068764Y-111760000D02*
X129718764Y-118110000D01*
X144780000Y-111760000D02*
X136068764Y-111760000D01*
X129718764Y-119041238D02*
X128360001Y-120400001D01*
X129718764Y-118110000D02*
X129718764Y-119041238D01*
%TO.N,+3V3*%
X190500000Y-81280000D02*
X190500000Y-91440000D01*
X161290000Y-91440000D02*
X158750000Y-91440000D01*
X158750000Y-91440000D02*
X156210000Y-93980000D01*
X73415001Y-107785001D02*
X73660000Y-108030000D01*
X73415001Y-86115001D02*
X73415001Y-107785001D01*
X72390000Y-85090000D02*
X73415001Y-86115001D01*
%TO.N,Net-(J3-Pad1)*%
X128360001Y-106768763D02*
X128360001Y-107700001D01*
X134620000Y-100508764D02*
X128360001Y-106768763D01*
X144780000Y-85090000D02*
X144780000Y-90170000D01*
X134620000Y-100330000D02*
X134620000Y-100508764D01*
X144780000Y-90170000D02*
X134620000Y-100330000D01*
%TO.N,+5V*%
X179070000Y-110490000D02*
X176530000Y-110490000D01*
X180340000Y-111760000D02*
X179070000Y-110490000D01*
%TO.N,Net-(J4-Pad1)*%
X171450000Y-87630000D02*
X171450000Y-85090000D01*
X157480000Y-101600000D02*
X171450000Y-87630000D01*
X157480000Y-116840000D02*
X157480000Y-101600000D01*
%TO.N,Net-(R3-Pad2)*%
X72390000Y-105410000D02*
X63500000Y-105410000D01*
%TO.N,Net-(C4-Pad2)*%
X166370000Y-104336998D02*
X166370000Y-106680000D01*
X167366997Y-103340001D02*
X166370000Y-104336998D01*
X172000001Y-103340001D02*
X167366997Y-103340001D01*
X172800000Y-104140000D02*
X172000001Y-103340001D01*
%TD*%
D23*
%TO.N,GND*%
X239903000Y-135763000D02*
X50927000Y-135763000D01*
X50927000Y-127921269D01*
X137688336Y-127921269D01*
X137747797Y-128155037D01*
X137986242Y-128265934D01*
X138241740Y-128328183D01*
X138504473Y-128339390D01*
X138764344Y-128299125D01*
X139011366Y-128208935D01*
X139112203Y-128155037D01*
X139171664Y-127921269D01*
X138430000Y-127179605D01*
X137688336Y-127921269D01*
X50927000Y-127921269D01*
X50927000Y-127074473D01*
X137090610Y-127074473D01*
X137130875Y-127334344D01*
X137221065Y-127581366D01*
X137274963Y-127682203D01*
X137508731Y-127741664D01*
X138250395Y-127000000D01*
X138609605Y-127000000D01*
X139351269Y-127741664D01*
X139585037Y-127682203D01*
X139695934Y-127443758D01*
X139758183Y-127188260D01*
X139769390Y-126925527D01*
X139729125Y-126665656D01*
X139638935Y-126418634D01*
X139585037Y-126317797D01*
X139351269Y-126258336D01*
X138609605Y-127000000D01*
X138250395Y-127000000D01*
X137508731Y-126258336D01*
X137274963Y-126317797D01*
X137164066Y-126556242D01*
X137101817Y-126811740D01*
X137090610Y-127074473D01*
X50927000Y-127074473D01*
X50927000Y-126078731D01*
X137688336Y-126078731D01*
X138430000Y-126820395D01*
X139171664Y-126078731D01*
X139112203Y-125844963D01*
X138873758Y-125734066D01*
X138618260Y-125671817D01*
X138355527Y-125660610D01*
X138095656Y-125700875D01*
X137848634Y-125791065D01*
X137747797Y-125844963D01*
X137688336Y-126078731D01*
X50927000Y-126078731D01*
X50927000Y-125425565D01*
X156694040Y-125425565D01*
X156761020Y-125665656D01*
X157010048Y-125782756D01*
X157277135Y-125849023D01*
X157552017Y-125861910D01*
X157824133Y-125820922D01*
X158083023Y-125727636D01*
X158198980Y-125665656D01*
X158265960Y-125425565D01*
X157480000Y-124639605D01*
X156694040Y-125425565D01*
X50927000Y-125425565D01*
X50927000Y-124532017D01*
X156078090Y-124532017D01*
X156119078Y-124804133D01*
X156212364Y-125063023D01*
X156274344Y-125178980D01*
X156514435Y-125245960D01*
X157300395Y-124460000D01*
X157659605Y-124460000D01*
X158445565Y-125245960D01*
X158685656Y-125178980D01*
X158802756Y-124929952D01*
X158869023Y-124662865D01*
X158881910Y-124387983D01*
X158840922Y-124115867D01*
X158747636Y-123856977D01*
X158685656Y-123741020D01*
X158445565Y-123674040D01*
X157659605Y-124460000D01*
X157300395Y-124460000D01*
X156514435Y-123674040D01*
X156274344Y-123741020D01*
X156157244Y-123990048D01*
X156090977Y-124257135D01*
X156078090Y-124532017D01*
X50927000Y-124532017D01*
X50927000Y-122802409D01*
X101563001Y-122802409D01*
X101563001Y-123077593D01*
X101616687Y-123347491D01*
X101721996Y-123601728D01*
X101874881Y-123830536D01*
X102069466Y-124025121D01*
X102298274Y-124178006D01*
X102552511Y-124283315D01*
X102822409Y-124337001D01*
X103097593Y-124337001D01*
X103367491Y-124283315D01*
X103621728Y-124178006D01*
X103850536Y-124025121D01*
X104045121Y-123830536D01*
X104198006Y-123601728D01*
X104303315Y-123347491D01*
X104357001Y-123077593D01*
X104357001Y-122802409D01*
X126963001Y-122802409D01*
X126963001Y-123077593D01*
X127016687Y-123347491D01*
X127121996Y-123601728D01*
X127274881Y-123830536D01*
X127469466Y-124025121D01*
X127698274Y-124178006D01*
X127952511Y-124283315D01*
X128222409Y-124337001D01*
X128497593Y-124337001D01*
X128767491Y-124283315D01*
X129021728Y-124178006D01*
X129250536Y-124025121D01*
X129445121Y-123830536D01*
X129598006Y-123601728D01*
X129703315Y-123347491D01*
X129757001Y-123077593D01*
X129757001Y-122802409D01*
X129703315Y-122532511D01*
X129598006Y-122278274D01*
X129445121Y-122049466D01*
X129250536Y-121854881D01*
X129021728Y-121701996D01*
X128950058Y-121672309D01*
X128963024Y-121667637D01*
X129078981Y-121605657D01*
X129145961Y-121365566D01*
X128360001Y-120579606D01*
X127574041Y-121365566D01*
X127641021Y-121605657D01*
X127776761Y-121669486D01*
X127698274Y-121701996D01*
X127469466Y-121854881D01*
X127274881Y-122049466D01*
X127121996Y-122278274D01*
X127016687Y-122532511D01*
X126963001Y-122802409D01*
X104357001Y-122802409D01*
X104303315Y-122532511D01*
X104198006Y-122278274D01*
X104045121Y-122049466D01*
X103850536Y-121854881D01*
X103621728Y-121701996D01*
X103550058Y-121672309D01*
X103563024Y-121667637D01*
X103678981Y-121605657D01*
X103745961Y-121365566D01*
X102960001Y-120579606D01*
X102174041Y-121365566D01*
X102241021Y-121605657D01*
X102376761Y-121669486D01*
X102298274Y-121701996D01*
X102069466Y-121854881D01*
X101874881Y-122049466D01*
X101721996Y-122278274D01*
X101616687Y-122532511D01*
X101563001Y-122802409D01*
X50927000Y-122802409D01*
X50927000Y-120472018D01*
X101558091Y-120472018D01*
X101599079Y-120744134D01*
X101692365Y-121003024D01*
X101754345Y-121118981D01*
X101994436Y-121185961D01*
X102780396Y-120400001D01*
X103139606Y-120400001D01*
X103925566Y-121185961D01*
X104165657Y-121118981D01*
X104282757Y-120869953D01*
X104349024Y-120602866D01*
X104355158Y-120472018D01*
X126958091Y-120472018D01*
X126999079Y-120744134D01*
X127092365Y-121003024D01*
X127154345Y-121118981D01*
X127394436Y-121185961D01*
X128180396Y-120400001D01*
X128539606Y-120400001D01*
X129325566Y-121185961D01*
X129565657Y-121118981D01*
X129682757Y-120869953D01*
X129749024Y-120602866D01*
X129761911Y-120327984D01*
X129720923Y-120055868D01*
X129627637Y-119796978D01*
X129565657Y-119681021D01*
X129325566Y-119614041D01*
X128539606Y-120400001D01*
X128180396Y-120400001D01*
X127394436Y-119614041D01*
X127154345Y-119681021D01*
X127037245Y-119930049D01*
X126970978Y-120197136D01*
X126958091Y-120472018D01*
X104355158Y-120472018D01*
X104361911Y-120327984D01*
X104320923Y-120055868D01*
X104227637Y-119796978D01*
X104165657Y-119681021D01*
X103925566Y-119614041D01*
X103139606Y-120400001D01*
X102780396Y-120400001D01*
X101994436Y-119614041D01*
X101754345Y-119681021D01*
X101637245Y-119930049D01*
X101570978Y-120197136D01*
X101558091Y-120472018D01*
X50927000Y-120472018D01*
X50927000Y-113830000D01*
X72221928Y-113830000D01*
X72234188Y-113954482D01*
X72270498Y-114074180D01*
X72329463Y-114184494D01*
X72408815Y-114281185D01*
X72505506Y-114360537D01*
X72615820Y-114419502D01*
X72735518Y-114455812D01*
X72860000Y-114468072D01*
X73374250Y-114465000D01*
X73533000Y-114306250D01*
X73533000Y-113157000D01*
X73787000Y-113157000D01*
X73787000Y-114306250D01*
X73945750Y-114465000D01*
X74460000Y-114468072D01*
X74584482Y-114455812D01*
X74704180Y-114419502D01*
X74814494Y-114360537D01*
X74911185Y-114281185D01*
X74990537Y-114184494D01*
X75049502Y-114074180D01*
X75085812Y-113954482D01*
X75098072Y-113830000D01*
X75095000Y-113315750D01*
X74949685Y-113170435D01*
X82229871Y-113170435D01*
X82334644Y-113473344D01*
X82496499Y-113749992D01*
X82709215Y-113989748D01*
X82964618Y-114183399D01*
X83252893Y-114323502D01*
X83439566Y-114380124D01*
X83693000Y-114260777D01*
X83693000Y-112917000D01*
X83947000Y-112917000D01*
X83947000Y-114260777D01*
X84200434Y-114380124D01*
X84387107Y-114323502D01*
X84675382Y-114183399D01*
X84930785Y-113989748D01*
X85143501Y-113749992D01*
X85305356Y-113473344D01*
X85410129Y-113170435D01*
X85291315Y-112917000D01*
X83947000Y-112917000D01*
X83693000Y-112917000D01*
X82348685Y-112917000D01*
X82229871Y-113170435D01*
X74949685Y-113170435D01*
X74936250Y-113157000D01*
X73787000Y-113157000D01*
X73533000Y-113157000D01*
X72383750Y-113157000D01*
X72225000Y-113315750D01*
X72221928Y-113830000D01*
X50927000Y-113830000D01*
X50927000Y-112230000D01*
X72221928Y-112230000D01*
X72225000Y-112744250D01*
X72383750Y-112903000D01*
X73533000Y-112903000D01*
X73533000Y-111753750D01*
X73787000Y-111753750D01*
X73787000Y-112903000D01*
X74936250Y-112903000D01*
X75095000Y-112744250D01*
X75096999Y-112409565D01*
X82229871Y-112409565D01*
X82348685Y-112663000D01*
X83693000Y-112663000D01*
X83693000Y-111319223D01*
X83947000Y-111319223D01*
X83947000Y-112663000D01*
X85291315Y-112663000D01*
X85410129Y-112409565D01*
X85305356Y-112106656D01*
X85143501Y-111830008D01*
X84930785Y-111590252D01*
X84675382Y-111396601D01*
X84387107Y-111256498D01*
X84200434Y-111199876D01*
X83947000Y-111319223D01*
X83693000Y-111319223D01*
X83439566Y-111199876D01*
X83252893Y-111256498D01*
X82964618Y-111396601D01*
X82709215Y-111590252D01*
X82496499Y-111830008D01*
X82334644Y-112106656D01*
X82229871Y-112409565D01*
X75096999Y-112409565D01*
X75098072Y-112230000D01*
X75085812Y-112105518D01*
X75049502Y-111985820D01*
X74990537Y-111875506D01*
X74911185Y-111778815D01*
X74814494Y-111699463D01*
X74704180Y-111640498D01*
X74584482Y-111604188D01*
X74460000Y-111591928D01*
X73945750Y-111595000D01*
X73787000Y-111753750D01*
X73533000Y-111753750D01*
X73374250Y-111595000D01*
X72860000Y-111591928D01*
X72735518Y-111604188D01*
X72615820Y-111640498D01*
X72505506Y-111699463D01*
X72408815Y-111778815D01*
X72329463Y-111875506D01*
X72270498Y-111985820D01*
X72234188Y-112105518D01*
X72221928Y-112230000D01*
X50927000Y-112230000D01*
X50927000Y-111252000D01*
X62099928Y-111252000D01*
X62112188Y-111376482D01*
X62148498Y-111496180D01*
X62207463Y-111606494D01*
X62286815Y-111703185D01*
X62383506Y-111782537D01*
X62493820Y-111841502D01*
X62613518Y-111877812D01*
X62738000Y-111890072D01*
X63214250Y-111887000D01*
X63373000Y-111728250D01*
X63373000Y-110617000D01*
X63627000Y-110617000D01*
X63627000Y-111728250D01*
X63785750Y-111887000D01*
X64262000Y-111890072D01*
X64386482Y-111877812D01*
X64506180Y-111841502D01*
X64616494Y-111782537D01*
X64713185Y-111703185D01*
X64792537Y-111606494D01*
X64851502Y-111496180D01*
X64887812Y-111376482D01*
X64900072Y-111252000D01*
X64897000Y-110775750D01*
X64738250Y-110617000D01*
X63627000Y-110617000D01*
X63373000Y-110617000D01*
X62261750Y-110617000D01*
X62103000Y-110775750D01*
X62099928Y-111252000D01*
X50927000Y-111252000D01*
X50927000Y-109728000D01*
X62099928Y-109728000D01*
X62103000Y-110204250D01*
X62261750Y-110363000D01*
X63373000Y-110363000D01*
X63373000Y-110343000D01*
X63627000Y-110343000D01*
X63627000Y-110363000D01*
X64738250Y-110363000D01*
X64897000Y-110204250D01*
X64900072Y-109728000D01*
X64887812Y-109603518D01*
X64851502Y-109483820D01*
X64792537Y-109373506D01*
X64713185Y-109276815D01*
X64616494Y-109197463D01*
X64506180Y-109138498D01*
X64386482Y-109102188D01*
X64302535Y-109093920D01*
X64390535Y-109035120D01*
X64585120Y-108840535D01*
X64738005Y-108611727D01*
X64843314Y-108357490D01*
X64897000Y-108087592D01*
X64897000Y-107812408D01*
X64843314Y-107542510D01*
X64738005Y-107288273D01*
X64585120Y-107059465D01*
X64390535Y-106864880D01*
X64161727Y-106711995D01*
X64084485Y-106680000D01*
X64161727Y-106648005D01*
X64390535Y-106495120D01*
X64585120Y-106300535D01*
X64672341Y-106170000D01*
X71292225Y-106170000D01*
X71353038Y-106261013D01*
X71538987Y-106446962D01*
X71757641Y-106593061D01*
X72000595Y-106693696D01*
X72258514Y-106745000D01*
X72521486Y-106745000D01*
X72655002Y-106718442D01*
X72655002Y-107005602D01*
X72545363Y-107115241D01*
X72388320Y-107350273D01*
X72280147Y-107611426D01*
X72225000Y-107888665D01*
X72225000Y-108171335D01*
X72280147Y-108448574D01*
X72388320Y-108709727D01*
X72545363Y-108944759D01*
X72745241Y-109144637D01*
X72980273Y-109301680D01*
X73241426Y-109409853D01*
X73518665Y-109465000D01*
X73801335Y-109465000D01*
X74078574Y-109409853D01*
X74339727Y-109301680D01*
X74574759Y-109144637D01*
X74774637Y-108944759D01*
X74931680Y-108709727D01*
X75039853Y-108448574D01*
X75095000Y-108171335D01*
X75095000Y-107888665D01*
X75039853Y-107611426D01*
X74931680Y-107350273D01*
X74774637Y-107115241D01*
X74574759Y-106915363D01*
X74339727Y-106758320D01*
X74175001Y-106690088D01*
X74175001Y-96790000D01*
X82181928Y-96790000D01*
X82181928Y-98790000D01*
X82194188Y-98914482D01*
X82230498Y-99034180D01*
X82289463Y-99144494D01*
X82368815Y-99241185D01*
X82465506Y-99320537D01*
X82575820Y-99379502D01*
X82695518Y-99415812D01*
X82820000Y-99428072D01*
X84820000Y-99428072D01*
X84944482Y-99415812D01*
X85064180Y-99379502D01*
X85174494Y-99320537D01*
X85271185Y-99241185D01*
X85350537Y-99144494D01*
X85409502Y-99034180D01*
X85445812Y-98914482D01*
X85458072Y-98790000D01*
X85458072Y-96790000D01*
X85445812Y-96665518D01*
X85409502Y-96545820D01*
X85350537Y-96435506D01*
X85271185Y-96338815D01*
X85174494Y-96259463D01*
X85064180Y-96200498D01*
X84944482Y-96164188D01*
X84820000Y-96151928D01*
X82820000Y-96151928D01*
X82695518Y-96164188D01*
X82575820Y-96200498D01*
X82465506Y-96259463D01*
X82368815Y-96338815D01*
X82289463Y-96435506D01*
X82230498Y-96545820D01*
X82194188Y-96665518D01*
X82181928Y-96790000D01*
X74175001Y-96790000D01*
X74175001Y-86159823D01*
X83545000Y-86159823D01*
X83568513Y-86398555D01*
X83661432Y-86704868D01*
X83812325Y-86987169D01*
X84015392Y-87234608D01*
X84262830Y-87437675D01*
X84545131Y-87588568D01*
X84851444Y-87681487D01*
X85170000Y-87712862D01*
X85488555Y-87681487D01*
X85794868Y-87588568D01*
X86077169Y-87437675D01*
X86324608Y-87234608D01*
X86459698Y-87070000D01*
X88541928Y-87070000D01*
X88554188Y-87194482D01*
X88590498Y-87314180D01*
X88649463Y-87424494D01*
X88728815Y-87521185D01*
X88825506Y-87600537D01*
X88935820Y-87659502D01*
X89055518Y-87695812D01*
X89180000Y-87708072D01*
X89884250Y-87705000D01*
X90043000Y-87546250D01*
X90043000Y-85217000D01*
X90297000Y-85217000D01*
X90297000Y-87546250D01*
X90455750Y-87705000D01*
X91160000Y-87708072D01*
X91284482Y-87695812D01*
X91404180Y-87659502D01*
X91514494Y-87600537D01*
X91611185Y-87521185D01*
X91690537Y-87424494D01*
X91749502Y-87314180D01*
X91785812Y-87194482D01*
X91798072Y-87070000D01*
X91797253Y-86618001D01*
X101559929Y-86618001D01*
X101559929Y-88142001D01*
X101572189Y-88266483D01*
X101608499Y-88386181D01*
X101667464Y-88496495D01*
X101746816Y-88593186D01*
X101843507Y-88672538D01*
X101953821Y-88731503D01*
X102073519Y-88767813D01*
X102157466Y-88776081D01*
X102069466Y-88834881D01*
X101874881Y-89029466D01*
X101721996Y-89258274D01*
X101616687Y-89512511D01*
X101563001Y-89782409D01*
X101563001Y-90057593D01*
X101616687Y-90327491D01*
X101721996Y-90581728D01*
X101874881Y-90810536D01*
X102069466Y-91005121D01*
X102298274Y-91158006D01*
X102375516Y-91190001D01*
X102298274Y-91221996D01*
X102069466Y-91374881D01*
X101874881Y-91569466D01*
X101721996Y-91798274D01*
X101616687Y-92052511D01*
X101563001Y-92322409D01*
X101563001Y-92597593D01*
X101616687Y-92867491D01*
X101721996Y-93121728D01*
X101874881Y-93350536D01*
X102069466Y-93545121D01*
X102298274Y-93698006D01*
X102375516Y-93730001D01*
X102298274Y-93761996D01*
X102069466Y-93914881D01*
X101874881Y-94109466D01*
X101721996Y-94338274D01*
X101616687Y-94592511D01*
X101563001Y-94862409D01*
X101563001Y-95137593D01*
X101616687Y-95407491D01*
X101721996Y-95661728D01*
X101874881Y-95890536D01*
X102069466Y-96085121D01*
X102298274Y-96238006D01*
X102375516Y-96270001D01*
X102298274Y-96301996D01*
X102069466Y-96454881D01*
X101874881Y-96649466D01*
X101721996Y-96878274D01*
X101616687Y-97132511D01*
X101563001Y-97402409D01*
X101563001Y-97677593D01*
X101616687Y-97947491D01*
X101721996Y-98201728D01*
X101874881Y-98430536D01*
X102069466Y-98625121D01*
X102298274Y-98778006D01*
X102375516Y-98810001D01*
X102298274Y-98841996D01*
X102069466Y-98994881D01*
X101874881Y-99189466D01*
X101721996Y-99418274D01*
X101616687Y-99672511D01*
X101563001Y-99942409D01*
X101563001Y-100217593D01*
X101616687Y-100487491D01*
X101721996Y-100741728D01*
X101874881Y-100970536D01*
X102069466Y-101165121D01*
X102298274Y-101318006D01*
X102375516Y-101350001D01*
X102298274Y-101381996D01*
X102069466Y-101534881D01*
X101874881Y-101729466D01*
X101721996Y-101958274D01*
X101616687Y-102212511D01*
X101563001Y-102482409D01*
X101563001Y-102757593D01*
X101616687Y-103027491D01*
X101721996Y-103281728D01*
X101874881Y-103510536D01*
X102069466Y-103705121D01*
X102298274Y-103858006D01*
X102375516Y-103890001D01*
X102298274Y-103921996D01*
X102069466Y-104074881D01*
X101874881Y-104269466D01*
X101721996Y-104498274D01*
X101616687Y-104752511D01*
X101563001Y-105022409D01*
X101563001Y-105297593D01*
X101616687Y-105567491D01*
X101721996Y-105821728D01*
X101874881Y-106050536D01*
X102069466Y-106245121D01*
X102298274Y-106398006D01*
X102375516Y-106430001D01*
X102298274Y-106461996D01*
X102069466Y-106614881D01*
X101874881Y-106809466D01*
X101721996Y-107038274D01*
X101616687Y-107292511D01*
X101563001Y-107562409D01*
X101563001Y-107837593D01*
X101616687Y-108107491D01*
X101721996Y-108361728D01*
X101874881Y-108590536D01*
X102069466Y-108785121D01*
X102298274Y-108938006D01*
X102375516Y-108970001D01*
X102298274Y-109001996D01*
X102069466Y-109154881D01*
X101874881Y-109349466D01*
X101721996Y-109578274D01*
X101616687Y-109832511D01*
X101563001Y-110102409D01*
X101563001Y-110377593D01*
X101616687Y-110647491D01*
X101721996Y-110901728D01*
X101874881Y-111130536D01*
X102069466Y-111325121D01*
X102298274Y-111478006D01*
X102375516Y-111510001D01*
X102298274Y-111541996D01*
X102069466Y-111694881D01*
X101874881Y-111889466D01*
X101721996Y-112118274D01*
X101616687Y-112372511D01*
X101563001Y-112642409D01*
X101563001Y-112917593D01*
X101616687Y-113187491D01*
X101721996Y-113441728D01*
X101874881Y-113670536D01*
X102069466Y-113865121D01*
X102298274Y-114018006D01*
X102375516Y-114050001D01*
X102298274Y-114081996D01*
X102069466Y-114234881D01*
X101874881Y-114429466D01*
X101721996Y-114658274D01*
X101616687Y-114912511D01*
X101563001Y-115182409D01*
X101563001Y-115457593D01*
X101616687Y-115727491D01*
X101721996Y-115981728D01*
X101874881Y-116210536D01*
X102069466Y-116405121D01*
X102298274Y-116558006D01*
X102375516Y-116590001D01*
X102298274Y-116621996D01*
X102069466Y-116774881D01*
X101874881Y-116969466D01*
X101721996Y-117198274D01*
X101616687Y-117452511D01*
X101563001Y-117722409D01*
X101563001Y-117997593D01*
X101616687Y-118267491D01*
X101721996Y-118521728D01*
X101874881Y-118750536D01*
X102069466Y-118945121D01*
X102298274Y-119098006D01*
X102369944Y-119127693D01*
X102356978Y-119132365D01*
X102241021Y-119194345D01*
X102174041Y-119434436D01*
X102960001Y-120220396D01*
X103745961Y-119434436D01*
X103678981Y-119194345D01*
X103543241Y-119130516D01*
X103621728Y-119098006D01*
X103850536Y-118945121D01*
X104045121Y-118750536D01*
X104198006Y-118521728D01*
X104303315Y-118267491D01*
X104357001Y-117997593D01*
X104357001Y-117722409D01*
X104303315Y-117452511D01*
X104198006Y-117198274D01*
X104045121Y-116969466D01*
X103850536Y-116774881D01*
X103621728Y-116621996D01*
X103544486Y-116590001D01*
X103621728Y-116558006D01*
X103850536Y-116405121D01*
X104045121Y-116210536D01*
X104198006Y-115981728D01*
X104303315Y-115727491D01*
X104357001Y-115457593D01*
X104357001Y-115182409D01*
X104303315Y-114912511D01*
X104198006Y-114658274D01*
X104045121Y-114429466D01*
X103850536Y-114234881D01*
X103621728Y-114081996D01*
X103544486Y-114050001D01*
X103621728Y-114018006D01*
X103850536Y-113865121D01*
X104045121Y-113670536D01*
X104198006Y-113441728D01*
X104303315Y-113187491D01*
X104357001Y-112917593D01*
X104357001Y-112642409D01*
X104303315Y-112372511D01*
X104198006Y-112118274D01*
X104045121Y-111889466D01*
X103850536Y-111694881D01*
X103621728Y-111541996D01*
X103544486Y-111510001D01*
X103621728Y-111478006D01*
X103850536Y-111325121D01*
X104045121Y-111130536D01*
X104198006Y-110901728D01*
X104303315Y-110647491D01*
X104357001Y-110377593D01*
X104357001Y-110102409D01*
X104303315Y-109832511D01*
X104198006Y-109578274D01*
X104045121Y-109349466D01*
X103850536Y-109154881D01*
X103621728Y-109001996D01*
X103544486Y-108970001D01*
X103621728Y-108938006D01*
X103850536Y-108785121D01*
X104045121Y-108590536D01*
X104198006Y-108361728D01*
X104303315Y-108107491D01*
X104357001Y-107837593D01*
X104357001Y-107562409D01*
X104303315Y-107292511D01*
X104198006Y-107038274D01*
X104045121Y-106809466D01*
X103850536Y-106614881D01*
X103621728Y-106461996D01*
X103544486Y-106430001D01*
X103621728Y-106398006D01*
X103850536Y-106245121D01*
X104045121Y-106050536D01*
X104198006Y-105821728D01*
X104303315Y-105567491D01*
X104357001Y-105297593D01*
X104357001Y-105022409D01*
X104303315Y-104752511D01*
X104198006Y-104498274D01*
X104045121Y-104269466D01*
X103850536Y-104074881D01*
X103621728Y-103921996D01*
X103544486Y-103890001D01*
X103621728Y-103858006D01*
X103850536Y-103705121D01*
X104045121Y-103510536D01*
X104198006Y-103281728D01*
X104303315Y-103027491D01*
X104357001Y-102757593D01*
X104357001Y-102482409D01*
X104303315Y-102212511D01*
X104198006Y-101958274D01*
X104045121Y-101729466D01*
X103850536Y-101534881D01*
X103621728Y-101381996D01*
X103544486Y-101350001D01*
X103621728Y-101318006D01*
X103850536Y-101165121D01*
X104045121Y-100970536D01*
X104198006Y-100741728D01*
X104303315Y-100487491D01*
X104357001Y-100217593D01*
X104357001Y-99942409D01*
X104303315Y-99672511D01*
X104198006Y-99418274D01*
X104045121Y-99189466D01*
X103850536Y-98994881D01*
X103621728Y-98841996D01*
X103544486Y-98810001D01*
X103621728Y-98778006D01*
X103850536Y-98625121D01*
X104045121Y-98430536D01*
X104198006Y-98201728D01*
X104303315Y-97947491D01*
X104357001Y-97677593D01*
X104357001Y-97402409D01*
X104303315Y-97132511D01*
X104198006Y-96878274D01*
X104045121Y-96649466D01*
X103850536Y-96454881D01*
X103621728Y-96301996D01*
X103544486Y-96270001D01*
X103621728Y-96238006D01*
X103850536Y-96085121D01*
X104045121Y-95890536D01*
X104198006Y-95661728D01*
X104303315Y-95407491D01*
X104357001Y-95137593D01*
X104357001Y-94862409D01*
X104303315Y-94592511D01*
X104198006Y-94338274D01*
X104045121Y-94109466D01*
X103850536Y-93914881D01*
X103621728Y-93761996D01*
X103544486Y-93730001D01*
X103621728Y-93698006D01*
X103850536Y-93545121D01*
X104045121Y-93350536D01*
X104198006Y-93121728D01*
X104303315Y-92867491D01*
X104357001Y-92597593D01*
X104357001Y-92322409D01*
X104303315Y-92052511D01*
X104198006Y-91798274D01*
X104045121Y-91569466D01*
X103850536Y-91374881D01*
X103621728Y-91221996D01*
X103544486Y-91190001D01*
X103621728Y-91158006D01*
X103850536Y-91005121D01*
X104045121Y-90810536D01*
X104198006Y-90581728D01*
X104303315Y-90327491D01*
X104357001Y-90057593D01*
X104357001Y-89782409D01*
X104303315Y-89512511D01*
X104198006Y-89258274D01*
X104045121Y-89029466D01*
X103850536Y-88834881D01*
X103762536Y-88776081D01*
X103846483Y-88767813D01*
X103966181Y-88731503D01*
X104076495Y-88672538D01*
X104173186Y-88593186D01*
X104252538Y-88496495D01*
X104311503Y-88386181D01*
X104347813Y-88266483D01*
X104360073Y-88142001D01*
X104360073Y-87242409D01*
X126963001Y-87242409D01*
X126963001Y-87517593D01*
X127016687Y-87787491D01*
X127121996Y-88041728D01*
X127274881Y-88270536D01*
X127469466Y-88465121D01*
X127698274Y-88618006D01*
X127775516Y-88650001D01*
X127698274Y-88681996D01*
X127469466Y-88834881D01*
X127274881Y-89029466D01*
X127121996Y-89258274D01*
X127016687Y-89512511D01*
X126963001Y-89782409D01*
X126963001Y-90057593D01*
X127016687Y-90327491D01*
X127121996Y-90581728D01*
X127274881Y-90810536D01*
X127469466Y-91005121D01*
X127698274Y-91158006D01*
X127775516Y-91190001D01*
X127698274Y-91221996D01*
X127469466Y-91374881D01*
X127274881Y-91569466D01*
X127121996Y-91798274D01*
X127016687Y-92052511D01*
X126963001Y-92322409D01*
X126963001Y-92597593D01*
X127016687Y-92867491D01*
X127121996Y-93121728D01*
X127274881Y-93350536D01*
X127469466Y-93545121D01*
X127698274Y-93698006D01*
X127775516Y-93730001D01*
X127698274Y-93761996D01*
X127469466Y-93914881D01*
X127274881Y-94109466D01*
X127121996Y-94338274D01*
X127016687Y-94592511D01*
X126963001Y-94862409D01*
X126963001Y-95137593D01*
X127016687Y-95407491D01*
X127121996Y-95661728D01*
X127274881Y-95890536D01*
X127469466Y-96085121D01*
X127698274Y-96238006D01*
X127775516Y-96270001D01*
X127698274Y-96301996D01*
X127469466Y-96454881D01*
X127274881Y-96649466D01*
X127121996Y-96878274D01*
X127016687Y-97132511D01*
X126963001Y-97402409D01*
X126963001Y-97677593D01*
X127016687Y-97947491D01*
X127121996Y-98201728D01*
X127274881Y-98430536D01*
X127469466Y-98625121D01*
X127698274Y-98778006D01*
X127775516Y-98810001D01*
X127698274Y-98841996D01*
X127469466Y-98994881D01*
X127274881Y-99189466D01*
X127121996Y-99418274D01*
X127016687Y-99672511D01*
X126963001Y-99942409D01*
X126963001Y-100217593D01*
X127016687Y-100487491D01*
X127121996Y-100741728D01*
X127274881Y-100970536D01*
X127469466Y-101165121D01*
X127698274Y-101318006D01*
X127775516Y-101350001D01*
X127698274Y-101381996D01*
X127469466Y-101534881D01*
X127274881Y-101729466D01*
X127121996Y-101958274D01*
X127016687Y-102212511D01*
X126963001Y-102482409D01*
X126963001Y-102757593D01*
X127016687Y-103027491D01*
X127121996Y-103281728D01*
X127274881Y-103510536D01*
X127469466Y-103705121D01*
X127698274Y-103858006D01*
X127775516Y-103890001D01*
X127698274Y-103921996D01*
X127469466Y-104074881D01*
X127274881Y-104269466D01*
X127121996Y-104498274D01*
X127016687Y-104752511D01*
X126963001Y-105022409D01*
X126963001Y-105297593D01*
X127016687Y-105567491D01*
X127121996Y-105821728D01*
X127274881Y-106050536D01*
X127469466Y-106245121D01*
X127696908Y-106397093D01*
X127670253Y-106446962D01*
X127654455Y-106476517D01*
X127648840Y-106495027D01*
X127469466Y-106614881D01*
X127274881Y-106809466D01*
X127121996Y-107038274D01*
X127016687Y-107292511D01*
X126963001Y-107562409D01*
X126963001Y-107837593D01*
X127016687Y-108107491D01*
X127121996Y-108361728D01*
X127274881Y-108590536D01*
X127469466Y-108785121D01*
X127698274Y-108938006D01*
X127775516Y-108970001D01*
X127698274Y-109001996D01*
X127469466Y-109154881D01*
X127274881Y-109349466D01*
X127121996Y-109578274D01*
X127016687Y-109832511D01*
X126963001Y-110102409D01*
X126963001Y-110377593D01*
X127016687Y-110647491D01*
X127121996Y-110901728D01*
X127274881Y-111130536D01*
X127469466Y-111325121D01*
X127698274Y-111478006D01*
X127775516Y-111510001D01*
X127698274Y-111541996D01*
X127469466Y-111694881D01*
X127274881Y-111889466D01*
X127121996Y-112118274D01*
X127016687Y-112372511D01*
X126963001Y-112642409D01*
X126963001Y-112917593D01*
X127016687Y-113187491D01*
X127121996Y-113441728D01*
X127274881Y-113670536D01*
X127469466Y-113865121D01*
X127698274Y-114018006D01*
X127775516Y-114050001D01*
X127698274Y-114081996D01*
X127469466Y-114234881D01*
X127274881Y-114429466D01*
X127121996Y-114658274D01*
X127016687Y-114912511D01*
X126963001Y-115182409D01*
X126963001Y-115457593D01*
X127016687Y-115727491D01*
X127121996Y-115981728D01*
X127274881Y-116210536D01*
X127469466Y-116405121D01*
X127698274Y-116558006D01*
X127775516Y-116590001D01*
X127698274Y-116621996D01*
X127469466Y-116774881D01*
X127274881Y-116969466D01*
X127121996Y-117198274D01*
X127016687Y-117452511D01*
X126963001Y-117722409D01*
X126963001Y-117997593D01*
X127016687Y-118267491D01*
X127121996Y-118521728D01*
X127274881Y-118750536D01*
X127469466Y-118945121D01*
X127698274Y-119098006D01*
X127769944Y-119127693D01*
X127756978Y-119132365D01*
X127641021Y-119194345D01*
X127574041Y-119434436D01*
X128360001Y-120220396D01*
X129145961Y-119434436D01*
X129094093Y-119248514D01*
X137095000Y-119248514D01*
X137095000Y-119511486D01*
X137146304Y-119769405D01*
X137246939Y-120012359D01*
X137393038Y-120231013D01*
X137578987Y-120416962D01*
X137797641Y-120563061D01*
X138040595Y-120663696D01*
X138298514Y-120715000D01*
X138561486Y-120715000D01*
X138819405Y-120663696D01*
X139062359Y-120563061D01*
X139281013Y-120416962D01*
X139466962Y-120231013D01*
X139613061Y-120012359D01*
X139713696Y-119769405D01*
X139765000Y-119511486D01*
X139765000Y-119248514D01*
X139713696Y-118990595D01*
X139613061Y-118747641D01*
X139466962Y-118528987D01*
X139281013Y-118343038D01*
X139062359Y-118196939D01*
X138819405Y-118096304D01*
X138561486Y-118045000D01*
X138298514Y-118045000D01*
X138040595Y-118096304D01*
X137797641Y-118196939D01*
X137578987Y-118343038D01*
X137393038Y-118528987D01*
X137246939Y-118747641D01*
X137146304Y-118990595D01*
X137095000Y-119248514D01*
X129094093Y-119248514D01*
X129078981Y-119194345D01*
X128943241Y-119130516D01*
X129021728Y-119098006D01*
X129250536Y-118945121D01*
X129445121Y-118750536D01*
X129598006Y-118521728D01*
X129703315Y-118267491D01*
X129757001Y-117997593D01*
X129757001Y-117722409D01*
X129703315Y-117452511D01*
X129598006Y-117198274D01*
X129445121Y-116969466D01*
X129250536Y-116774881D01*
X129021728Y-116621996D01*
X128944486Y-116590001D01*
X129021728Y-116558006D01*
X129250536Y-116405121D01*
X129445121Y-116210536D01*
X129598006Y-115981728D01*
X129703315Y-115727491D01*
X129757001Y-115457593D01*
X129757001Y-115438514D01*
X137095000Y-115438514D01*
X137095000Y-115701486D01*
X137146304Y-115959405D01*
X137246939Y-116202359D01*
X137393038Y-116421013D01*
X137578987Y-116606962D01*
X137797641Y-116753061D01*
X138040595Y-116853696D01*
X138298514Y-116905000D01*
X138561486Y-116905000D01*
X138819405Y-116853696D01*
X139062359Y-116753061D01*
X139281013Y-116606962D01*
X139466962Y-116421013D01*
X139613061Y-116202359D01*
X139664572Y-116078000D01*
X156079928Y-116078000D01*
X156079928Y-117602000D01*
X156092188Y-117726482D01*
X156128498Y-117846180D01*
X156187463Y-117956494D01*
X156266815Y-118053185D01*
X156363506Y-118132537D01*
X156473820Y-118191502D01*
X156593518Y-118227812D01*
X156677465Y-118236080D01*
X156589465Y-118294880D01*
X156394880Y-118489465D01*
X156241995Y-118718273D01*
X156136686Y-118972510D01*
X156083000Y-119242408D01*
X156083000Y-119517592D01*
X156136686Y-119787490D01*
X156241995Y-120041727D01*
X156394880Y-120270535D01*
X156589465Y-120465120D01*
X156818273Y-120618005D01*
X156895515Y-120650000D01*
X156818273Y-120681995D01*
X156589465Y-120834880D01*
X156394880Y-121029465D01*
X156241995Y-121258273D01*
X156136686Y-121512510D01*
X156083000Y-121782408D01*
X156083000Y-122057592D01*
X156136686Y-122327490D01*
X156241995Y-122581727D01*
X156394880Y-122810535D01*
X156589465Y-123005120D01*
X156818273Y-123158005D01*
X156889943Y-123187692D01*
X156876977Y-123192364D01*
X156761020Y-123254344D01*
X156694040Y-123494435D01*
X157480000Y-124280395D01*
X158265960Y-123494435D01*
X158198980Y-123254344D01*
X158063240Y-123190515D01*
X158141727Y-123158005D01*
X158370535Y-123005120D01*
X158565120Y-122810535D01*
X158718005Y-122581727D01*
X158823314Y-122327490D01*
X158877000Y-122057592D01*
X158877000Y-121782408D01*
X158823314Y-121512510D01*
X158718005Y-121258273D01*
X158565120Y-121029465D01*
X158370535Y-120834880D01*
X158141727Y-120681995D01*
X158064485Y-120650000D01*
X158141727Y-120618005D01*
X158370535Y-120465120D01*
X158565120Y-120270535D01*
X158718005Y-120041727D01*
X158823314Y-119787490D01*
X158877000Y-119517592D01*
X158877000Y-119242408D01*
X158823314Y-118972510D01*
X158718005Y-118718273D01*
X158565120Y-118489465D01*
X158370535Y-118294880D01*
X158282535Y-118236080D01*
X158366482Y-118227812D01*
X158486180Y-118191502D01*
X158596494Y-118132537D01*
X158693185Y-118053185D01*
X158772537Y-117956494D01*
X158831502Y-117846180D01*
X158867812Y-117726482D01*
X158880072Y-117602000D01*
X158880072Y-116702408D01*
X163703000Y-116702408D01*
X163703000Y-116977592D01*
X163756686Y-117247490D01*
X163861995Y-117501727D01*
X164014880Y-117730535D01*
X164209465Y-117925120D01*
X164438273Y-118078005D01*
X164515515Y-118110000D01*
X164438273Y-118141995D01*
X164209465Y-118294880D01*
X164014880Y-118489465D01*
X163861995Y-118718273D01*
X163756686Y-118972510D01*
X163703000Y-119242408D01*
X163703000Y-119517592D01*
X163756686Y-119787490D01*
X163861995Y-120041727D01*
X164014880Y-120270535D01*
X164209465Y-120465120D01*
X164438273Y-120618005D01*
X164515515Y-120650000D01*
X164438273Y-120681995D01*
X164209465Y-120834880D01*
X164014880Y-121029465D01*
X163861995Y-121258273D01*
X163756686Y-121512510D01*
X163703000Y-121782408D01*
X163703000Y-122057592D01*
X163756686Y-122327490D01*
X163861995Y-122581727D01*
X164014880Y-122810535D01*
X164209465Y-123005120D01*
X164438273Y-123158005D01*
X164515515Y-123190000D01*
X164438273Y-123221995D01*
X164209465Y-123374880D01*
X164014880Y-123569465D01*
X163861995Y-123798273D01*
X163756686Y-124052510D01*
X163703000Y-124322408D01*
X163703000Y-124597592D01*
X163756686Y-124867490D01*
X163861995Y-125121727D01*
X164014880Y-125350535D01*
X164209465Y-125545120D01*
X164438273Y-125698005D01*
X164692510Y-125803314D01*
X164962408Y-125857000D01*
X165237592Y-125857000D01*
X165507490Y-125803314D01*
X165761727Y-125698005D01*
X165990535Y-125545120D01*
X166185120Y-125350535D01*
X166338005Y-125121727D01*
X166443314Y-124867490D01*
X166497000Y-124597592D01*
X166497000Y-124322408D01*
X166443314Y-124052510D01*
X166338005Y-123798273D01*
X166185120Y-123569465D01*
X165990535Y-123374880D01*
X165761727Y-123221995D01*
X165684485Y-123190000D01*
X165761727Y-123158005D01*
X165990535Y-123005120D01*
X166185120Y-122810535D01*
X166338005Y-122581727D01*
X166443314Y-122327490D01*
X166497000Y-122057592D01*
X166497000Y-121782408D01*
X166443314Y-121512510D01*
X166407066Y-121425000D01*
X175276928Y-121425000D01*
X175276928Y-122275000D01*
X175289188Y-122399482D01*
X175325498Y-122519180D01*
X175384463Y-122629494D01*
X175463815Y-122726185D01*
X175560506Y-122805537D01*
X175670820Y-122864502D01*
X175790518Y-122900812D01*
X175915000Y-122913072D01*
X176765000Y-122913072D01*
X176889482Y-122900812D01*
X177009180Y-122864502D01*
X177119494Y-122805537D01*
X177216185Y-122726185D01*
X177295537Y-122629494D01*
X177354502Y-122519180D01*
X177390812Y-122399482D01*
X177403072Y-122275000D01*
X177816928Y-122275000D01*
X177829188Y-122399482D01*
X177865498Y-122519180D01*
X177924463Y-122629494D01*
X178003815Y-122726185D01*
X178100506Y-122805537D01*
X178210820Y-122864502D01*
X178330518Y-122900812D01*
X178455000Y-122913072D01*
X178594250Y-122910000D01*
X178753000Y-122751250D01*
X178753000Y-121977000D01*
X179007000Y-121977000D01*
X179007000Y-122751250D01*
X179165750Y-122910000D01*
X179305000Y-122913072D01*
X179429482Y-122900812D01*
X179549180Y-122864502D01*
X179659494Y-122805537D01*
X179756185Y-122726185D01*
X179835537Y-122629494D01*
X179894502Y-122519180D01*
X179930812Y-122399482D01*
X179943072Y-122275000D01*
X179940000Y-122135750D01*
X179781250Y-121977000D01*
X179007000Y-121977000D01*
X178753000Y-121977000D01*
X177978750Y-121977000D01*
X177820000Y-122135750D01*
X177816928Y-122275000D01*
X177403072Y-122275000D01*
X177403072Y-121425000D01*
X177816928Y-121425000D01*
X177820000Y-121564250D01*
X177978750Y-121723000D01*
X178753000Y-121723000D01*
X178753000Y-120948750D01*
X179007000Y-120948750D01*
X179007000Y-121723000D01*
X179781250Y-121723000D01*
X179940000Y-121564250D01*
X179943072Y-121425000D01*
X180356928Y-121425000D01*
X180356928Y-122275000D01*
X180369188Y-122399482D01*
X180405498Y-122519180D01*
X180464463Y-122629494D01*
X180543815Y-122726185D01*
X180640506Y-122805537D01*
X180750820Y-122864502D01*
X180870518Y-122900812D01*
X180995000Y-122913072D01*
X181845000Y-122913072D01*
X181969482Y-122900812D01*
X182089180Y-122864502D01*
X182199494Y-122805537D01*
X182296185Y-122726185D01*
X182375537Y-122629494D01*
X182434502Y-122519180D01*
X182470812Y-122399482D01*
X182483072Y-122275000D01*
X182483072Y-121425000D01*
X182470812Y-121300518D01*
X182434502Y-121180820D01*
X182375537Y-121070506D01*
X182296185Y-120973815D01*
X182199494Y-120894463D01*
X182089180Y-120835498D01*
X181969482Y-120799188D01*
X181845000Y-120786928D01*
X180995000Y-120786928D01*
X180870518Y-120799188D01*
X180750820Y-120835498D01*
X180640506Y-120894463D01*
X180543815Y-120973815D01*
X180464463Y-121070506D01*
X180405498Y-121180820D01*
X180369188Y-121300518D01*
X180356928Y-121425000D01*
X179943072Y-121425000D01*
X179930812Y-121300518D01*
X179894502Y-121180820D01*
X179835537Y-121070506D01*
X179756185Y-120973815D01*
X179659494Y-120894463D01*
X179549180Y-120835498D01*
X179429482Y-120799188D01*
X179305000Y-120786928D01*
X179165750Y-120790000D01*
X179007000Y-120948750D01*
X178753000Y-120948750D01*
X178594250Y-120790000D01*
X178455000Y-120786928D01*
X178330518Y-120799188D01*
X178210820Y-120835498D01*
X178100506Y-120894463D01*
X178003815Y-120973815D01*
X177924463Y-121070506D01*
X177865498Y-121180820D01*
X177829188Y-121300518D01*
X177816928Y-121425000D01*
X177403072Y-121425000D01*
X177390812Y-121300518D01*
X177354502Y-121180820D01*
X177295537Y-121070506D01*
X177216185Y-120973815D01*
X177119494Y-120894463D01*
X177009180Y-120835498D01*
X176889482Y-120799188D01*
X176765000Y-120786928D01*
X175915000Y-120786928D01*
X175790518Y-120799188D01*
X175670820Y-120835498D01*
X175560506Y-120894463D01*
X175463815Y-120973815D01*
X175384463Y-121070506D01*
X175325498Y-121180820D01*
X175289188Y-121300518D01*
X175276928Y-121425000D01*
X166407066Y-121425000D01*
X166338005Y-121258273D01*
X166185120Y-121029465D01*
X165990535Y-120834880D01*
X165761727Y-120681995D01*
X165684485Y-120650000D01*
X165761727Y-120618005D01*
X165990535Y-120465120D01*
X166185120Y-120270535D01*
X166338005Y-120041727D01*
X166443314Y-119787490D01*
X166497000Y-119517592D01*
X166497000Y-119242408D01*
X166443314Y-118972510D01*
X166338005Y-118718273D01*
X166185120Y-118489465D01*
X165990535Y-118294880D01*
X165761727Y-118141995D01*
X165684485Y-118110000D01*
X165761727Y-118078005D01*
X165990535Y-117925120D01*
X166185120Y-117730535D01*
X166338005Y-117501727D01*
X166443314Y-117247490D01*
X166497000Y-116977592D01*
X166497000Y-116702408D01*
X166443314Y-116432510D01*
X166338005Y-116178273D01*
X166185120Y-115949465D01*
X165990535Y-115754880D01*
X165761727Y-115601995D01*
X165507490Y-115496686D01*
X165237592Y-115443000D01*
X164962408Y-115443000D01*
X164692510Y-115496686D01*
X164438273Y-115601995D01*
X164209465Y-115754880D01*
X164014880Y-115949465D01*
X163861995Y-116178273D01*
X163756686Y-116432510D01*
X163703000Y-116702408D01*
X158880072Y-116702408D01*
X158880072Y-116078000D01*
X158867812Y-115953518D01*
X158831502Y-115833820D01*
X158772537Y-115723506D01*
X158693185Y-115626815D01*
X158596494Y-115547463D01*
X158486180Y-115488498D01*
X158366482Y-115452188D01*
X158242000Y-115439928D01*
X158240000Y-115439928D01*
X158240000Y-110388061D01*
X175495000Y-110388061D01*
X175495000Y-110591939D01*
X175534774Y-110791898D01*
X175612795Y-110980256D01*
X175726063Y-111149774D01*
X175870226Y-111293937D01*
X176039744Y-111407205D01*
X176228102Y-111485226D01*
X176428061Y-111525000D01*
X176631939Y-111525000D01*
X176831898Y-111485226D01*
X177020256Y-111407205D01*
X177189774Y-111293937D01*
X177233711Y-111250000D01*
X178755199Y-111250000D01*
X179305000Y-111799802D01*
X179305000Y-111861939D01*
X179344774Y-112061898D01*
X179422795Y-112250256D01*
X179536063Y-112419774D01*
X179680226Y-112563937D01*
X179849744Y-112677205D01*
X180038102Y-112755226D01*
X180238061Y-112795000D01*
X180441939Y-112795000D01*
X180641898Y-112755226D01*
X180830256Y-112677205D01*
X180999774Y-112563937D01*
X181143937Y-112419774D01*
X181257205Y-112250256D01*
X181335226Y-112061898D01*
X181375000Y-111861939D01*
X181375000Y-111658061D01*
X181335226Y-111458102D01*
X181257205Y-111269744D01*
X181143937Y-111100226D01*
X180999774Y-110956063D01*
X180830256Y-110842795D01*
X180641898Y-110764774D01*
X180441939Y-110725000D01*
X180379802Y-110725000D01*
X179633804Y-109979003D01*
X179610001Y-109949999D01*
X179494276Y-109855026D01*
X179362247Y-109784454D01*
X179218986Y-109740997D01*
X179107333Y-109730000D01*
X179107322Y-109730000D01*
X179070000Y-109726324D01*
X179032678Y-109730000D01*
X177233711Y-109730000D01*
X177189774Y-109686063D01*
X177020256Y-109572795D01*
X176831898Y-109494774D01*
X176631939Y-109455000D01*
X176428061Y-109455000D01*
X176228102Y-109494774D01*
X176039744Y-109572795D01*
X175870226Y-109686063D01*
X175726063Y-109830226D01*
X175612795Y-109999744D01*
X175534774Y-110188102D01*
X175495000Y-110388061D01*
X158240000Y-110388061D01*
X158240000Y-106578061D01*
X165335000Y-106578061D01*
X165335000Y-106781939D01*
X165374774Y-106981898D01*
X165452795Y-107170256D01*
X165566063Y-107339774D01*
X165710226Y-107483937D01*
X165879744Y-107597205D01*
X166068102Y-107675226D01*
X166268061Y-107715000D01*
X166471939Y-107715000D01*
X166671898Y-107675226D01*
X166860256Y-107597205D01*
X167029774Y-107483937D01*
X167173937Y-107339774D01*
X167287205Y-107170256D01*
X167365226Y-106981898D01*
X167405000Y-106781939D01*
X167405000Y-106578061D01*
X167365226Y-106378102D01*
X167287205Y-106189744D01*
X167173937Y-106020226D01*
X167130000Y-105976289D01*
X167130000Y-104651799D01*
X167681799Y-104100001D01*
X171365000Y-104100001D01*
X171365000Y-104281335D01*
X171420147Y-104558574D01*
X171528320Y-104819727D01*
X171685363Y-105054759D01*
X171885241Y-105254637D01*
X172120273Y-105411680D01*
X172381426Y-105519853D01*
X172658665Y-105575000D01*
X172941335Y-105575000D01*
X173218574Y-105519853D01*
X173479727Y-105411680D01*
X173714759Y-105254637D01*
X173914637Y-105054759D01*
X173991316Y-104940000D01*
X176361928Y-104940000D01*
X176374188Y-105064482D01*
X176410498Y-105184180D01*
X176469463Y-105294494D01*
X176548815Y-105391185D01*
X176645506Y-105470537D01*
X176755820Y-105529502D01*
X176875518Y-105565812D01*
X177000000Y-105578072D01*
X177514250Y-105575000D01*
X177673000Y-105416250D01*
X177673000Y-104267000D01*
X177927000Y-104267000D01*
X177927000Y-105416250D01*
X178085750Y-105575000D01*
X178600000Y-105578072D01*
X178724482Y-105565812D01*
X178844180Y-105529502D01*
X178954494Y-105470537D01*
X179051185Y-105391185D01*
X179130537Y-105294494D01*
X179189502Y-105184180D01*
X179225812Y-105064482D01*
X179238072Y-104940000D01*
X179235000Y-104425750D01*
X179076250Y-104267000D01*
X177927000Y-104267000D01*
X177673000Y-104267000D01*
X176523750Y-104267000D01*
X176365000Y-104425750D01*
X176361928Y-104940000D01*
X173991316Y-104940000D01*
X174071680Y-104819727D01*
X174179853Y-104558574D01*
X174235000Y-104281335D01*
X174235000Y-103998665D01*
X174179853Y-103721426D01*
X174071680Y-103460273D01*
X173991317Y-103340000D01*
X176361928Y-103340000D01*
X176365000Y-103854250D01*
X176523750Y-104013000D01*
X177673000Y-104013000D01*
X177673000Y-102863750D01*
X177927000Y-102863750D01*
X177927000Y-104013000D01*
X179076250Y-104013000D01*
X179235000Y-103854250D01*
X179238072Y-103340000D01*
X179225812Y-103215518D01*
X179189502Y-103095820D01*
X179130537Y-102985506D01*
X179051185Y-102888815D01*
X178954494Y-102809463D01*
X178844180Y-102750498D01*
X178724482Y-102714188D01*
X178600000Y-102701928D01*
X178085750Y-102705000D01*
X177927000Y-102863750D01*
X177673000Y-102863750D01*
X177514250Y-102705000D01*
X177000000Y-102701928D01*
X176875518Y-102714188D01*
X176755820Y-102750498D01*
X176645506Y-102809463D01*
X176548815Y-102888815D01*
X176469463Y-102985506D01*
X176410498Y-103095820D01*
X176374188Y-103215518D01*
X176361928Y-103340000D01*
X173991317Y-103340000D01*
X173914637Y-103225241D01*
X173714759Y-103025363D01*
X173479727Y-102868320D01*
X173218574Y-102760147D01*
X172941335Y-102705000D01*
X172658665Y-102705000D01*
X172469978Y-102742533D01*
X172424277Y-102705027D01*
X172292248Y-102634455D01*
X172148987Y-102590998D01*
X172037334Y-102580001D01*
X172037323Y-102580001D01*
X172000001Y-102576325D01*
X171962679Y-102580001D01*
X167404322Y-102580001D01*
X167366997Y-102576325D01*
X167329672Y-102580001D01*
X167329664Y-102580001D01*
X167218011Y-102590998D01*
X167074750Y-102634455D01*
X166942721Y-102705027D01*
X166826996Y-102800000D01*
X166803198Y-102828998D01*
X165859002Y-103773194D01*
X165829999Y-103796997D01*
X165788345Y-103847753D01*
X165735026Y-103912722D01*
X165689088Y-103998665D01*
X165664454Y-104044752D01*
X165620997Y-104188013D01*
X165610000Y-104299666D01*
X165610000Y-104299676D01*
X165606324Y-104336998D01*
X165610000Y-104374321D01*
X165610001Y-105976288D01*
X165566063Y-106020226D01*
X165452795Y-106189744D01*
X165374774Y-106378102D01*
X165335000Y-106578061D01*
X158240000Y-106578061D01*
X158240000Y-104520434D01*
X160729876Y-104520434D01*
X160786498Y-104707107D01*
X160926601Y-104995382D01*
X161120252Y-105250785D01*
X161360008Y-105463501D01*
X161636656Y-105625356D01*
X161939565Y-105730129D01*
X162193000Y-105611315D01*
X162193000Y-104267000D01*
X162447000Y-104267000D01*
X162447000Y-105611315D01*
X162700435Y-105730129D01*
X163003344Y-105625356D01*
X163279992Y-105463501D01*
X163519748Y-105250785D01*
X163713399Y-104995382D01*
X163853502Y-104707107D01*
X163910124Y-104520434D01*
X163790777Y-104267000D01*
X162447000Y-104267000D01*
X162193000Y-104267000D01*
X160849223Y-104267000D01*
X160729876Y-104520434D01*
X158240000Y-104520434D01*
X158240000Y-103759566D01*
X160729876Y-103759566D01*
X160849223Y-104013000D01*
X162193000Y-104013000D01*
X162193000Y-102668685D01*
X162447000Y-102668685D01*
X162447000Y-104013000D01*
X163790777Y-104013000D01*
X163910124Y-103759566D01*
X163853502Y-103572893D01*
X163713399Y-103284618D01*
X163519748Y-103029215D01*
X163279992Y-102816499D01*
X163003344Y-102654644D01*
X162700435Y-102549871D01*
X162447000Y-102668685D01*
X162193000Y-102668685D01*
X161939565Y-102549871D01*
X161636656Y-102654644D01*
X161360008Y-102816499D01*
X161120252Y-103029215D01*
X160926601Y-103284618D01*
X160786498Y-103572893D01*
X160729876Y-103759566D01*
X158240000Y-103759566D01*
X158240000Y-101914801D01*
X171961010Y-88193793D01*
X171990001Y-88170001D01*
X172013795Y-88141008D01*
X172013799Y-88141004D01*
X172084973Y-88054277D01*
X172084974Y-88054276D01*
X172155546Y-87922247D01*
X172199003Y-87778986D01*
X172205988Y-87708072D01*
X172440000Y-87708072D01*
X172564482Y-87695812D01*
X172684180Y-87659502D01*
X172794494Y-87600537D01*
X172891185Y-87521185D01*
X172970537Y-87424494D01*
X173029502Y-87314180D01*
X173065812Y-87194482D01*
X173078072Y-87070000D01*
X173078072Y-83110000D01*
X173065812Y-82985518D01*
X173029502Y-82865820D01*
X172970537Y-82755506D01*
X172891185Y-82658815D01*
X172794494Y-82579463D01*
X172684180Y-82520498D01*
X172564482Y-82484188D01*
X172440000Y-82471928D01*
X170460000Y-82471928D01*
X170335518Y-82484188D01*
X170215820Y-82520498D01*
X170105506Y-82579463D01*
X170008815Y-82658815D01*
X169929463Y-82755506D01*
X169870498Y-82865820D01*
X169834188Y-82985518D01*
X169821928Y-83110000D01*
X169821928Y-87070000D01*
X169834188Y-87194482D01*
X169870498Y-87314180D01*
X169929463Y-87424494D01*
X170008815Y-87521185D01*
X170105506Y-87600537D01*
X170215820Y-87659502D01*
X170315467Y-87689730D01*
X156968998Y-101036201D01*
X156940000Y-101059999D01*
X156916202Y-101088997D01*
X156916201Y-101088998D01*
X156845026Y-101175724D01*
X156774454Y-101307754D01*
X156751934Y-101381996D01*
X156730998Y-101451014D01*
X156722738Y-101534881D01*
X156716324Y-101600000D01*
X156720001Y-101637333D01*
X156720000Y-115439928D01*
X156718000Y-115439928D01*
X156593518Y-115452188D01*
X156473820Y-115488498D01*
X156363506Y-115547463D01*
X156266815Y-115626815D01*
X156187463Y-115723506D01*
X156128498Y-115833820D01*
X156092188Y-115953518D01*
X156079928Y-116078000D01*
X139664572Y-116078000D01*
X139713696Y-115959405D01*
X139765000Y-115701486D01*
X139765000Y-115438514D01*
X139713696Y-115180595D01*
X139613061Y-114937641D01*
X139466962Y-114718987D01*
X139281013Y-114533038D01*
X139062359Y-114386939D01*
X138819405Y-114286304D01*
X138561486Y-114235000D01*
X138298514Y-114235000D01*
X138040595Y-114286304D01*
X137797641Y-114386939D01*
X137578987Y-114533038D01*
X137393038Y-114718987D01*
X137246939Y-114937641D01*
X137146304Y-115180595D01*
X137095000Y-115438514D01*
X129757001Y-115438514D01*
X129757001Y-115182409D01*
X129703315Y-114912511D01*
X129598006Y-114658274D01*
X129445121Y-114429466D01*
X129250536Y-114234881D01*
X129021728Y-114081996D01*
X128944486Y-114050001D01*
X129021728Y-114018006D01*
X129250536Y-113865121D01*
X129445121Y-113670536D01*
X129598006Y-113441728D01*
X129703315Y-113187491D01*
X129757001Y-112917593D01*
X129757001Y-112642409D01*
X129703315Y-112372511D01*
X129598006Y-112118274D01*
X129445121Y-111889466D01*
X129250536Y-111694881D01*
X129021728Y-111541996D01*
X128944486Y-111510001D01*
X129021728Y-111478006D01*
X129250536Y-111325121D01*
X129445121Y-111130536D01*
X129598006Y-110901728D01*
X129703315Y-110647491D01*
X129757001Y-110377593D01*
X129757001Y-110102409D01*
X129703315Y-109832511D01*
X129598006Y-109578274D01*
X129445121Y-109349466D01*
X129250536Y-109154881D01*
X129021728Y-109001996D01*
X128944486Y-108970001D01*
X129021728Y-108938006D01*
X129250536Y-108785121D01*
X129445121Y-108590536D01*
X129598006Y-108361728D01*
X129703315Y-108107491D01*
X129757001Y-107837593D01*
X129757001Y-107818514D01*
X137095000Y-107818514D01*
X137095000Y-108081486D01*
X137146304Y-108339405D01*
X137246939Y-108582359D01*
X137393038Y-108801013D01*
X137578987Y-108986962D01*
X137797641Y-109133061D01*
X138040595Y-109233696D01*
X138298514Y-109285000D01*
X138561486Y-109285000D01*
X138819405Y-109233696D01*
X139062359Y-109133061D01*
X139281013Y-108986962D01*
X139466962Y-108801013D01*
X139613061Y-108582359D01*
X139713696Y-108339405D01*
X139765000Y-108081486D01*
X139765000Y-107818514D01*
X139713696Y-107560595D01*
X139613061Y-107317641D01*
X139466962Y-107098987D01*
X139281013Y-106913038D01*
X139062359Y-106766939D01*
X138819405Y-106666304D01*
X138561486Y-106615000D01*
X138298514Y-106615000D01*
X138040595Y-106666304D01*
X137797641Y-106766939D01*
X137578987Y-106913038D01*
X137393038Y-107098987D01*
X137246939Y-107317641D01*
X137146304Y-107560595D01*
X137095000Y-107818514D01*
X129757001Y-107818514D01*
X129757001Y-107562409D01*
X129703315Y-107292511D01*
X129598006Y-107038274D01*
X129445121Y-106809466D01*
X129419610Y-106783955D01*
X132195051Y-104008514D01*
X133285000Y-104008514D01*
X133285000Y-104271486D01*
X133336304Y-104529405D01*
X133436939Y-104772359D01*
X133583038Y-104991013D01*
X133768987Y-105176962D01*
X133987641Y-105323061D01*
X134230595Y-105423696D01*
X134488514Y-105475000D01*
X134751486Y-105475000D01*
X135009405Y-105423696D01*
X135252359Y-105323061D01*
X135471013Y-105176962D01*
X135656962Y-104991013D01*
X135803061Y-104772359D01*
X135903696Y-104529405D01*
X135955000Y-104271486D01*
X135955000Y-104008514D01*
X140905000Y-104008514D01*
X140905000Y-104271486D01*
X140956304Y-104529405D01*
X141056939Y-104772359D01*
X141203038Y-104991013D01*
X141388987Y-105176962D01*
X141607641Y-105323061D01*
X141850595Y-105423696D01*
X142108514Y-105475000D01*
X142371486Y-105475000D01*
X142629405Y-105423696D01*
X142872359Y-105323061D01*
X143091013Y-105176962D01*
X143276962Y-104991013D01*
X143423061Y-104772359D01*
X143523696Y-104529405D01*
X143575000Y-104271486D01*
X143575000Y-104008514D01*
X143523696Y-103750595D01*
X143423061Y-103507641D01*
X143276962Y-103288987D01*
X143127975Y-103140000D01*
X145681928Y-103140000D01*
X145681928Y-105140000D01*
X145694188Y-105264482D01*
X145730498Y-105384180D01*
X145789463Y-105494494D01*
X145868815Y-105591185D01*
X145965506Y-105670537D01*
X146075820Y-105729502D01*
X146195518Y-105765812D01*
X146320000Y-105778072D01*
X148320000Y-105778072D01*
X148444482Y-105765812D01*
X148564180Y-105729502D01*
X148674494Y-105670537D01*
X148771185Y-105591185D01*
X148850537Y-105494494D01*
X148909502Y-105384180D01*
X148945812Y-105264482D01*
X148958072Y-105140000D01*
X148958072Y-103140000D01*
X148945812Y-103015518D01*
X148909502Y-102895820D01*
X148850537Y-102785506D01*
X148771185Y-102688815D01*
X148674494Y-102609463D01*
X148564180Y-102550498D01*
X148444482Y-102514188D01*
X148320000Y-102501928D01*
X146320000Y-102501928D01*
X146195518Y-102514188D01*
X146075820Y-102550498D01*
X145965506Y-102609463D01*
X145868815Y-102688815D01*
X145789463Y-102785506D01*
X145730498Y-102895820D01*
X145694188Y-103015518D01*
X145681928Y-103140000D01*
X143127975Y-103140000D01*
X143091013Y-103103038D01*
X142872359Y-102956939D01*
X142629405Y-102856304D01*
X142371486Y-102805000D01*
X142108514Y-102805000D01*
X141850595Y-102856304D01*
X141607641Y-102956939D01*
X141388987Y-103103038D01*
X141203038Y-103288987D01*
X141056939Y-103507641D01*
X140956304Y-103750595D01*
X140905000Y-104008514D01*
X135955000Y-104008514D01*
X135903696Y-103750595D01*
X135803061Y-103507641D01*
X135656962Y-103288987D01*
X135471013Y-103103038D01*
X135252359Y-102956939D01*
X135009405Y-102856304D01*
X134751486Y-102805000D01*
X134488514Y-102805000D01*
X134230595Y-102856304D01*
X133987641Y-102956939D01*
X133768987Y-103103038D01*
X133583038Y-103288987D01*
X133436939Y-103507641D01*
X133336304Y-103750595D01*
X133285000Y-104008514D01*
X132195051Y-104008514D01*
X135131008Y-101072559D01*
X135160001Y-101048765D01*
X135183795Y-101019772D01*
X135183799Y-101019768D01*
X135254973Y-100933041D01*
X135254974Y-100933040D01*
X135325546Y-100801010D01*
X135369003Y-100657749D01*
X135369216Y-100655585D01*
X142146740Y-93878061D01*
X155175000Y-93878061D01*
X155175000Y-94081939D01*
X155214774Y-94281898D01*
X155292795Y-94470256D01*
X155406063Y-94639774D01*
X155550226Y-94783937D01*
X155719744Y-94897205D01*
X155908102Y-94975226D01*
X156108061Y-95015000D01*
X156311939Y-95015000D01*
X156511898Y-94975226D01*
X156700256Y-94897205D01*
X156869774Y-94783937D01*
X157013937Y-94639774D01*
X157127205Y-94470256D01*
X157205226Y-94281898D01*
X157245000Y-94081939D01*
X157245000Y-94019801D01*
X159064803Y-92200000D01*
X160586289Y-92200000D01*
X160630226Y-92243937D01*
X160799744Y-92357205D01*
X160988102Y-92435226D01*
X161188061Y-92475000D01*
X161391939Y-92475000D01*
X161591898Y-92435226D01*
X161780256Y-92357205D01*
X161949774Y-92243937D01*
X162093937Y-92099774D01*
X162207205Y-91930256D01*
X162285226Y-91741898D01*
X162325000Y-91541939D01*
X162325000Y-91338061D01*
X162285226Y-91138102D01*
X162207205Y-90949744D01*
X162093937Y-90780226D01*
X161949774Y-90636063D01*
X161780256Y-90522795D01*
X161591898Y-90444774D01*
X161391939Y-90405000D01*
X161188061Y-90405000D01*
X160988102Y-90444774D01*
X160799744Y-90522795D01*
X160630226Y-90636063D01*
X160586289Y-90680000D01*
X158787322Y-90680000D01*
X158749999Y-90676324D01*
X158712676Y-90680000D01*
X158712667Y-90680000D01*
X158601014Y-90690997D01*
X158457753Y-90734454D01*
X158325724Y-90805026D01*
X158325722Y-90805027D01*
X158325723Y-90805027D01*
X158238996Y-90876201D01*
X158238992Y-90876205D01*
X158209999Y-90899999D01*
X158186205Y-90928992D01*
X156170199Y-92945000D01*
X156108061Y-92945000D01*
X155908102Y-92984774D01*
X155719744Y-93062795D01*
X155550226Y-93176063D01*
X155406063Y-93320226D01*
X155292795Y-93489744D01*
X155214774Y-93678102D01*
X155175000Y-93878061D01*
X142146740Y-93878061D01*
X145291003Y-90733799D01*
X145320001Y-90710001D01*
X145414974Y-90594276D01*
X145485546Y-90462247D01*
X145529003Y-90318986D01*
X145540000Y-90207333D01*
X145540000Y-90207325D01*
X145543676Y-90170000D01*
X145540000Y-90132675D01*
X145540000Y-87708072D01*
X145770000Y-87708072D01*
X145894482Y-87695812D01*
X146014180Y-87659502D01*
X146124494Y-87600537D01*
X146221185Y-87521185D01*
X146300537Y-87424494D01*
X146359502Y-87314180D01*
X146395812Y-87194482D01*
X146408072Y-87070000D01*
X146408072Y-85217000D01*
X164825000Y-85217000D01*
X164825000Y-86207000D01*
X164881000Y-86521582D01*
X164997296Y-86819194D01*
X165169419Y-87088399D01*
X165390754Y-87318852D01*
X165652795Y-87501696D01*
X165945472Y-87629905D01*
X166071135Y-87660218D01*
X166323000Y-87540740D01*
X166323000Y-85217000D01*
X166577000Y-85217000D01*
X166577000Y-87540740D01*
X166828865Y-87660218D01*
X166954528Y-87629905D01*
X167247205Y-87501696D01*
X167509246Y-87318852D01*
X167730581Y-87088399D01*
X167902704Y-86819194D01*
X168019000Y-86521582D01*
X168075000Y-86207000D01*
X168075000Y-85217000D01*
X166577000Y-85217000D01*
X166323000Y-85217000D01*
X164825000Y-85217000D01*
X146408072Y-85217000D01*
X146408072Y-83973000D01*
X164825000Y-83973000D01*
X164825000Y-84963000D01*
X166323000Y-84963000D01*
X166323000Y-82639260D01*
X166577000Y-82639260D01*
X166577000Y-84963000D01*
X168075000Y-84963000D01*
X168075000Y-83973000D01*
X168019000Y-83658418D01*
X167902704Y-83360806D01*
X167730581Y-83091601D01*
X167509246Y-82861148D01*
X167247205Y-82678304D01*
X166954528Y-82550095D01*
X166828865Y-82519782D01*
X166577000Y-82639260D01*
X166323000Y-82639260D01*
X166071135Y-82519782D01*
X165945472Y-82550095D01*
X165652795Y-82678304D01*
X165390754Y-82861148D01*
X165169419Y-83091601D01*
X164997296Y-83360806D01*
X164881000Y-83658418D01*
X164825000Y-83973000D01*
X146408072Y-83973000D01*
X146408072Y-83110000D01*
X146395812Y-82985518D01*
X146359502Y-82865820D01*
X146300537Y-82755506D01*
X146221185Y-82658815D01*
X146124494Y-82579463D01*
X146014180Y-82520498D01*
X145894482Y-82484188D01*
X145770000Y-82471928D01*
X143790000Y-82471928D01*
X143665518Y-82484188D01*
X143545820Y-82520498D01*
X143435506Y-82579463D01*
X143338815Y-82658815D01*
X143259463Y-82755506D01*
X143200498Y-82865820D01*
X143164188Y-82985518D01*
X143151928Y-83110000D01*
X143151928Y-87070000D01*
X143164188Y-87194482D01*
X143200498Y-87314180D01*
X143259463Y-87424494D01*
X143338815Y-87521185D01*
X143435506Y-87600537D01*
X143545820Y-87659502D01*
X143665518Y-87695812D01*
X143790000Y-87708072D01*
X144020001Y-87708072D01*
X144020001Y-89855197D01*
X134109003Y-99766196D01*
X134079999Y-99789999D01*
X134024871Y-99857174D01*
X133985026Y-99905724D01*
X133964051Y-99944965D01*
X133914454Y-100037754D01*
X133870997Y-100181015D01*
X133870784Y-100183177D01*
X129581056Y-104472906D01*
X129445121Y-104269466D01*
X129250536Y-104074881D01*
X129021728Y-103921996D01*
X128944486Y-103890001D01*
X129021728Y-103858006D01*
X129250536Y-103705121D01*
X129445121Y-103510536D01*
X129598006Y-103281728D01*
X129703315Y-103027491D01*
X129757001Y-102757593D01*
X129757001Y-102482409D01*
X129703315Y-102212511D01*
X129598006Y-101958274D01*
X129445121Y-101729466D01*
X129250536Y-101534881D01*
X129021728Y-101381996D01*
X128944486Y-101350001D01*
X129021728Y-101318006D01*
X129250536Y-101165121D01*
X129445121Y-100970536D01*
X129598006Y-100741728D01*
X129703315Y-100487491D01*
X129757001Y-100217593D01*
X129757001Y-99942409D01*
X129703315Y-99672511D01*
X129598006Y-99418274D01*
X129445121Y-99189466D01*
X129250536Y-98994881D01*
X129021728Y-98841996D01*
X128944486Y-98810001D01*
X129021728Y-98778006D01*
X129250536Y-98625121D01*
X129445121Y-98430536D01*
X129598006Y-98201728D01*
X129703315Y-97947491D01*
X129757001Y-97677593D01*
X129757001Y-97402409D01*
X129703315Y-97132511D01*
X129598006Y-96878274D01*
X129445121Y-96649466D01*
X129250536Y-96454881D01*
X129021728Y-96301996D01*
X128944486Y-96270001D01*
X129021728Y-96238006D01*
X129250536Y-96085121D01*
X129445121Y-95890536D01*
X129598006Y-95661728D01*
X129703315Y-95407491D01*
X129757001Y-95137593D01*
X129757001Y-94862409D01*
X129703315Y-94592511D01*
X129598006Y-94338274D01*
X129445121Y-94109466D01*
X129250536Y-93914881D01*
X129021728Y-93761996D01*
X128944486Y-93730001D01*
X129021728Y-93698006D01*
X129250536Y-93545121D01*
X129445121Y-93350536D01*
X129598006Y-93121728D01*
X129703315Y-92867491D01*
X129757001Y-92597593D01*
X129757001Y-92322409D01*
X129703315Y-92052511D01*
X129598006Y-91798274D01*
X129445121Y-91569466D01*
X129250536Y-91374881D01*
X129021728Y-91221996D01*
X128944486Y-91190001D01*
X129021728Y-91158006D01*
X129250536Y-91005121D01*
X129445121Y-90810536D01*
X129598006Y-90581728D01*
X129703315Y-90327491D01*
X129757001Y-90057593D01*
X129757001Y-89782409D01*
X129703315Y-89512511D01*
X129598006Y-89258274D01*
X129445121Y-89029466D01*
X129250536Y-88834881D01*
X129021728Y-88681996D01*
X128944486Y-88650001D01*
X129021728Y-88618006D01*
X129250536Y-88465121D01*
X129445121Y-88270536D01*
X129598006Y-88041728D01*
X129703315Y-87787491D01*
X129757001Y-87517593D01*
X129757001Y-87242409D01*
X129703315Y-86972511D01*
X129598006Y-86718274D01*
X129445121Y-86489466D01*
X129250536Y-86294881D01*
X129021728Y-86141996D01*
X128767491Y-86036687D01*
X128497593Y-85983001D01*
X128222409Y-85983001D01*
X127952511Y-86036687D01*
X127698274Y-86141996D01*
X127469466Y-86294881D01*
X127274881Y-86489466D01*
X127121996Y-86718274D01*
X127016687Y-86972511D01*
X126963001Y-87242409D01*
X104360073Y-87242409D01*
X104360073Y-86618001D01*
X104347813Y-86493519D01*
X104311503Y-86373821D01*
X104252538Y-86263507D01*
X104173186Y-86166816D01*
X104076495Y-86087464D01*
X103966181Y-86028499D01*
X103846483Y-85992189D01*
X103722001Y-85979929D01*
X102198001Y-85979929D01*
X102073519Y-85992189D01*
X101953821Y-86028499D01*
X101843507Y-86087464D01*
X101746816Y-86166816D01*
X101667464Y-86263507D01*
X101608499Y-86373821D01*
X101572189Y-86493519D01*
X101559929Y-86618001D01*
X91797253Y-86618001D01*
X91795000Y-85375750D01*
X91636250Y-85217000D01*
X133155000Y-85217000D01*
X133155000Y-86207000D01*
X133211000Y-86521582D01*
X133327296Y-86819194D01*
X133499419Y-87088399D01*
X133720754Y-87318852D01*
X133982795Y-87501696D01*
X134275472Y-87629905D01*
X134401135Y-87660218D01*
X134653000Y-87540740D01*
X134653000Y-85217000D01*
X134907000Y-85217000D01*
X134907000Y-87540740D01*
X135158865Y-87660218D01*
X135284528Y-87629905D01*
X135577205Y-87501696D01*
X135839246Y-87318852D01*
X136060581Y-87088399D01*
X136232704Y-86819194D01*
X136349000Y-86521582D01*
X136405000Y-86207000D01*
X136405000Y-86159823D01*
X138155000Y-86159823D01*
X138178513Y-86398555D01*
X138271432Y-86704868D01*
X138422325Y-86987169D01*
X138625392Y-87234608D01*
X138872830Y-87437675D01*
X139155131Y-87588568D01*
X139461444Y-87681487D01*
X139780000Y-87712862D01*
X140098555Y-87681487D01*
X140404868Y-87588568D01*
X140687169Y-87437675D01*
X140934608Y-87234608D01*
X141137675Y-86987170D01*
X141288568Y-86704869D01*
X141381487Y-86398556D01*
X141405000Y-86159824D01*
X141405000Y-84020176D01*
X141381487Y-83781444D01*
X141288568Y-83475131D01*
X141137675Y-83192830D01*
X140934608Y-82945392D01*
X140687170Y-82742325D01*
X140404869Y-82591432D01*
X140098556Y-82498513D01*
X139780000Y-82467138D01*
X139461445Y-82498513D01*
X139155132Y-82591432D01*
X138872831Y-82742325D01*
X138625393Y-82945392D01*
X138422326Y-83192830D01*
X138271433Y-83475131D01*
X138178514Y-83781444D01*
X138155001Y-84020176D01*
X138155000Y-86159823D01*
X136405000Y-86159823D01*
X136405000Y-85217000D01*
X134907000Y-85217000D01*
X134653000Y-85217000D01*
X133155000Y-85217000D01*
X91636250Y-85217000D01*
X90297000Y-85217000D01*
X90043000Y-85217000D01*
X88703750Y-85217000D01*
X88545000Y-85375750D01*
X88541928Y-87070000D01*
X86459698Y-87070000D01*
X86527675Y-86987170D01*
X86678568Y-86704869D01*
X86771487Y-86398556D01*
X86795000Y-86159824D01*
X86795000Y-84020176D01*
X86771487Y-83781444D01*
X86678568Y-83475131D01*
X86527675Y-83192830D01*
X86459699Y-83110000D01*
X88541928Y-83110000D01*
X88545000Y-84804250D01*
X88703750Y-84963000D01*
X90043000Y-84963000D01*
X90043000Y-82633750D01*
X90297000Y-82633750D01*
X90297000Y-84963000D01*
X91636250Y-84963000D01*
X91795000Y-84804250D01*
X91796507Y-83973000D01*
X133155000Y-83973000D01*
X133155000Y-84963000D01*
X134653000Y-84963000D01*
X134653000Y-82639260D01*
X134907000Y-82639260D01*
X134907000Y-84963000D01*
X136405000Y-84963000D01*
X136405000Y-83973000D01*
X136349000Y-83658418D01*
X136232704Y-83360806D01*
X136060581Y-83091601D01*
X135839246Y-82861148D01*
X135577205Y-82678304D01*
X135284528Y-82550095D01*
X135158865Y-82519782D01*
X134907000Y-82639260D01*
X134653000Y-82639260D01*
X134401135Y-82519782D01*
X134275472Y-82550095D01*
X133982795Y-82678304D01*
X133720754Y-82861148D01*
X133499419Y-83091601D01*
X133327296Y-83360806D01*
X133211000Y-83658418D01*
X133155000Y-83973000D01*
X91796507Y-83973000D01*
X91798072Y-83110000D01*
X91785812Y-82985518D01*
X91749502Y-82865820D01*
X91690537Y-82755506D01*
X91611185Y-82658815D01*
X91514494Y-82579463D01*
X91404180Y-82520498D01*
X91284482Y-82484188D01*
X91160000Y-82471928D01*
X90455750Y-82475000D01*
X90297000Y-82633750D01*
X90043000Y-82633750D01*
X89884250Y-82475000D01*
X89180000Y-82471928D01*
X89055518Y-82484188D01*
X88935820Y-82520498D01*
X88825506Y-82579463D01*
X88728815Y-82658815D01*
X88649463Y-82755506D01*
X88590498Y-82865820D01*
X88554188Y-82985518D01*
X88541928Y-83110000D01*
X86459699Y-83110000D01*
X86324608Y-82945392D01*
X86077170Y-82742325D01*
X85794869Y-82591432D01*
X85488556Y-82498513D01*
X85170000Y-82467138D01*
X84851445Y-82498513D01*
X84545132Y-82591432D01*
X84262831Y-82742325D01*
X84015393Y-82945392D01*
X83812326Y-83192830D01*
X83661433Y-83475131D01*
X83568514Y-83781444D01*
X83545001Y-84020176D01*
X83545000Y-86159823D01*
X74175001Y-86159823D01*
X74175001Y-86152323D01*
X74178677Y-86115000D01*
X74175001Y-86077677D01*
X74175001Y-86077668D01*
X74164004Y-85966015D01*
X74120547Y-85822754D01*
X74049975Y-85690725D01*
X74018072Y-85651851D01*
X74018072Y-83110000D01*
X74005812Y-82985518D01*
X73969502Y-82865820D01*
X73910537Y-82755506D01*
X73831185Y-82658815D01*
X73734494Y-82579463D01*
X73624180Y-82520498D01*
X73504482Y-82484188D01*
X73380000Y-82471928D01*
X71400000Y-82471928D01*
X71275518Y-82484188D01*
X71155820Y-82520498D01*
X71045506Y-82579463D01*
X70948815Y-82658815D01*
X70869463Y-82755506D01*
X70810498Y-82865820D01*
X70774188Y-82985518D01*
X70761928Y-83110000D01*
X70761928Y-87070000D01*
X70774188Y-87194482D01*
X70810498Y-87314180D01*
X70869463Y-87424494D01*
X70948815Y-87521185D01*
X71045506Y-87600537D01*
X71155820Y-87659502D01*
X71275518Y-87695812D01*
X71400000Y-87708072D01*
X72655001Y-87708072D01*
X72655001Y-96481558D01*
X72521486Y-96455000D01*
X72258514Y-96455000D01*
X72000595Y-96506304D01*
X71757641Y-96606939D01*
X71538987Y-96753038D01*
X71353038Y-96938987D01*
X71206939Y-97157641D01*
X71106304Y-97400595D01*
X71055000Y-97658514D01*
X71055000Y-97921486D01*
X71106304Y-98179405D01*
X71206939Y-98422359D01*
X71353038Y-98641013D01*
X71538987Y-98826962D01*
X71757641Y-98973061D01*
X72000595Y-99073696D01*
X72258514Y-99125000D01*
X72521486Y-99125000D01*
X72655002Y-99098442D01*
X72655002Y-104101558D01*
X72521486Y-104075000D01*
X72258514Y-104075000D01*
X72000595Y-104126304D01*
X71757641Y-104226939D01*
X71538987Y-104373038D01*
X71353038Y-104558987D01*
X71292225Y-104650000D01*
X64672341Y-104650000D01*
X64585120Y-104519465D01*
X64390535Y-104324880D01*
X64161727Y-104171995D01*
X63907490Y-104066686D01*
X63637592Y-104013000D01*
X63362408Y-104013000D01*
X63092510Y-104066686D01*
X62838273Y-104171995D01*
X62609465Y-104324880D01*
X62414880Y-104519465D01*
X62261995Y-104748273D01*
X62156686Y-105002510D01*
X62103000Y-105272408D01*
X62103000Y-105547592D01*
X62156686Y-105817490D01*
X62261995Y-106071727D01*
X62414880Y-106300535D01*
X62609465Y-106495120D01*
X62838273Y-106648005D01*
X62915515Y-106680000D01*
X62838273Y-106711995D01*
X62609465Y-106864880D01*
X62414880Y-107059465D01*
X62261995Y-107288273D01*
X62156686Y-107542510D01*
X62103000Y-107812408D01*
X62103000Y-108087592D01*
X62156686Y-108357490D01*
X62261995Y-108611727D01*
X62414880Y-108840535D01*
X62609465Y-109035120D01*
X62697465Y-109093920D01*
X62613518Y-109102188D01*
X62493820Y-109138498D01*
X62383506Y-109197463D01*
X62286815Y-109276815D01*
X62207463Y-109373506D01*
X62148498Y-109483820D01*
X62112188Y-109603518D01*
X62099928Y-109728000D01*
X50927000Y-109728000D01*
X50927000Y-85217000D01*
X65765000Y-85217000D01*
X65765000Y-86207000D01*
X65821000Y-86521582D01*
X65937296Y-86819194D01*
X66109419Y-87088399D01*
X66330754Y-87318852D01*
X66592795Y-87501696D01*
X66885472Y-87629905D01*
X67011135Y-87660218D01*
X67263000Y-87540740D01*
X67263000Y-85217000D01*
X67517000Y-85217000D01*
X67517000Y-87540740D01*
X67768865Y-87660218D01*
X67894528Y-87629905D01*
X68187205Y-87501696D01*
X68449246Y-87318852D01*
X68670581Y-87088399D01*
X68842704Y-86819194D01*
X68959000Y-86521582D01*
X69015000Y-86207000D01*
X69015000Y-85217000D01*
X67517000Y-85217000D01*
X67263000Y-85217000D01*
X65765000Y-85217000D01*
X50927000Y-85217000D01*
X50927000Y-83973000D01*
X65765000Y-83973000D01*
X65765000Y-84963000D01*
X67263000Y-84963000D01*
X67263000Y-82639260D01*
X67517000Y-82639260D01*
X67517000Y-84963000D01*
X69015000Y-84963000D01*
X69015000Y-83973000D01*
X68959000Y-83658418D01*
X68842704Y-83360806D01*
X68670581Y-83091601D01*
X68449246Y-82861148D01*
X68187205Y-82678304D01*
X67894528Y-82550095D01*
X67768865Y-82519782D01*
X67517000Y-82639260D01*
X67263000Y-82639260D01*
X67011135Y-82519782D01*
X66885472Y-82550095D01*
X66592795Y-82678304D01*
X66330754Y-82861148D01*
X66109419Y-83091601D01*
X65937296Y-83360806D01*
X65821000Y-83658418D01*
X65765000Y-83973000D01*
X50927000Y-83973000D01*
X50927000Y-80855000D01*
X189436928Y-80855000D01*
X189436928Y-81705000D01*
X189449188Y-81829482D01*
X189485498Y-81949180D01*
X189544463Y-82059494D01*
X189623815Y-82156185D01*
X189720506Y-82235537D01*
X189740000Y-82245957D01*
X189740001Y-90474043D01*
X189720506Y-90484463D01*
X189623815Y-90563815D01*
X189544463Y-90660506D01*
X189485498Y-90770820D01*
X189449188Y-90890518D01*
X189436928Y-91015000D01*
X189436928Y-91865000D01*
X189449188Y-91989482D01*
X189485498Y-92109180D01*
X189544463Y-92219494D01*
X189623815Y-92316185D01*
X189720506Y-92395537D01*
X189830820Y-92454502D01*
X189950518Y-92490812D01*
X190075000Y-92503072D01*
X190925000Y-92503072D01*
X191049482Y-92490812D01*
X191169180Y-92454502D01*
X191279494Y-92395537D01*
X191376185Y-92316185D01*
X191455537Y-92219494D01*
X191514502Y-92109180D01*
X191550812Y-91989482D01*
X191563072Y-91865000D01*
X191976928Y-91865000D01*
X191989188Y-91989482D01*
X192025498Y-92109180D01*
X192084463Y-92219494D01*
X192163815Y-92316185D01*
X192260506Y-92395537D01*
X192370820Y-92454502D01*
X192490518Y-92490812D01*
X192615000Y-92503072D01*
X192754250Y-92500000D01*
X192913000Y-92341250D01*
X192913000Y-91567000D01*
X193167000Y-91567000D01*
X193167000Y-92341250D01*
X193325750Y-92500000D01*
X193465000Y-92503072D01*
X193589482Y-92490812D01*
X193709180Y-92454502D01*
X193819494Y-92395537D01*
X193916185Y-92316185D01*
X193995537Y-92219494D01*
X194054502Y-92109180D01*
X194090812Y-91989482D01*
X194103072Y-91865000D01*
X194100000Y-91725750D01*
X193941250Y-91567000D01*
X193167000Y-91567000D01*
X192913000Y-91567000D01*
X192138750Y-91567000D01*
X191980000Y-91725750D01*
X191976928Y-91865000D01*
X191563072Y-91865000D01*
X191563072Y-91015000D01*
X191976928Y-91015000D01*
X191980000Y-91154250D01*
X192138750Y-91313000D01*
X192913000Y-91313000D01*
X192913000Y-90538750D01*
X193167000Y-90538750D01*
X193167000Y-91313000D01*
X193941250Y-91313000D01*
X194100000Y-91154250D01*
X194103072Y-91015000D01*
X232616928Y-91015000D01*
X232616928Y-91865000D01*
X232629188Y-91989482D01*
X232665498Y-92109180D01*
X232724463Y-92219494D01*
X232803815Y-92316185D01*
X232900506Y-92395537D01*
X233010820Y-92454502D01*
X233130518Y-92490812D01*
X233255000Y-92503072D01*
X234105000Y-92503072D01*
X234229482Y-92490812D01*
X234349180Y-92454502D01*
X234459494Y-92395537D01*
X234556185Y-92316185D01*
X234635537Y-92219494D01*
X234694502Y-92109180D01*
X234730812Y-91989482D01*
X234743072Y-91865000D01*
X235156928Y-91865000D01*
X235169188Y-91989482D01*
X235205498Y-92109180D01*
X235264463Y-92219494D01*
X235343815Y-92316185D01*
X235440506Y-92395537D01*
X235550820Y-92454502D01*
X235670518Y-92490812D01*
X235795000Y-92503072D01*
X235934250Y-92500000D01*
X236093000Y-92341250D01*
X236093000Y-91567000D01*
X236347000Y-91567000D01*
X236347000Y-92341250D01*
X236505750Y-92500000D01*
X236645000Y-92503072D01*
X236769482Y-92490812D01*
X236889180Y-92454502D01*
X236999494Y-92395537D01*
X237096185Y-92316185D01*
X237175537Y-92219494D01*
X237234502Y-92109180D01*
X237270812Y-91989482D01*
X237283072Y-91865000D01*
X237280000Y-91725750D01*
X237121250Y-91567000D01*
X236347000Y-91567000D01*
X236093000Y-91567000D01*
X235318750Y-91567000D01*
X235160000Y-91725750D01*
X235156928Y-91865000D01*
X234743072Y-91865000D01*
X234743072Y-91015000D01*
X235156928Y-91015000D01*
X235160000Y-91154250D01*
X235318750Y-91313000D01*
X236093000Y-91313000D01*
X236093000Y-90538750D01*
X236347000Y-90538750D01*
X236347000Y-91313000D01*
X237121250Y-91313000D01*
X237280000Y-91154250D01*
X237283072Y-91015000D01*
X237270812Y-90890518D01*
X237234502Y-90770820D01*
X237175537Y-90660506D01*
X237096185Y-90563815D01*
X236999494Y-90484463D01*
X236889180Y-90425498D01*
X236769482Y-90389188D01*
X236645000Y-90376928D01*
X236505750Y-90380000D01*
X236347000Y-90538750D01*
X236093000Y-90538750D01*
X235934250Y-90380000D01*
X235795000Y-90376928D01*
X235670518Y-90389188D01*
X235550820Y-90425498D01*
X235440506Y-90484463D01*
X235343815Y-90563815D01*
X235264463Y-90660506D01*
X235205498Y-90770820D01*
X235169188Y-90890518D01*
X235156928Y-91015000D01*
X234743072Y-91015000D01*
X234730812Y-90890518D01*
X234694502Y-90770820D01*
X234635537Y-90660506D01*
X234556185Y-90563815D01*
X234459494Y-90484463D01*
X234349180Y-90425498D01*
X234229482Y-90389188D01*
X234105000Y-90376928D01*
X233255000Y-90376928D01*
X233130518Y-90389188D01*
X233010820Y-90425498D01*
X232900506Y-90484463D01*
X232803815Y-90563815D01*
X232724463Y-90660506D01*
X232665498Y-90770820D01*
X232629188Y-90890518D01*
X232616928Y-91015000D01*
X194103072Y-91015000D01*
X194090812Y-90890518D01*
X194054502Y-90770820D01*
X193995537Y-90660506D01*
X193916185Y-90563815D01*
X193819494Y-90484463D01*
X193709180Y-90425498D01*
X193589482Y-90389188D01*
X193465000Y-90376928D01*
X193325750Y-90380000D01*
X193167000Y-90538750D01*
X192913000Y-90538750D01*
X192754250Y-90380000D01*
X192615000Y-90376928D01*
X192490518Y-90389188D01*
X192370820Y-90425498D01*
X192260506Y-90484463D01*
X192163815Y-90563815D01*
X192084463Y-90660506D01*
X192025498Y-90770820D01*
X191989188Y-90890518D01*
X191976928Y-91015000D01*
X191563072Y-91015000D01*
X191550812Y-90890518D01*
X191514502Y-90770820D01*
X191455537Y-90660506D01*
X191376185Y-90563815D01*
X191279494Y-90484463D01*
X191260000Y-90474043D01*
X191260000Y-82245957D01*
X191279494Y-82235537D01*
X191376185Y-82156185D01*
X191455537Y-82059494D01*
X191514502Y-81949180D01*
X191550812Y-81829482D01*
X191563072Y-81705000D01*
X191976928Y-81705000D01*
X191989188Y-81829482D01*
X192025498Y-81949180D01*
X192084463Y-82059494D01*
X192163815Y-82156185D01*
X192260506Y-82235537D01*
X192370820Y-82294502D01*
X192490518Y-82330812D01*
X192615000Y-82343072D01*
X192754250Y-82340000D01*
X192913000Y-82181250D01*
X192913000Y-81407000D01*
X193167000Y-81407000D01*
X193167000Y-82181250D01*
X193325750Y-82340000D01*
X193465000Y-82343072D01*
X193589482Y-82330812D01*
X193709180Y-82294502D01*
X193819494Y-82235537D01*
X193916185Y-82156185D01*
X193995537Y-82059494D01*
X194054502Y-81949180D01*
X194090812Y-81829482D01*
X194103072Y-81705000D01*
X194100000Y-81565750D01*
X193941250Y-81407000D01*
X193167000Y-81407000D01*
X192913000Y-81407000D01*
X192138750Y-81407000D01*
X191980000Y-81565750D01*
X191976928Y-81705000D01*
X191563072Y-81705000D01*
X191563072Y-80855000D01*
X191976928Y-80855000D01*
X191980000Y-80994250D01*
X192138750Y-81153000D01*
X192913000Y-81153000D01*
X192913000Y-80378750D01*
X193167000Y-80378750D01*
X193167000Y-81153000D01*
X193941250Y-81153000D01*
X194100000Y-80994250D01*
X194103072Y-80855000D01*
X232616928Y-80855000D01*
X232616928Y-81705000D01*
X232629188Y-81829482D01*
X232665498Y-81949180D01*
X232724463Y-82059494D01*
X232803815Y-82156185D01*
X232900506Y-82235537D01*
X233010820Y-82294502D01*
X233130518Y-82330812D01*
X233255000Y-82343072D01*
X234105000Y-82343072D01*
X234229482Y-82330812D01*
X234349180Y-82294502D01*
X234459494Y-82235537D01*
X234556185Y-82156185D01*
X234635537Y-82059494D01*
X234694502Y-81949180D01*
X234730812Y-81829482D01*
X234743072Y-81705000D01*
X235156928Y-81705000D01*
X235169188Y-81829482D01*
X235205498Y-81949180D01*
X235264463Y-82059494D01*
X235343815Y-82156185D01*
X235440506Y-82235537D01*
X235550820Y-82294502D01*
X235670518Y-82330812D01*
X235795000Y-82343072D01*
X235934250Y-82340000D01*
X236093000Y-82181250D01*
X236093000Y-81407000D01*
X236347000Y-81407000D01*
X236347000Y-82181250D01*
X236505750Y-82340000D01*
X236645000Y-82343072D01*
X236769482Y-82330812D01*
X236889180Y-82294502D01*
X236999494Y-82235537D01*
X237096185Y-82156185D01*
X237175537Y-82059494D01*
X237234502Y-81949180D01*
X237270812Y-81829482D01*
X237283072Y-81705000D01*
X237280000Y-81565750D01*
X237121250Y-81407000D01*
X236347000Y-81407000D01*
X236093000Y-81407000D01*
X235318750Y-81407000D01*
X235160000Y-81565750D01*
X235156928Y-81705000D01*
X234743072Y-81705000D01*
X234743072Y-80855000D01*
X235156928Y-80855000D01*
X235160000Y-80994250D01*
X235318750Y-81153000D01*
X236093000Y-81153000D01*
X236093000Y-80378750D01*
X236347000Y-80378750D01*
X236347000Y-81153000D01*
X237121250Y-81153000D01*
X237280000Y-80994250D01*
X237283072Y-80855000D01*
X237270812Y-80730518D01*
X237234502Y-80610820D01*
X237175537Y-80500506D01*
X237096185Y-80403815D01*
X236999494Y-80324463D01*
X236889180Y-80265498D01*
X236769482Y-80229188D01*
X236645000Y-80216928D01*
X236505750Y-80220000D01*
X236347000Y-80378750D01*
X236093000Y-80378750D01*
X235934250Y-80220000D01*
X235795000Y-80216928D01*
X235670518Y-80229188D01*
X235550820Y-80265498D01*
X235440506Y-80324463D01*
X235343815Y-80403815D01*
X235264463Y-80500506D01*
X235205498Y-80610820D01*
X235169188Y-80730518D01*
X235156928Y-80855000D01*
X234743072Y-80855000D01*
X234730812Y-80730518D01*
X234694502Y-80610820D01*
X234635537Y-80500506D01*
X234556185Y-80403815D01*
X234459494Y-80324463D01*
X234349180Y-80265498D01*
X234229482Y-80229188D01*
X234105000Y-80216928D01*
X233255000Y-80216928D01*
X233130518Y-80229188D01*
X233010820Y-80265498D01*
X232900506Y-80324463D01*
X232803815Y-80403815D01*
X232724463Y-80500506D01*
X232665498Y-80610820D01*
X232629188Y-80730518D01*
X232616928Y-80855000D01*
X194103072Y-80855000D01*
X194090812Y-80730518D01*
X194054502Y-80610820D01*
X193995537Y-80500506D01*
X193916185Y-80403815D01*
X193819494Y-80324463D01*
X193709180Y-80265498D01*
X193589482Y-80229188D01*
X193465000Y-80216928D01*
X193325750Y-80220000D01*
X193167000Y-80378750D01*
X192913000Y-80378750D01*
X192754250Y-80220000D01*
X192615000Y-80216928D01*
X192490518Y-80229188D01*
X192370820Y-80265498D01*
X192260506Y-80324463D01*
X192163815Y-80403815D01*
X192084463Y-80500506D01*
X192025498Y-80610820D01*
X191989188Y-80730518D01*
X191976928Y-80855000D01*
X191563072Y-80855000D01*
X191550812Y-80730518D01*
X191514502Y-80610820D01*
X191455537Y-80500506D01*
X191376185Y-80403815D01*
X191279494Y-80324463D01*
X191169180Y-80265498D01*
X191049482Y-80229188D01*
X190925000Y-80216928D01*
X190075000Y-80216928D01*
X189950518Y-80229188D01*
X189830820Y-80265498D01*
X189720506Y-80324463D01*
X189623815Y-80403815D01*
X189544463Y-80500506D01*
X189485498Y-80610820D01*
X189449188Y-80730518D01*
X189436928Y-80855000D01*
X50927000Y-80855000D01*
X50927000Y-76327000D01*
X239903000Y-76327000D01*
X239903000Y-135763000D01*
%TA.AperFunction,Conductor*%
D24*
G36*
X239903000Y-135763000D02*
G01*
X50927000Y-135763000D01*
X50927000Y-127921269D01*
X137688336Y-127921269D01*
X137747797Y-128155037D01*
X137986242Y-128265934D01*
X138241740Y-128328183D01*
X138504473Y-128339390D01*
X138764344Y-128299125D01*
X139011366Y-128208935D01*
X139112203Y-128155037D01*
X139171664Y-127921269D01*
X138430000Y-127179605D01*
X137688336Y-127921269D01*
X50927000Y-127921269D01*
X50927000Y-127074473D01*
X137090610Y-127074473D01*
X137130875Y-127334344D01*
X137221065Y-127581366D01*
X137274963Y-127682203D01*
X137508731Y-127741664D01*
X138250395Y-127000000D01*
X138609605Y-127000000D01*
X139351269Y-127741664D01*
X139585037Y-127682203D01*
X139695934Y-127443758D01*
X139758183Y-127188260D01*
X139769390Y-126925527D01*
X139729125Y-126665656D01*
X139638935Y-126418634D01*
X139585037Y-126317797D01*
X139351269Y-126258336D01*
X138609605Y-127000000D01*
X138250395Y-127000000D01*
X137508731Y-126258336D01*
X137274963Y-126317797D01*
X137164066Y-126556242D01*
X137101817Y-126811740D01*
X137090610Y-127074473D01*
X50927000Y-127074473D01*
X50927000Y-126078731D01*
X137688336Y-126078731D01*
X138430000Y-126820395D01*
X139171664Y-126078731D01*
X139112203Y-125844963D01*
X138873758Y-125734066D01*
X138618260Y-125671817D01*
X138355527Y-125660610D01*
X138095656Y-125700875D01*
X137848634Y-125791065D01*
X137747797Y-125844963D01*
X137688336Y-126078731D01*
X50927000Y-126078731D01*
X50927000Y-125425565D01*
X156694040Y-125425565D01*
X156761020Y-125665656D01*
X157010048Y-125782756D01*
X157277135Y-125849023D01*
X157552017Y-125861910D01*
X157824133Y-125820922D01*
X158083023Y-125727636D01*
X158198980Y-125665656D01*
X158265960Y-125425565D01*
X157480000Y-124639605D01*
X156694040Y-125425565D01*
X50927000Y-125425565D01*
X50927000Y-124532017D01*
X156078090Y-124532017D01*
X156119078Y-124804133D01*
X156212364Y-125063023D01*
X156274344Y-125178980D01*
X156514435Y-125245960D01*
X157300395Y-124460000D01*
X157659605Y-124460000D01*
X158445565Y-125245960D01*
X158685656Y-125178980D01*
X158802756Y-124929952D01*
X158869023Y-124662865D01*
X158881910Y-124387983D01*
X158840922Y-124115867D01*
X158747636Y-123856977D01*
X158685656Y-123741020D01*
X158445565Y-123674040D01*
X157659605Y-124460000D01*
X157300395Y-124460000D01*
X156514435Y-123674040D01*
X156274344Y-123741020D01*
X156157244Y-123990048D01*
X156090977Y-124257135D01*
X156078090Y-124532017D01*
X50927000Y-124532017D01*
X50927000Y-122802409D01*
X101563001Y-122802409D01*
X101563001Y-123077593D01*
X101616687Y-123347491D01*
X101721996Y-123601728D01*
X101874881Y-123830536D01*
X102069466Y-124025121D01*
X102298274Y-124178006D01*
X102552511Y-124283315D01*
X102822409Y-124337001D01*
X103097593Y-124337001D01*
X103367491Y-124283315D01*
X103621728Y-124178006D01*
X103850536Y-124025121D01*
X104045121Y-123830536D01*
X104198006Y-123601728D01*
X104303315Y-123347491D01*
X104357001Y-123077593D01*
X104357001Y-122802409D01*
X126963001Y-122802409D01*
X126963001Y-123077593D01*
X127016687Y-123347491D01*
X127121996Y-123601728D01*
X127274881Y-123830536D01*
X127469466Y-124025121D01*
X127698274Y-124178006D01*
X127952511Y-124283315D01*
X128222409Y-124337001D01*
X128497593Y-124337001D01*
X128767491Y-124283315D01*
X129021728Y-124178006D01*
X129250536Y-124025121D01*
X129445121Y-123830536D01*
X129598006Y-123601728D01*
X129703315Y-123347491D01*
X129757001Y-123077593D01*
X129757001Y-122802409D01*
X129703315Y-122532511D01*
X129598006Y-122278274D01*
X129445121Y-122049466D01*
X129250536Y-121854881D01*
X129021728Y-121701996D01*
X128950058Y-121672309D01*
X128963024Y-121667637D01*
X129078981Y-121605657D01*
X129145961Y-121365566D01*
X128360001Y-120579606D01*
X127574041Y-121365566D01*
X127641021Y-121605657D01*
X127776761Y-121669486D01*
X127698274Y-121701996D01*
X127469466Y-121854881D01*
X127274881Y-122049466D01*
X127121996Y-122278274D01*
X127016687Y-122532511D01*
X126963001Y-122802409D01*
X104357001Y-122802409D01*
X104303315Y-122532511D01*
X104198006Y-122278274D01*
X104045121Y-122049466D01*
X103850536Y-121854881D01*
X103621728Y-121701996D01*
X103550058Y-121672309D01*
X103563024Y-121667637D01*
X103678981Y-121605657D01*
X103745961Y-121365566D01*
X102960001Y-120579606D01*
X102174041Y-121365566D01*
X102241021Y-121605657D01*
X102376761Y-121669486D01*
X102298274Y-121701996D01*
X102069466Y-121854881D01*
X101874881Y-122049466D01*
X101721996Y-122278274D01*
X101616687Y-122532511D01*
X101563001Y-122802409D01*
X50927000Y-122802409D01*
X50927000Y-120472018D01*
X101558091Y-120472018D01*
X101599079Y-120744134D01*
X101692365Y-121003024D01*
X101754345Y-121118981D01*
X101994436Y-121185961D01*
X102780396Y-120400001D01*
X103139606Y-120400001D01*
X103925566Y-121185961D01*
X104165657Y-121118981D01*
X104282757Y-120869953D01*
X104349024Y-120602866D01*
X104355158Y-120472018D01*
X126958091Y-120472018D01*
X126999079Y-120744134D01*
X127092365Y-121003024D01*
X127154345Y-121118981D01*
X127394436Y-121185961D01*
X128180396Y-120400001D01*
X128539606Y-120400001D01*
X129325566Y-121185961D01*
X129565657Y-121118981D01*
X129682757Y-120869953D01*
X129749024Y-120602866D01*
X129761911Y-120327984D01*
X129720923Y-120055868D01*
X129627637Y-119796978D01*
X129565657Y-119681021D01*
X129325566Y-119614041D01*
X128539606Y-120400001D01*
X128180396Y-120400001D01*
X127394436Y-119614041D01*
X127154345Y-119681021D01*
X127037245Y-119930049D01*
X126970978Y-120197136D01*
X126958091Y-120472018D01*
X104355158Y-120472018D01*
X104361911Y-120327984D01*
X104320923Y-120055868D01*
X104227637Y-119796978D01*
X104165657Y-119681021D01*
X103925566Y-119614041D01*
X103139606Y-120400001D01*
X102780396Y-120400001D01*
X101994436Y-119614041D01*
X101754345Y-119681021D01*
X101637245Y-119930049D01*
X101570978Y-120197136D01*
X101558091Y-120472018D01*
X50927000Y-120472018D01*
X50927000Y-113830000D01*
X72221928Y-113830000D01*
X72234188Y-113954482D01*
X72270498Y-114074180D01*
X72329463Y-114184494D01*
X72408815Y-114281185D01*
X72505506Y-114360537D01*
X72615820Y-114419502D01*
X72735518Y-114455812D01*
X72860000Y-114468072D01*
X73374250Y-114465000D01*
X73533000Y-114306250D01*
X73533000Y-113157000D01*
X73787000Y-113157000D01*
X73787000Y-114306250D01*
X73945750Y-114465000D01*
X74460000Y-114468072D01*
X74584482Y-114455812D01*
X74704180Y-114419502D01*
X74814494Y-114360537D01*
X74911185Y-114281185D01*
X74990537Y-114184494D01*
X75049502Y-114074180D01*
X75085812Y-113954482D01*
X75098072Y-113830000D01*
X75095000Y-113315750D01*
X74949685Y-113170435D01*
X82229871Y-113170435D01*
X82334644Y-113473344D01*
X82496499Y-113749992D01*
X82709215Y-113989748D01*
X82964618Y-114183399D01*
X83252893Y-114323502D01*
X83439566Y-114380124D01*
X83693000Y-114260777D01*
X83693000Y-112917000D01*
X83947000Y-112917000D01*
X83947000Y-114260777D01*
X84200434Y-114380124D01*
X84387107Y-114323502D01*
X84675382Y-114183399D01*
X84930785Y-113989748D01*
X85143501Y-113749992D01*
X85305356Y-113473344D01*
X85410129Y-113170435D01*
X85291315Y-112917000D01*
X83947000Y-112917000D01*
X83693000Y-112917000D01*
X82348685Y-112917000D01*
X82229871Y-113170435D01*
X74949685Y-113170435D01*
X74936250Y-113157000D01*
X73787000Y-113157000D01*
X73533000Y-113157000D01*
X72383750Y-113157000D01*
X72225000Y-113315750D01*
X72221928Y-113830000D01*
X50927000Y-113830000D01*
X50927000Y-112230000D01*
X72221928Y-112230000D01*
X72225000Y-112744250D01*
X72383750Y-112903000D01*
X73533000Y-112903000D01*
X73533000Y-111753750D01*
X73787000Y-111753750D01*
X73787000Y-112903000D01*
X74936250Y-112903000D01*
X75095000Y-112744250D01*
X75096999Y-112409565D01*
X82229871Y-112409565D01*
X82348685Y-112663000D01*
X83693000Y-112663000D01*
X83693000Y-111319223D01*
X83947000Y-111319223D01*
X83947000Y-112663000D01*
X85291315Y-112663000D01*
X85410129Y-112409565D01*
X85305356Y-112106656D01*
X85143501Y-111830008D01*
X84930785Y-111590252D01*
X84675382Y-111396601D01*
X84387107Y-111256498D01*
X84200434Y-111199876D01*
X83947000Y-111319223D01*
X83693000Y-111319223D01*
X83439566Y-111199876D01*
X83252893Y-111256498D01*
X82964618Y-111396601D01*
X82709215Y-111590252D01*
X82496499Y-111830008D01*
X82334644Y-112106656D01*
X82229871Y-112409565D01*
X75096999Y-112409565D01*
X75098072Y-112230000D01*
X75085812Y-112105518D01*
X75049502Y-111985820D01*
X74990537Y-111875506D01*
X74911185Y-111778815D01*
X74814494Y-111699463D01*
X74704180Y-111640498D01*
X74584482Y-111604188D01*
X74460000Y-111591928D01*
X73945750Y-111595000D01*
X73787000Y-111753750D01*
X73533000Y-111753750D01*
X73374250Y-111595000D01*
X72860000Y-111591928D01*
X72735518Y-111604188D01*
X72615820Y-111640498D01*
X72505506Y-111699463D01*
X72408815Y-111778815D01*
X72329463Y-111875506D01*
X72270498Y-111985820D01*
X72234188Y-112105518D01*
X72221928Y-112230000D01*
X50927000Y-112230000D01*
X50927000Y-111252000D01*
X62099928Y-111252000D01*
X62112188Y-111376482D01*
X62148498Y-111496180D01*
X62207463Y-111606494D01*
X62286815Y-111703185D01*
X62383506Y-111782537D01*
X62493820Y-111841502D01*
X62613518Y-111877812D01*
X62738000Y-111890072D01*
X63214250Y-111887000D01*
X63373000Y-111728250D01*
X63373000Y-110617000D01*
X63627000Y-110617000D01*
X63627000Y-111728250D01*
X63785750Y-111887000D01*
X64262000Y-111890072D01*
X64386482Y-111877812D01*
X64506180Y-111841502D01*
X64616494Y-111782537D01*
X64713185Y-111703185D01*
X64792537Y-111606494D01*
X64851502Y-111496180D01*
X64887812Y-111376482D01*
X64900072Y-111252000D01*
X64897000Y-110775750D01*
X64738250Y-110617000D01*
X63627000Y-110617000D01*
X63373000Y-110617000D01*
X62261750Y-110617000D01*
X62103000Y-110775750D01*
X62099928Y-111252000D01*
X50927000Y-111252000D01*
X50927000Y-109728000D01*
X62099928Y-109728000D01*
X62103000Y-110204250D01*
X62261750Y-110363000D01*
X63373000Y-110363000D01*
X63373000Y-110343000D01*
X63627000Y-110343000D01*
X63627000Y-110363000D01*
X64738250Y-110363000D01*
X64897000Y-110204250D01*
X64900072Y-109728000D01*
X64887812Y-109603518D01*
X64851502Y-109483820D01*
X64792537Y-109373506D01*
X64713185Y-109276815D01*
X64616494Y-109197463D01*
X64506180Y-109138498D01*
X64386482Y-109102188D01*
X64302535Y-109093920D01*
X64390535Y-109035120D01*
X64585120Y-108840535D01*
X64738005Y-108611727D01*
X64843314Y-108357490D01*
X64897000Y-108087592D01*
X64897000Y-107812408D01*
X64843314Y-107542510D01*
X64738005Y-107288273D01*
X64585120Y-107059465D01*
X64390535Y-106864880D01*
X64161727Y-106711995D01*
X64084485Y-106680000D01*
X64161727Y-106648005D01*
X64390535Y-106495120D01*
X64585120Y-106300535D01*
X64672341Y-106170000D01*
X71292225Y-106170000D01*
X71353038Y-106261013D01*
X71538987Y-106446962D01*
X71757641Y-106593061D01*
X72000595Y-106693696D01*
X72258514Y-106745000D01*
X72521486Y-106745000D01*
X72655002Y-106718442D01*
X72655002Y-107005602D01*
X72545363Y-107115241D01*
X72388320Y-107350273D01*
X72280147Y-107611426D01*
X72225000Y-107888665D01*
X72225000Y-108171335D01*
X72280147Y-108448574D01*
X72388320Y-108709727D01*
X72545363Y-108944759D01*
X72745241Y-109144637D01*
X72980273Y-109301680D01*
X73241426Y-109409853D01*
X73518665Y-109465000D01*
X73801335Y-109465000D01*
X74078574Y-109409853D01*
X74339727Y-109301680D01*
X74574759Y-109144637D01*
X74774637Y-108944759D01*
X74931680Y-108709727D01*
X75039853Y-108448574D01*
X75095000Y-108171335D01*
X75095000Y-107888665D01*
X75039853Y-107611426D01*
X74931680Y-107350273D01*
X74774637Y-107115241D01*
X74574759Y-106915363D01*
X74339727Y-106758320D01*
X74175001Y-106690088D01*
X74175001Y-96790000D01*
X82181928Y-96790000D01*
X82181928Y-98790000D01*
X82194188Y-98914482D01*
X82230498Y-99034180D01*
X82289463Y-99144494D01*
X82368815Y-99241185D01*
X82465506Y-99320537D01*
X82575820Y-99379502D01*
X82695518Y-99415812D01*
X82820000Y-99428072D01*
X84820000Y-99428072D01*
X84944482Y-99415812D01*
X85064180Y-99379502D01*
X85174494Y-99320537D01*
X85271185Y-99241185D01*
X85350537Y-99144494D01*
X85409502Y-99034180D01*
X85445812Y-98914482D01*
X85458072Y-98790000D01*
X85458072Y-96790000D01*
X85445812Y-96665518D01*
X85409502Y-96545820D01*
X85350537Y-96435506D01*
X85271185Y-96338815D01*
X85174494Y-96259463D01*
X85064180Y-96200498D01*
X84944482Y-96164188D01*
X84820000Y-96151928D01*
X82820000Y-96151928D01*
X82695518Y-96164188D01*
X82575820Y-96200498D01*
X82465506Y-96259463D01*
X82368815Y-96338815D01*
X82289463Y-96435506D01*
X82230498Y-96545820D01*
X82194188Y-96665518D01*
X82181928Y-96790000D01*
X74175001Y-96790000D01*
X74175001Y-86159823D01*
X83545000Y-86159823D01*
X83568513Y-86398555D01*
X83661432Y-86704868D01*
X83812325Y-86987169D01*
X84015392Y-87234608D01*
X84262830Y-87437675D01*
X84545131Y-87588568D01*
X84851444Y-87681487D01*
X85170000Y-87712862D01*
X85488555Y-87681487D01*
X85794868Y-87588568D01*
X86077169Y-87437675D01*
X86324608Y-87234608D01*
X86459698Y-87070000D01*
X88541928Y-87070000D01*
X88554188Y-87194482D01*
X88590498Y-87314180D01*
X88649463Y-87424494D01*
X88728815Y-87521185D01*
X88825506Y-87600537D01*
X88935820Y-87659502D01*
X89055518Y-87695812D01*
X89180000Y-87708072D01*
X89884250Y-87705000D01*
X90043000Y-87546250D01*
X90043000Y-85217000D01*
X90297000Y-85217000D01*
X90297000Y-87546250D01*
X90455750Y-87705000D01*
X91160000Y-87708072D01*
X91284482Y-87695812D01*
X91404180Y-87659502D01*
X91514494Y-87600537D01*
X91611185Y-87521185D01*
X91690537Y-87424494D01*
X91749502Y-87314180D01*
X91785812Y-87194482D01*
X91798072Y-87070000D01*
X91797253Y-86618001D01*
X101559929Y-86618001D01*
X101559929Y-88142001D01*
X101572189Y-88266483D01*
X101608499Y-88386181D01*
X101667464Y-88496495D01*
X101746816Y-88593186D01*
X101843507Y-88672538D01*
X101953821Y-88731503D01*
X102073519Y-88767813D01*
X102157466Y-88776081D01*
X102069466Y-88834881D01*
X101874881Y-89029466D01*
X101721996Y-89258274D01*
X101616687Y-89512511D01*
X101563001Y-89782409D01*
X101563001Y-90057593D01*
X101616687Y-90327491D01*
X101721996Y-90581728D01*
X101874881Y-90810536D01*
X102069466Y-91005121D01*
X102298274Y-91158006D01*
X102375516Y-91190001D01*
X102298274Y-91221996D01*
X102069466Y-91374881D01*
X101874881Y-91569466D01*
X101721996Y-91798274D01*
X101616687Y-92052511D01*
X101563001Y-92322409D01*
X101563001Y-92597593D01*
X101616687Y-92867491D01*
X101721996Y-93121728D01*
X101874881Y-93350536D01*
X102069466Y-93545121D01*
X102298274Y-93698006D01*
X102375516Y-93730001D01*
X102298274Y-93761996D01*
X102069466Y-93914881D01*
X101874881Y-94109466D01*
X101721996Y-94338274D01*
X101616687Y-94592511D01*
X101563001Y-94862409D01*
X101563001Y-95137593D01*
X101616687Y-95407491D01*
X101721996Y-95661728D01*
X101874881Y-95890536D01*
X102069466Y-96085121D01*
X102298274Y-96238006D01*
X102375516Y-96270001D01*
X102298274Y-96301996D01*
X102069466Y-96454881D01*
X101874881Y-96649466D01*
X101721996Y-96878274D01*
X101616687Y-97132511D01*
X101563001Y-97402409D01*
X101563001Y-97677593D01*
X101616687Y-97947491D01*
X101721996Y-98201728D01*
X101874881Y-98430536D01*
X102069466Y-98625121D01*
X102298274Y-98778006D01*
X102375516Y-98810001D01*
X102298274Y-98841996D01*
X102069466Y-98994881D01*
X101874881Y-99189466D01*
X101721996Y-99418274D01*
X101616687Y-99672511D01*
X101563001Y-99942409D01*
X101563001Y-100217593D01*
X101616687Y-100487491D01*
X101721996Y-100741728D01*
X101874881Y-100970536D01*
X102069466Y-101165121D01*
X102298274Y-101318006D01*
X102375516Y-101350001D01*
X102298274Y-101381996D01*
X102069466Y-101534881D01*
X101874881Y-101729466D01*
X101721996Y-101958274D01*
X101616687Y-102212511D01*
X101563001Y-102482409D01*
X101563001Y-102757593D01*
X101616687Y-103027491D01*
X101721996Y-103281728D01*
X101874881Y-103510536D01*
X102069466Y-103705121D01*
X102298274Y-103858006D01*
X102375516Y-103890001D01*
X102298274Y-103921996D01*
X102069466Y-104074881D01*
X101874881Y-104269466D01*
X101721996Y-104498274D01*
X101616687Y-104752511D01*
X101563001Y-105022409D01*
X101563001Y-105297593D01*
X101616687Y-105567491D01*
X101721996Y-105821728D01*
X101874881Y-106050536D01*
X102069466Y-106245121D01*
X102298274Y-106398006D01*
X102375516Y-106430001D01*
X102298274Y-106461996D01*
X102069466Y-106614881D01*
X101874881Y-106809466D01*
X101721996Y-107038274D01*
X101616687Y-107292511D01*
X101563001Y-107562409D01*
X101563001Y-107837593D01*
X101616687Y-108107491D01*
X101721996Y-108361728D01*
X101874881Y-108590536D01*
X102069466Y-108785121D01*
X102298274Y-108938006D01*
X102375516Y-108970001D01*
X102298274Y-109001996D01*
X102069466Y-109154881D01*
X101874881Y-109349466D01*
X101721996Y-109578274D01*
X101616687Y-109832511D01*
X101563001Y-110102409D01*
X101563001Y-110377593D01*
X101616687Y-110647491D01*
X101721996Y-110901728D01*
X101874881Y-111130536D01*
X102069466Y-111325121D01*
X102298274Y-111478006D01*
X102375516Y-111510001D01*
X102298274Y-111541996D01*
X102069466Y-111694881D01*
X101874881Y-111889466D01*
X101721996Y-112118274D01*
X101616687Y-112372511D01*
X101563001Y-112642409D01*
X101563001Y-112917593D01*
X101616687Y-113187491D01*
X101721996Y-113441728D01*
X101874881Y-113670536D01*
X102069466Y-113865121D01*
X102298274Y-114018006D01*
X102375516Y-114050001D01*
X102298274Y-114081996D01*
X102069466Y-114234881D01*
X101874881Y-114429466D01*
X101721996Y-114658274D01*
X101616687Y-114912511D01*
X101563001Y-115182409D01*
X101563001Y-115457593D01*
X101616687Y-115727491D01*
X101721996Y-115981728D01*
X101874881Y-116210536D01*
X102069466Y-116405121D01*
X102298274Y-116558006D01*
X102375516Y-116590001D01*
X102298274Y-116621996D01*
X102069466Y-116774881D01*
X101874881Y-116969466D01*
X101721996Y-117198274D01*
X101616687Y-117452511D01*
X101563001Y-117722409D01*
X101563001Y-117997593D01*
X101616687Y-118267491D01*
X101721996Y-118521728D01*
X101874881Y-118750536D01*
X102069466Y-118945121D01*
X102298274Y-119098006D01*
X102369944Y-119127693D01*
X102356978Y-119132365D01*
X102241021Y-119194345D01*
X102174041Y-119434436D01*
X102960001Y-120220396D01*
X103745961Y-119434436D01*
X103678981Y-119194345D01*
X103543241Y-119130516D01*
X103621728Y-119098006D01*
X103850536Y-118945121D01*
X104045121Y-118750536D01*
X104198006Y-118521728D01*
X104303315Y-118267491D01*
X104357001Y-117997593D01*
X104357001Y-117722409D01*
X104303315Y-117452511D01*
X104198006Y-117198274D01*
X104045121Y-116969466D01*
X103850536Y-116774881D01*
X103621728Y-116621996D01*
X103544486Y-116590001D01*
X103621728Y-116558006D01*
X103850536Y-116405121D01*
X104045121Y-116210536D01*
X104198006Y-115981728D01*
X104303315Y-115727491D01*
X104357001Y-115457593D01*
X104357001Y-115182409D01*
X104303315Y-114912511D01*
X104198006Y-114658274D01*
X104045121Y-114429466D01*
X103850536Y-114234881D01*
X103621728Y-114081996D01*
X103544486Y-114050001D01*
X103621728Y-114018006D01*
X103850536Y-113865121D01*
X104045121Y-113670536D01*
X104198006Y-113441728D01*
X104303315Y-113187491D01*
X104357001Y-112917593D01*
X104357001Y-112642409D01*
X104303315Y-112372511D01*
X104198006Y-112118274D01*
X104045121Y-111889466D01*
X103850536Y-111694881D01*
X103621728Y-111541996D01*
X103544486Y-111510001D01*
X103621728Y-111478006D01*
X103850536Y-111325121D01*
X104045121Y-111130536D01*
X104198006Y-110901728D01*
X104303315Y-110647491D01*
X104357001Y-110377593D01*
X104357001Y-110102409D01*
X104303315Y-109832511D01*
X104198006Y-109578274D01*
X104045121Y-109349466D01*
X103850536Y-109154881D01*
X103621728Y-109001996D01*
X103544486Y-108970001D01*
X103621728Y-108938006D01*
X103850536Y-108785121D01*
X104045121Y-108590536D01*
X104198006Y-108361728D01*
X104303315Y-108107491D01*
X104357001Y-107837593D01*
X104357001Y-107562409D01*
X104303315Y-107292511D01*
X104198006Y-107038274D01*
X104045121Y-106809466D01*
X103850536Y-106614881D01*
X103621728Y-106461996D01*
X103544486Y-106430001D01*
X103621728Y-106398006D01*
X103850536Y-106245121D01*
X104045121Y-106050536D01*
X104198006Y-105821728D01*
X104303315Y-105567491D01*
X104357001Y-105297593D01*
X104357001Y-105022409D01*
X104303315Y-104752511D01*
X104198006Y-104498274D01*
X104045121Y-104269466D01*
X103850536Y-104074881D01*
X103621728Y-103921996D01*
X103544486Y-103890001D01*
X103621728Y-103858006D01*
X103850536Y-103705121D01*
X104045121Y-103510536D01*
X104198006Y-103281728D01*
X104303315Y-103027491D01*
X104357001Y-102757593D01*
X104357001Y-102482409D01*
X104303315Y-102212511D01*
X104198006Y-101958274D01*
X104045121Y-101729466D01*
X103850536Y-101534881D01*
X103621728Y-101381996D01*
X103544486Y-101350001D01*
X103621728Y-101318006D01*
X103850536Y-101165121D01*
X104045121Y-100970536D01*
X104198006Y-100741728D01*
X104303315Y-100487491D01*
X104357001Y-100217593D01*
X104357001Y-99942409D01*
X104303315Y-99672511D01*
X104198006Y-99418274D01*
X104045121Y-99189466D01*
X103850536Y-98994881D01*
X103621728Y-98841996D01*
X103544486Y-98810001D01*
X103621728Y-98778006D01*
X103850536Y-98625121D01*
X104045121Y-98430536D01*
X104198006Y-98201728D01*
X104303315Y-97947491D01*
X104357001Y-97677593D01*
X104357001Y-97402409D01*
X104303315Y-97132511D01*
X104198006Y-96878274D01*
X104045121Y-96649466D01*
X103850536Y-96454881D01*
X103621728Y-96301996D01*
X103544486Y-96270001D01*
X103621728Y-96238006D01*
X103850536Y-96085121D01*
X104045121Y-95890536D01*
X104198006Y-95661728D01*
X104303315Y-95407491D01*
X104357001Y-95137593D01*
X104357001Y-94862409D01*
X104303315Y-94592511D01*
X104198006Y-94338274D01*
X104045121Y-94109466D01*
X103850536Y-93914881D01*
X103621728Y-93761996D01*
X103544486Y-93730001D01*
X103621728Y-93698006D01*
X103850536Y-93545121D01*
X104045121Y-93350536D01*
X104198006Y-93121728D01*
X104303315Y-92867491D01*
X104357001Y-92597593D01*
X104357001Y-92322409D01*
X104303315Y-92052511D01*
X104198006Y-91798274D01*
X104045121Y-91569466D01*
X103850536Y-91374881D01*
X103621728Y-91221996D01*
X103544486Y-91190001D01*
X103621728Y-91158006D01*
X103850536Y-91005121D01*
X104045121Y-90810536D01*
X104198006Y-90581728D01*
X104303315Y-90327491D01*
X104357001Y-90057593D01*
X104357001Y-89782409D01*
X104303315Y-89512511D01*
X104198006Y-89258274D01*
X104045121Y-89029466D01*
X103850536Y-88834881D01*
X103762536Y-88776081D01*
X103846483Y-88767813D01*
X103966181Y-88731503D01*
X104076495Y-88672538D01*
X104173186Y-88593186D01*
X104252538Y-88496495D01*
X104311503Y-88386181D01*
X104347813Y-88266483D01*
X104360073Y-88142001D01*
X104360073Y-87242409D01*
X126963001Y-87242409D01*
X126963001Y-87517593D01*
X127016687Y-87787491D01*
X127121996Y-88041728D01*
X127274881Y-88270536D01*
X127469466Y-88465121D01*
X127698274Y-88618006D01*
X127775516Y-88650001D01*
X127698274Y-88681996D01*
X127469466Y-88834881D01*
X127274881Y-89029466D01*
X127121996Y-89258274D01*
X127016687Y-89512511D01*
X126963001Y-89782409D01*
X126963001Y-90057593D01*
X127016687Y-90327491D01*
X127121996Y-90581728D01*
X127274881Y-90810536D01*
X127469466Y-91005121D01*
X127698274Y-91158006D01*
X127775516Y-91190001D01*
X127698274Y-91221996D01*
X127469466Y-91374881D01*
X127274881Y-91569466D01*
X127121996Y-91798274D01*
X127016687Y-92052511D01*
X126963001Y-92322409D01*
X126963001Y-92597593D01*
X127016687Y-92867491D01*
X127121996Y-93121728D01*
X127274881Y-93350536D01*
X127469466Y-93545121D01*
X127698274Y-93698006D01*
X127775516Y-93730001D01*
X127698274Y-93761996D01*
X127469466Y-93914881D01*
X127274881Y-94109466D01*
X127121996Y-94338274D01*
X127016687Y-94592511D01*
X126963001Y-94862409D01*
X126963001Y-95137593D01*
X127016687Y-95407491D01*
X127121996Y-95661728D01*
X127274881Y-95890536D01*
X127469466Y-96085121D01*
X127698274Y-96238006D01*
X127775516Y-96270001D01*
X127698274Y-96301996D01*
X127469466Y-96454881D01*
X127274881Y-96649466D01*
X127121996Y-96878274D01*
X127016687Y-97132511D01*
X126963001Y-97402409D01*
X126963001Y-97677593D01*
X127016687Y-97947491D01*
X127121996Y-98201728D01*
X127274881Y-98430536D01*
X127469466Y-98625121D01*
X127698274Y-98778006D01*
X127775516Y-98810001D01*
X127698274Y-98841996D01*
X127469466Y-98994881D01*
X127274881Y-99189466D01*
X127121996Y-99418274D01*
X127016687Y-99672511D01*
X126963001Y-99942409D01*
X126963001Y-100217593D01*
X127016687Y-100487491D01*
X127121996Y-100741728D01*
X127274881Y-100970536D01*
X127469466Y-101165121D01*
X127698274Y-101318006D01*
X127775516Y-101350001D01*
X127698274Y-101381996D01*
X127469466Y-101534881D01*
X127274881Y-101729466D01*
X127121996Y-101958274D01*
X127016687Y-102212511D01*
X126963001Y-102482409D01*
X126963001Y-102757593D01*
X127016687Y-103027491D01*
X127121996Y-103281728D01*
X127274881Y-103510536D01*
X127469466Y-103705121D01*
X127698274Y-103858006D01*
X127775516Y-103890001D01*
X127698274Y-103921996D01*
X127469466Y-104074881D01*
X127274881Y-104269466D01*
X127121996Y-104498274D01*
X127016687Y-104752511D01*
X126963001Y-105022409D01*
X126963001Y-105297593D01*
X127016687Y-105567491D01*
X127121996Y-105821728D01*
X127274881Y-106050536D01*
X127469466Y-106245121D01*
X127696908Y-106397093D01*
X127670253Y-106446962D01*
X127654455Y-106476517D01*
X127648840Y-106495027D01*
X127469466Y-106614881D01*
X127274881Y-106809466D01*
X127121996Y-107038274D01*
X127016687Y-107292511D01*
X126963001Y-107562409D01*
X126963001Y-107837593D01*
X127016687Y-108107491D01*
X127121996Y-108361728D01*
X127274881Y-108590536D01*
X127469466Y-108785121D01*
X127698274Y-108938006D01*
X127775516Y-108970001D01*
X127698274Y-109001996D01*
X127469466Y-109154881D01*
X127274881Y-109349466D01*
X127121996Y-109578274D01*
X127016687Y-109832511D01*
X126963001Y-110102409D01*
X126963001Y-110377593D01*
X127016687Y-110647491D01*
X127121996Y-110901728D01*
X127274881Y-111130536D01*
X127469466Y-111325121D01*
X127698274Y-111478006D01*
X127775516Y-111510001D01*
X127698274Y-111541996D01*
X127469466Y-111694881D01*
X127274881Y-111889466D01*
X127121996Y-112118274D01*
X127016687Y-112372511D01*
X126963001Y-112642409D01*
X126963001Y-112917593D01*
X127016687Y-113187491D01*
X127121996Y-113441728D01*
X127274881Y-113670536D01*
X127469466Y-113865121D01*
X127698274Y-114018006D01*
X127775516Y-114050001D01*
X127698274Y-114081996D01*
X127469466Y-114234881D01*
X127274881Y-114429466D01*
X127121996Y-114658274D01*
X127016687Y-114912511D01*
X126963001Y-115182409D01*
X126963001Y-115457593D01*
X127016687Y-115727491D01*
X127121996Y-115981728D01*
X127274881Y-116210536D01*
X127469466Y-116405121D01*
X127698274Y-116558006D01*
X127775516Y-116590001D01*
X127698274Y-116621996D01*
X127469466Y-116774881D01*
X127274881Y-116969466D01*
X127121996Y-117198274D01*
X127016687Y-117452511D01*
X126963001Y-117722409D01*
X126963001Y-117997593D01*
X127016687Y-118267491D01*
X127121996Y-118521728D01*
X127274881Y-118750536D01*
X127469466Y-118945121D01*
X127698274Y-119098006D01*
X127769944Y-119127693D01*
X127756978Y-119132365D01*
X127641021Y-119194345D01*
X127574041Y-119434436D01*
X128360001Y-120220396D01*
X129145961Y-119434436D01*
X129094093Y-119248514D01*
X137095000Y-119248514D01*
X137095000Y-119511486D01*
X137146304Y-119769405D01*
X137246939Y-120012359D01*
X137393038Y-120231013D01*
X137578987Y-120416962D01*
X137797641Y-120563061D01*
X138040595Y-120663696D01*
X138298514Y-120715000D01*
X138561486Y-120715000D01*
X138819405Y-120663696D01*
X139062359Y-120563061D01*
X139281013Y-120416962D01*
X139466962Y-120231013D01*
X139613061Y-120012359D01*
X139713696Y-119769405D01*
X139765000Y-119511486D01*
X139765000Y-119248514D01*
X139713696Y-118990595D01*
X139613061Y-118747641D01*
X139466962Y-118528987D01*
X139281013Y-118343038D01*
X139062359Y-118196939D01*
X138819405Y-118096304D01*
X138561486Y-118045000D01*
X138298514Y-118045000D01*
X138040595Y-118096304D01*
X137797641Y-118196939D01*
X137578987Y-118343038D01*
X137393038Y-118528987D01*
X137246939Y-118747641D01*
X137146304Y-118990595D01*
X137095000Y-119248514D01*
X129094093Y-119248514D01*
X129078981Y-119194345D01*
X128943241Y-119130516D01*
X129021728Y-119098006D01*
X129250536Y-118945121D01*
X129445121Y-118750536D01*
X129598006Y-118521728D01*
X129703315Y-118267491D01*
X129757001Y-117997593D01*
X129757001Y-117722409D01*
X129703315Y-117452511D01*
X129598006Y-117198274D01*
X129445121Y-116969466D01*
X129250536Y-116774881D01*
X129021728Y-116621996D01*
X128944486Y-116590001D01*
X129021728Y-116558006D01*
X129250536Y-116405121D01*
X129445121Y-116210536D01*
X129598006Y-115981728D01*
X129703315Y-115727491D01*
X129757001Y-115457593D01*
X129757001Y-115438514D01*
X137095000Y-115438514D01*
X137095000Y-115701486D01*
X137146304Y-115959405D01*
X137246939Y-116202359D01*
X137393038Y-116421013D01*
X137578987Y-116606962D01*
X137797641Y-116753061D01*
X138040595Y-116853696D01*
X138298514Y-116905000D01*
X138561486Y-116905000D01*
X138819405Y-116853696D01*
X139062359Y-116753061D01*
X139281013Y-116606962D01*
X139466962Y-116421013D01*
X139613061Y-116202359D01*
X139664572Y-116078000D01*
X156079928Y-116078000D01*
X156079928Y-117602000D01*
X156092188Y-117726482D01*
X156128498Y-117846180D01*
X156187463Y-117956494D01*
X156266815Y-118053185D01*
X156363506Y-118132537D01*
X156473820Y-118191502D01*
X156593518Y-118227812D01*
X156677465Y-118236080D01*
X156589465Y-118294880D01*
X156394880Y-118489465D01*
X156241995Y-118718273D01*
X156136686Y-118972510D01*
X156083000Y-119242408D01*
X156083000Y-119517592D01*
X156136686Y-119787490D01*
X156241995Y-120041727D01*
X156394880Y-120270535D01*
X156589465Y-120465120D01*
X156818273Y-120618005D01*
X156895515Y-120650000D01*
X156818273Y-120681995D01*
X156589465Y-120834880D01*
X156394880Y-121029465D01*
X156241995Y-121258273D01*
X156136686Y-121512510D01*
X156083000Y-121782408D01*
X156083000Y-122057592D01*
X156136686Y-122327490D01*
X156241995Y-122581727D01*
X156394880Y-122810535D01*
X156589465Y-123005120D01*
X156818273Y-123158005D01*
X156889943Y-123187692D01*
X156876977Y-123192364D01*
X156761020Y-123254344D01*
X156694040Y-123494435D01*
X157480000Y-124280395D01*
X158265960Y-123494435D01*
X158198980Y-123254344D01*
X158063240Y-123190515D01*
X158141727Y-123158005D01*
X158370535Y-123005120D01*
X158565120Y-122810535D01*
X158718005Y-122581727D01*
X158823314Y-122327490D01*
X158877000Y-122057592D01*
X158877000Y-121782408D01*
X158823314Y-121512510D01*
X158718005Y-121258273D01*
X158565120Y-121029465D01*
X158370535Y-120834880D01*
X158141727Y-120681995D01*
X158064485Y-120650000D01*
X158141727Y-120618005D01*
X158370535Y-120465120D01*
X158565120Y-120270535D01*
X158718005Y-120041727D01*
X158823314Y-119787490D01*
X158877000Y-119517592D01*
X158877000Y-119242408D01*
X158823314Y-118972510D01*
X158718005Y-118718273D01*
X158565120Y-118489465D01*
X158370535Y-118294880D01*
X158282535Y-118236080D01*
X158366482Y-118227812D01*
X158486180Y-118191502D01*
X158596494Y-118132537D01*
X158693185Y-118053185D01*
X158772537Y-117956494D01*
X158831502Y-117846180D01*
X158867812Y-117726482D01*
X158880072Y-117602000D01*
X158880072Y-116702408D01*
X163703000Y-116702408D01*
X163703000Y-116977592D01*
X163756686Y-117247490D01*
X163861995Y-117501727D01*
X164014880Y-117730535D01*
X164209465Y-117925120D01*
X164438273Y-118078005D01*
X164515515Y-118110000D01*
X164438273Y-118141995D01*
X164209465Y-118294880D01*
X164014880Y-118489465D01*
X163861995Y-118718273D01*
X163756686Y-118972510D01*
X163703000Y-119242408D01*
X163703000Y-119517592D01*
X163756686Y-119787490D01*
X163861995Y-120041727D01*
X164014880Y-120270535D01*
X164209465Y-120465120D01*
X164438273Y-120618005D01*
X164515515Y-120650000D01*
X164438273Y-120681995D01*
X164209465Y-120834880D01*
X164014880Y-121029465D01*
X163861995Y-121258273D01*
X163756686Y-121512510D01*
X163703000Y-121782408D01*
X163703000Y-122057592D01*
X163756686Y-122327490D01*
X163861995Y-122581727D01*
X164014880Y-122810535D01*
X164209465Y-123005120D01*
X164438273Y-123158005D01*
X164515515Y-123190000D01*
X164438273Y-123221995D01*
X164209465Y-123374880D01*
X164014880Y-123569465D01*
X163861995Y-123798273D01*
X163756686Y-124052510D01*
X163703000Y-124322408D01*
X163703000Y-124597592D01*
X163756686Y-124867490D01*
X163861995Y-125121727D01*
X164014880Y-125350535D01*
X164209465Y-125545120D01*
X164438273Y-125698005D01*
X164692510Y-125803314D01*
X164962408Y-125857000D01*
X165237592Y-125857000D01*
X165507490Y-125803314D01*
X165761727Y-125698005D01*
X165990535Y-125545120D01*
X166185120Y-125350535D01*
X166338005Y-125121727D01*
X166443314Y-124867490D01*
X166497000Y-124597592D01*
X166497000Y-124322408D01*
X166443314Y-124052510D01*
X166338005Y-123798273D01*
X166185120Y-123569465D01*
X165990535Y-123374880D01*
X165761727Y-123221995D01*
X165684485Y-123190000D01*
X165761727Y-123158005D01*
X165990535Y-123005120D01*
X166185120Y-122810535D01*
X166338005Y-122581727D01*
X166443314Y-122327490D01*
X166497000Y-122057592D01*
X166497000Y-121782408D01*
X166443314Y-121512510D01*
X166407066Y-121425000D01*
X175276928Y-121425000D01*
X175276928Y-122275000D01*
X175289188Y-122399482D01*
X175325498Y-122519180D01*
X175384463Y-122629494D01*
X175463815Y-122726185D01*
X175560506Y-122805537D01*
X175670820Y-122864502D01*
X175790518Y-122900812D01*
X175915000Y-122913072D01*
X176765000Y-122913072D01*
X176889482Y-122900812D01*
X177009180Y-122864502D01*
X177119494Y-122805537D01*
X177216185Y-122726185D01*
X177295537Y-122629494D01*
X177354502Y-122519180D01*
X177390812Y-122399482D01*
X177403072Y-122275000D01*
X177816928Y-122275000D01*
X177829188Y-122399482D01*
X177865498Y-122519180D01*
X177924463Y-122629494D01*
X178003815Y-122726185D01*
X178100506Y-122805537D01*
X178210820Y-122864502D01*
X178330518Y-122900812D01*
X178455000Y-122913072D01*
X178594250Y-122910000D01*
X178753000Y-122751250D01*
X178753000Y-121977000D01*
X179007000Y-121977000D01*
X179007000Y-122751250D01*
X179165750Y-122910000D01*
X179305000Y-122913072D01*
X179429482Y-122900812D01*
X179549180Y-122864502D01*
X179659494Y-122805537D01*
X179756185Y-122726185D01*
X179835537Y-122629494D01*
X179894502Y-122519180D01*
X179930812Y-122399482D01*
X179943072Y-122275000D01*
X179940000Y-122135750D01*
X179781250Y-121977000D01*
X179007000Y-121977000D01*
X178753000Y-121977000D01*
X177978750Y-121977000D01*
X177820000Y-122135750D01*
X177816928Y-122275000D01*
X177403072Y-122275000D01*
X177403072Y-121425000D01*
X177816928Y-121425000D01*
X177820000Y-121564250D01*
X177978750Y-121723000D01*
X178753000Y-121723000D01*
X178753000Y-120948750D01*
X179007000Y-120948750D01*
X179007000Y-121723000D01*
X179781250Y-121723000D01*
X179940000Y-121564250D01*
X179943072Y-121425000D01*
X180356928Y-121425000D01*
X180356928Y-122275000D01*
X180369188Y-122399482D01*
X180405498Y-122519180D01*
X180464463Y-122629494D01*
X180543815Y-122726185D01*
X180640506Y-122805537D01*
X180750820Y-122864502D01*
X180870518Y-122900812D01*
X180995000Y-122913072D01*
X181845000Y-122913072D01*
X181969482Y-122900812D01*
X182089180Y-122864502D01*
X182199494Y-122805537D01*
X182296185Y-122726185D01*
X182375537Y-122629494D01*
X182434502Y-122519180D01*
X182470812Y-122399482D01*
X182483072Y-122275000D01*
X182483072Y-121425000D01*
X182470812Y-121300518D01*
X182434502Y-121180820D01*
X182375537Y-121070506D01*
X182296185Y-120973815D01*
X182199494Y-120894463D01*
X182089180Y-120835498D01*
X181969482Y-120799188D01*
X181845000Y-120786928D01*
X180995000Y-120786928D01*
X180870518Y-120799188D01*
X180750820Y-120835498D01*
X180640506Y-120894463D01*
X180543815Y-120973815D01*
X180464463Y-121070506D01*
X180405498Y-121180820D01*
X180369188Y-121300518D01*
X180356928Y-121425000D01*
X179943072Y-121425000D01*
X179930812Y-121300518D01*
X179894502Y-121180820D01*
X179835537Y-121070506D01*
X179756185Y-120973815D01*
X179659494Y-120894463D01*
X179549180Y-120835498D01*
X179429482Y-120799188D01*
X179305000Y-120786928D01*
X179165750Y-120790000D01*
X179007000Y-120948750D01*
X178753000Y-120948750D01*
X178594250Y-120790000D01*
X178455000Y-120786928D01*
X178330518Y-120799188D01*
X178210820Y-120835498D01*
X178100506Y-120894463D01*
X178003815Y-120973815D01*
X177924463Y-121070506D01*
X177865498Y-121180820D01*
X177829188Y-121300518D01*
X177816928Y-121425000D01*
X177403072Y-121425000D01*
X177390812Y-121300518D01*
X177354502Y-121180820D01*
X177295537Y-121070506D01*
X177216185Y-120973815D01*
X177119494Y-120894463D01*
X177009180Y-120835498D01*
X176889482Y-120799188D01*
X176765000Y-120786928D01*
X175915000Y-120786928D01*
X175790518Y-120799188D01*
X175670820Y-120835498D01*
X175560506Y-120894463D01*
X175463815Y-120973815D01*
X175384463Y-121070506D01*
X175325498Y-121180820D01*
X175289188Y-121300518D01*
X175276928Y-121425000D01*
X166407066Y-121425000D01*
X166338005Y-121258273D01*
X166185120Y-121029465D01*
X165990535Y-120834880D01*
X165761727Y-120681995D01*
X165684485Y-120650000D01*
X165761727Y-120618005D01*
X165990535Y-120465120D01*
X166185120Y-120270535D01*
X166338005Y-120041727D01*
X166443314Y-119787490D01*
X166497000Y-119517592D01*
X166497000Y-119242408D01*
X166443314Y-118972510D01*
X166338005Y-118718273D01*
X166185120Y-118489465D01*
X165990535Y-118294880D01*
X165761727Y-118141995D01*
X165684485Y-118110000D01*
X165761727Y-118078005D01*
X165990535Y-117925120D01*
X166185120Y-117730535D01*
X166338005Y-117501727D01*
X166443314Y-117247490D01*
X166497000Y-116977592D01*
X166497000Y-116702408D01*
X166443314Y-116432510D01*
X166338005Y-116178273D01*
X166185120Y-115949465D01*
X165990535Y-115754880D01*
X165761727Y-115601995D01*
X165507490Y-115496686D01*
X165237592Y-115443000D01*
X164962408Y-115443000D01*
X164692510Y-115496686D01*
X164438273Y-115601995D01*
X164209465Y-115754880D01*
X164014880Y-115949465D01*
X163861995Y-116178273D01*
X163756686Y-116432510D01*
X163703000Y-116702408D01*
X158880072Y-116702408D01*
X158880072Y-116078000D01*
X158867812Y-115953518D01*
X158831502Y-115833820D01*
X158772537Y-115723506D01*
X158693185Y-115626815D01*
X158596494Y-115547463D01*
X158486180Y-115488498D01*
X158366482Y-115452188D01*
X158242000Y-115439928D01*
X158240000Y-115439928D01*
X158240000Y-110388061D01*
X175495000Y-110388061D01*
X175495000Y-110591939D01*
X175534774Y-110791898D01*
X175612795Y-110980256D01*
X175726063Y-111149774D01*
X175870226Y-111293937D01*
X176039744Y-111407205D01*
X176228102Y-111485226D01*
X176428061Y-111525000D01*
X176631939Y-111525000D01*
X176831898Y-111485226D01*
X177020256Y-111407205D01*
X177189774Y-111293937D01*
X177233711Y-111250000D01*
X178755199Y-111250000D01*
X179305000Y-111799802D01*
X179305000Y-111861939D01*
X179344774Y-112061898D01*
X179422795Y-112250256D01*
X179536063Y-112419774D01*
X179680226Y-112563937D01*
X179849744Y-112677205D01*
X180038102Y-112755226D01*
X180238061Y-112795000D01*
X180441939Y-112795000D01*
X180641898Y-112755226D01*
X180830256Y-112677205D01*
X180999774Y-112563937D01*
X181143937Y-112419774D01*
X181257205Y-112250256D01*
X181335226Y-112061898D01*
X181375000Y-111861939D01*
X181375000Y-111658061D01*
X181335226Y-111458102D01*
X181257205Y-111269744D01*
X181143937Y-111100226D01*
X180999774Y-110956063D01*
X180830256Y-110842795D01*
X180641898Y-110764774D01*
X180441939Y-110725000D01*
X180379802Y-110725000D01*
X179633804Y-109979003D01*
X179610001Y-109949999D01*
X179494276Y-109855026D01*
X179362247Y-109784454D01*
X179218986Y-109740997D01*
X179107333Y-109730000D01*
X179107322Y-109730000D01*
X179070000Y-109726324D01*
X179032678Y-109730000D01*
X177233711Y-109730000D01*
X177189774Y-109686063D01*
X177020256Y-109572795D01*
X176831898Y-109494774D01*
X176631939Y-109455000D01*
X176428061Y-109455000D01*
X176228102Y-109494774D01*
X176039744Y-109572795D01*
X175870226Y-109686063D01*
X175726063Y-109830226D01*
X175612795Y-109999744D01*
X175534774Y-110188102D01*
X175495000Y-110388061D01*
X158240000Y-110388061D01*
X158240000Y-106578061D01*
X165335000Y-106578061D01*
X165335000Y-106781939D01*
X165374774Y-106981898D01*
X165452795Y-107170256D01*
X165566063Y-107339774D01*
X165710226Y-107483937D01*
X165879744Y-107597205D01*
X166068102Y-107675226D01*
X166268061Y-107715000D01*
X166471939Y-107715000D01*
X166671898Y-107675226D01*
X166860256Y-107597205D01*
X167029774Y-107483937D01*
X167173937Y-107339774D01*
X167287205Y-107170256D01*
X167365226Y-106981898D01*
X167405000Y-106781939D01*
X167405000Y-106578061D01*
X167365226Y-106378102D01*
X167287205Y-106189744D01*
X167173937Y-106020226D01*
X167130000Y-105976289D01*
X167130000Y-104651799D01*
X167681799Y-104100001D01*
X171365000Y-104100001D01*
X171365000Y-104281335D01*
X171420147Y-104558574D01*
X171528320Y-104819727D01*
X171685363Y-105054759D01*
X171885241Y-105254637D01*
X172120273Y-105411680D01*
X172381426Y-105519853D01*
X172658665Y-105575000D01*
X172941335Y-105575000D01*
X173218574Y-105519853D01*
X173479727Y-105411680D01*
X173714759Y-105254637D01*
X173914637Y-105054759D01*
X173991316Y-104940000D01*
X176361928Y-104940000D01*
X176374188Y-105064482D01*
X176410498Y-105184180D01*
X176469463Y-105294494D01*
X176548815Y-105391185D01*
X176645506Y-105470537D01*
X176755820Y-105529502D01*
X176875518Y-105565812D01*
X177000000Y-105578072D01*
X177514250Y-105575000D01*
X177673000Y-105416250D01*
X177673000Y-104267000D01*
X177927000Y-104267000D01*
X177927000Y-105416250D01*
X178085750Y-105575000D01*
X178600000Y-105578072D01*
X178724482Y-105565812D01*
X178844180Y-105529502D01*
X178954494Y-105470537D01*
X179051185Y-105391185D01*
X179130537Y-105294494D01*
X179189502Y-105184180D01*
X179225812Y-105064482D01*
X179238072Y-104940000D01*
X179235000Y-104425750D01*
X179076250Y-104267000D01*
X177927000Y-104267000D01*
X177673000Y-104267000D01*
X176523750Y-104267000D01*
X176365000Y-104425750D01*
X176361928Y-104940000D01*
X173991316Y-104940000D01*
X174071680Y-104819727D01*
X174179853Y-104558574D01*
X174235000Y-104281335D01*
X174235000Y-103998665D01*
X174179853Y-103721426D01*
X174071680Y-103460273D01*
X173991317Y-103340000D01*
X176361928Y-103340000D01*
X176365000Y-103854250D01*
X176523750Y-104013000D01*
X177673000Y-104013000D01*
X177673000Y-102863750D01*
X177927000Y-102863750D01*
X177927000Y-104013000D01*
X179076250Y-104013000D01*
X179235000Y-103854250D01*
X179238072Y-103340000D01*
X179225812Y-103215518D01*
X179189502Y-103095820D01*
X179130537Y-102985506D01*
X179051185Y-102888815D01*
X178954494Y-102809463D01*
X178844180Y-102750498D01*
X178724482Y-102714188D01*
X178600000Y-102701928D01*
X178085750Y-102705000D01*
X177927000Y-102863750D01*
X177673000Y-102863750D01*
X177514250Y-102705000D01*
X177000000Y-102701928D01*
X176875518Y-102714188D01*
X176755820Y-102750498D01*
X176645506Y-102809463D01*
X176548815Y-102888815D01*
X176469463Y-102985506D01*
X176410498Y-103095820D01*
X176374188Y-103215518D01*
X176361928Y-103340000D01*
X173991317Y-103340000D01*
X173914637Y-103225241D01*
X173714759Y-103025363D01*
X173479727Y-102868320D01*
X173218574Y-102760147D01*
X172941335Y-102705000D01*
X172658665Y-102705000D01*
X172469978Y-102742533D01*
X172424277Y-102705027D01*
X172292248Y-102634455D01*
X172148987Y-102590998D01*
X172037334Y-102580001D01*
X172037323Y-102580001D01*
X172000001Y-102576325D01*
X171962679Y-102580001D01*
X167404322Y-102580001D01*
X167366997Y-102576325D01*
X167329672Y-102580001D01*
X167329664Y-102580001D01*
X167218011Y-102590998D01*
X167074750Y-102634455D01*
X166942721Y-102705027D01*
X166826996Y-102800000D01*
X166803198Y-102828998D01*
X165859002Y-103773194D01*
X165829999Y-103796997D01*
X165788345Y-103847753D01*
X165735026Y-103912722D01*
X165689088Y-103998665D01*
X165664454Y-104044752D01*
X165620997Y-104188013D01*
X165610000Y-104299666D01*
X165610000Y-104299676D01*
X165606324Y-104336998D01*
X165610000Y-104374321D01*
X165610001Y-105976288D01*
X165566063Y-106020226D01*
X165452795Y-106189744D01*
X165374774Y-106378102D01*
X165335000Y-106578061D01*
X158240000Y-106578061D01*
X158240000Y-104520434D01*
X160729876Y-104520434D01*
X160786498Y-104707107D01*
X160926601Y-104995382D01*
X161120252Y-105250785D01*
X161360008Y-105463501D01*
X161636656Y-105625356D01*
X161939565Y-105730129D01*
X162193000Y-105611315D01*
X162193000Y-104267000D01*
X162447000Y-104267000D01*
X162447000Y-105611315D01*
X162700435Y-105730129D01*
X163003344Y-105625356D01*
X163279992Y-105463501D01*
X163519748Y-105250785D01*
X163713399Y-104995382D01*
X163853502Y-104707107D01*
X163910124Y-104520434D01*
X163790777Y-104267000D01*
X162447000Y-104267000D01*
X162193000Y-104267000D01*
X160849223Y-104267000D01*
X160729876Y-104520434D01*
X158240000Y-104520434D01*
X158240000Y-103759566D01*
X160729876Y-103759566D01*
X160849223Y-104013000D01*
X162193000Y-104013000D01*
X162193000Y-102668685D01*
X162447000Y-102668685D01*
X162447000Y-104013000D01*
X163790777Y-104013000D01*
X163910124Y-103759566D01*
X163853502Y-103572893D01*
X163713399Y-103284618D01*
X163519748Y-103029215D01*
X163279992Y-102816499D01*
X163003344Y-102654644D01*
X162700435Y-102549871D01*
X162447000Y-102668685D01*
X162193000Y-102668685D01*
X161939565Y-102549871D01*
X161636656Y-102654644D01*
X161360008Y-102816499D01*
X161120252Y-103029215D01*
X160926601Y-103284618D01*
X160786498Y-103572893D01*
X160729876Y-103759566D01*
X158240000Y-103759566D01*
X158240000Y-101914801D01*
X171961010Y-88193793D01*
X171990001Y-88170001D01*
X172013795Y-88141008D01*
X172013799Y-88141004D01*
X172084973Y-88054277D01*
X172084974Y-88054276D01*
X172155546Y-87922247D01*
X172199003Y-87778986D01*
X172205988Y-87708072D01*
X172440000Y-87708072D01*
X172564482Y-87695812D01*
X172684180Y-87659502D01*
X172794494Y-87600537D01*
X172891185Y-87521185D01*
X172970537Y-87424494D01*
X173029502Y-87314180D01*
X173065812Y-87194482D01*
X173078072Y-87070000D01*
X173078072Y-83110000D01*
X173065812Y-82985518D01*
X173029502Y-82865820D01*
X172970537Y-82755506D01*
X172891185Y-82658815D01*
X172794494Y-82579463D01*
X172684180Y-82520498D01*
X172564482Y-82484188D01*
X172440000Y-82471928D01*
X170460000Y-82471928D01*
X170335518Y-82484188D01*
X170215820Y-82520498D01*
X170105506Y-82579463D01*
X170008815Y-82658815D01*
X169929463Y-82755506D01*
X169870498Y-82865820D01*
X169834188Y-82985518D01*
X169821928Y-83110000D01*
X169821928Y-87070000D01*
X169834188Y-87194482D01*
X169870498Y-87314180D01*
X169929463Y-87424494D01*
X170008815Y-87521185D01*
X170105506Y-87600537D01*
X170215820Y-87659502D01*
X170315467Y-87689730D01*
X156968998Y-101036201D01*
X156940000Y-101059999D01*
X156916202Y-101088997D01*
X156916201Y-101088998D01*
X156845026Y-101175724D01*
X156774454Y-101307754D01*
X156751934Y-101381996D01*
X156730998Y-101451014D01*
X156722738Y-101534881D01*
X156716324Y-101600000D01*
X156720001Y-101637333D01*
X156720000Y-115439928D01*
X156718000Y-115439928D01*
X156593518Y-115452188D01*
X156473820Y-115488498D01*
X156363506Y-115547463D01*
X156266815Y-115626815D01*
X156187463Y-115723506D01*
X156128498Y-115833820D01*
X156092188Y-115953518D01*
X156079928Y-116078000D01*
X139664572Y-116078000D01*
X139713696Y-115959405D01*
X139765000Y-115701486D01*
X139765000Y-115438514D01*
X139713696Y-115180595D01*
X139613061Y-114937641D01*
X139466962Y-114718987D01*
X139281013Y-114533038D01*
X139062359Y-114386939D01*
X138819405Y-114286304D01*
X138561486Y-114235000D01*
X138298514Y-114235000D01*
X138040595Y-114286304D01*
X137797641Y-114386939D01*
X137578987Y-114533038D01*
X137393038Y-114718987D01*
X137246939Y-114937641D01*
X137146304Y-115180595D01*
X137095000Y-115438514D01*
X129757001Y-115438514D01*
X129757001Y-115182409D01*
X129703315Y-114912511D01*
X129598006Y-114658274D01*
X129445121Y-114429466D01*
X129250536Y-114234881D01*
X129021728Y-114081996D01*
X128944486Y-114050001D01*
X129021728Y-114018006D01*
X129250536Y-113865121D01*
X129445121Y-113670536D01*
X129598006Y-113441728D01*
X129703315Y-113187491D01*
X129757001Y-112917593D01*
X129757001Y-112642409D01*
X129703315Y-112372511D01*
X129598006Y-112118274D01*
X129445121Y-111889466D01*
X129250536Y-111694881D01*
X129021728Y-111541996D01*
X128944486Y-111510001D01*
X129021728Y-111478006D01*
X129250536Y-111325121D01*
X129445121Y-111130536D01*
X129598006Y-110901728D01*
X129703315Y-110647491D01*
X129757001Y-110377593D01*
X129757001Y-110102409D01*
X129703315Y-109832511D01*
X129598006Y-109578274D01*
X129445121Y-109349466D01*
X129250536Y-109154881D01*
X129021728Y-109001996D01*
X128944486Y-108970001D01*
X129021728Y-108938006D01*
X129250536Y-108785121D01*
X129445121Y-108590536D01*
X129598006Y-108361728D01*
X129703315Y-108107491D01*
X129757001Y-107837593D01*
X129757001Y-107818514D01*
X137095000Y-107818514D01*
X137095000Y-108081486D01*
X137146304Y-108339405D01*
X137246939Y-108582359D01*
X137393038Y-108801013D01*
X137578987Y-108986962D01*
X137797641Y-109133061D01*
X138040595Y-109233696D01*
X138298514Y-109285000D01*
X138561486Y-109285000D01*
X138819405Y-109233696D01*
X139062359Y-109133061D01*
X139281013Y-108986962D01*
X139466962Y-108801013D01*
X139613061Y-108582359D01*
X139713696Y-108339405D01*
X139765000Y-108081486D01*
X139765000Y-107818514D01*
X139713696Y-107560595D01*
X139613061Y-107317641D01*
X139466962Y-107098987D01*
X139281013Y-106913038D01*
X139062359Y-106766939D01*
X138819405Y-106666304D01*
X138561486Y-106615000D01*
X138298514Y-106615000D01*
X138040595Y-106666304D01*
X137797641Y-106766939D01*
X137578987Y-106913038D01*
X137393038Y-107098987D01*
X137246939Y-107317641D01*
X137146304Y-107560595D01*
X137095000Y-107818514D01*
X129757001Y-107818514D01*
X129757001Y-107562409D01*
X129703315Y-107292511D01*
X129598006Y-107038274D01*
X129445121Y-106809466D01*
X129419610Y-106783955D01*
X132195051Y-104008514D01*
X133285000Y-104008514D01*
X133285000Y-104271486D01*
X133336304Y-104529405D01*
X133436939Y-104772359D01*
X133583038Y-104991013D01*
X133768987Y-105176962D01*
X133987641Y-105323061D01*
X134230595Y-105423696D01*
X134488514Y-105475000D01*
X134751486Y-105475000D01*
X135009405Y-105423696D01*
X135252359Y-105323061D01*
X135471013Y-105176962D01*
X135656962Y-104991013D01*
X135803061Y-104772359D01*
X135903696Y-104529405D01*
X135955000Y-104271486D01*
X135955000Y-104008514D01*
X140905000Y-104008514D01*
X140905000Y-104271486D01*
X140956304Y-104529405D01*
X141056939Y-104772359D01*
X141203038Y-104991013D01*
X141388987Y-105176962D01*
X141607641Y-105323061D01*
X141850595Y-105423696D01*
X142108514Y-105475000D01*
X142371486Y-105475000D01*
X142629405Y-105423696D01*
X142872359Y-105323061D01*
X143091013Y-105176962D01*
X143276962Y-104991013D01*
X143423061Y-104772359D01*
X143523696Y-104529405D01*
X143575000Y-104271486D01*
X143575000Y-104008514D01*
X143523696Y-103750595D01*
X143423061Y-103507641D01*
X143276962Y-103288987D01*
X143127975Y-103140000D01*
X145681928Y-103140000D01*
X145681928Y-105140000D01*
X145694188Y-105264482D01*
X145730498Y-105384180D01*
X145789463Y-105494494D01*
X145868815Y-105591185D01*
X145965506Y-105670537D01*
X146075820Y-105729502D01*
X146195518Y-105765812D01*
X146320000Y-105778072D01*
X148320000Y-105778072D01*
X148444482Y-105765812D01*
X148564180Y-105729502D01*
X148674494Y-105670537D01*
X148771185Y-105591185D01*
X148850537Y-105494494D01*
X148909502Y-105384180D01*
X148945812Y-105264482D01*
X148958072Y-105140000D01*
X148958072Y-103140000D01*
X148945812Y-103015518D01*
X148909502Y-102895820D01*
X148850537Y-102785506D01*
X148771185Y-102688815D01*
X148674494Y-102609463D01*
X148564180Y-102550498D01*
X148444482Y-102514188D01*
X148320000Y-102501928D01*
X146320000Y-102501928D01*
X146195518Y-102514188D01*
X146075820Y-102550498D01*
X145965506Y-102609463D01*
X145868815Y-102688815D01*
X145789463Y-102785506D01*
X145730498Y-102895820D01*
X145694188Y-103015518D01*
X145681928Y-103140000D01*
X143127975Y-103140000D01*
X143091013Y-103103038D01*
X142872359Y-102956939D01*
X142629405Y-102856304D01*
X142371486Y-102805000D01*
X142108514Y-102805000D01*
X141850595Y-102856304D01*
X141607641Y-102956939D01*
X141388987Y-103103038D01*
X141203038Y-103288987D01*
X141056939Y-103507641D01*
X140956304Y-103750595D01*
X140905000Y-104008514D01*
X135955000Y-104008514D01*
X135903696Y-103750595D01*
X135803061Y-103507641D01*
X135656962Y-103288987D01*
X135471013Y-103103038D01*
X135252359Y-102956939D01*
X135009405Y-102856304D01*
X134751486Y-102805000D01*
X134488514Y-102805000D01*
X134230595Y-102856304D01*
X133987641Y-102956939D01*
X133768987Y-103103038D01*
X133583038Y-103288987D01*
X133436939Y-103507641D01*
X133336304Y-103750595D01*
X133285000Y-104008514D01*
X132195051Y-104008514D01*
X135131008Y-101072559D01*
X135160001Y-101048765D01*
X135183795Y-101019772D01*
X135183799Y-101019768D01*
X135254973Y-100933041D01*
X135254974Y-100933040D01*
X135325546Y-100801010D01*
X135369003Y-100657749D01*
X135369216Y-100655585D01*
X142146740Y-93878061D01*
X155175000Y-93878061D01*
X155175000Y-94081939D01*
X155214774Y-94281898D01*
X155292795Y-94470256D01*
X155406063Y-94639774D01*
X155550226Y-94783937D01*
X155719744Y-94897205D01*
X155908102Y-94975226D01*
X156108061Y-95015000D01*
X156311939Y-95015000D01*
X156511898Y-94975226D01*
X156700256Y-94897205D01*
X156869774Y-94783937D01*
X157013937Y-94639774D01*
X157127205Y-94470256D01*
X157205226Y-94281898D01*
X157245000Y-94081939D01*
X157245000Y-94019801D01*
X159064803Y-92200000D01*
X160586289Y-92200000D01*
X160630226Y-92243937D01*
X160799744Y-92357205D01*
X160988102Y-92435226D01*
X161188061Y-92475000D01*
X161391939Y-92475000D01*
X161591898Y-92435226D01*
X161780256Y-92357205D01*
X161949774Y-92243937D01*
X162093937Y-92099774D01*
X162207205Y-91930256D01*
X162285226Y-91741898D01*
X162325000Y-91541939D01*
X162325000Y-91338061D01*
X162285226Y-91138102D01*
X162207205Y-90949744D01*
X162093937Y-90780226D01*
X161949774Y-90636063D01*
X161780256Y-90522795D01*
X161591898Y-90444774D01*
X161391939Y-90405000D01*
X161188061Y-90405000D01*
X160988102Y-90444774D01*
X160799744Y-90522795D01*
X160630226Y-90636063D01*
X160586289Y-90680000D01*
X158787322Y-90680000D01*
X158749999Y-90676324D01*
X158712676Y-90680000D01*
X158712667Y-90680000D01*
X158601014Y-90690997D01*
X158457753Y-90734454D01*
X158325724Y-90805026D01*
X158325722Y-90805027D01*
X158325723Y-90805027D01*
X158238996Y-90876201D01*
X158238992Y-90876205D01*
X158209999Y-90899999D01*
X158186205Y-90928992D01*
X156170199Y-92945000D01*
X156108061Y-92945000D01*
X155908102Y-92984774D01*
X155719744Y-93062795D01*
X155550226Y-93176063D01*
X155406063Y-93320226D01*
X155292795Y-93489744D01*
X155214774Y-93678102D01*
X155175000Y-93878061D01*
X142146740Y-93878061D01*
X145291003Y-90733799D01*
X145320001Y-90710001D01*
X145414974Y-90594276D01*
X145485546Y-90462247D01*
X145529003Y-90318986D01*
X145540000Y-90207333D01*
X145540000Y-90207325D01*
X145543676Y-90170000D01*
X145540000Y-90132675D01*
X145540000Y-87708072D01*
X145770000Y-87708072D01*
X145894482Y-87695812D01*
X146014180Y-87659502D01*
X146124494Y-87600537D01*
X146221185Y-87521185D01*
X146300537Y-87424494D01*
X146359502Y-87314180D01*
X146395812Y-87194482D01*
X146408072Y-87070000D01*
X146408072Y-85217000D01*
X164825000Y-85217000D01*
X164825000Y-86207000D01*
X164881000Y-86521582D01*
X164997296Y-86819194D01*
X165169419Y-87088399D01*
X165390754Y-87318852D01*
X165652795Y-87501696D01*
X165945472Y-87629905D01*
X166071135Y-87660218D01*
X166323000Y-87540740D01*
X166323000Y-85217000D01*
X166577000Y-85217000D01*
X166577000Y-87540740D01*
X166828865Y-87660218D01*
X166954528Y-87629905D01*
X167247205Y-87501696D01*
X167509246Y-87318852D01*
X167730581Y-87088399D01*
X167902704Y-86819194D01*
X168019000Y-86521582D01*
X168075000Y-86207000D01*
X168075000Y-85217000D01*
X166577000Y-85217000D01*
X166323000Y-85217000D01*
X164825000Y-85217000D01*
X146408072Y-85217000D01*
X146408072Y-83973000D01*
X164825000Y-83973000D01*
X164825000Y-84963000D01*
X166323000Y-84963000D01*
X166323000Y-82639260D01*
X166577000Y-82639260D01*
X166577000Y-84963000D01*
X168075000Y-84963000D01*
X168075000Y-83973000D01*
X168019000Y-83658418D01*
X167902704Y-83360806D01*
X167730581Y-83091601D01*
X167509246Y-82861148D01*
X167247205Y-82678304D01*
X166954528Y-82550095D01*
X166828865Y-82519782D01*
X166577000Y-82639260D01*
X166323000Y-82639260D01*
X166071135Y-82519782D01*
X165945472Y-82550095D01*
X165652795Y-82678304D01*
X165390754Y-82861148D01*
X165169419Y-83091601D01*
X164997296Y-83360806D01*
X164881000Y-83658418D01*
X164825000Y-83973000D01*
X146408072Y-83973000D01*
X146408072Y-83110000D01*
X146395812Y-82985518D01*
X146359502Y-82865820D01*
X146300537Y-82755506D01*
X146221185Y-82658815D01*
X146124494Y-82579463D01*
X146014180Y-82520498D01*
X145894482Y-82484188D01*
X145770000Y-82471928D01*
X143790000Y-82471928D01*
X143665518Y-82484188D01*
X143545820Y-82520498D01*
X143435506Y-82579463D01*
X143338815Y-82658815D01*
X143259463Y-82755506D01*
X143200498Y-82865820D01*
X143164188Y-82985518D01*
X143151928Y-83110000D01*
X143151928Y-87070000D01*
X143164188Y-87194482D01*
X143200498Y-87314180D01*
X143259463Y-87424494D01*
X143338815Y-87521185D01*
X143435506Y-87600537D01*
X143545820Y-87659502D01*
X143665518Y-87695812D01*
X143790000Y-87708072D01*
X144020001Y-87708072D01*
X144020001Y-89855197D01*
X134109003Y-99766196D01*
X134079999Y-99789999D01*
X134024871Y-99857174D01*
X133985026Y-99905724D01*
X133964051Y-99944965D01*
X133914454Y-100037754D01*
X133870997Y-100181015D01*
X133870784Y-100183177D01*
X129581056Y-104472906D01*
X129445121Y-104269466D01*
X129250536Y-104074881D01*
X129021728Y-103921996D01*
X128944486Y-103890001D01*
X129021728Y-103858006D01*
X129250536Y-103705121D01*
X129445121Y-103510536D01*
X129598006Y-103281728D01*
X129703315Y-103027491D01*
X129757001Y-102757593D01*
X129757001Y-102482409D01*
X129703315Y-102212511D01*
X129598006Y-101958274D01*
X129445121Y-101729466D01*
X129250536Y-101534881D01*
X129021728Y-101381996D01*
X128944486Y-101350001D01*
X129021728Y-101318006D01*
X129250536Y-101165121D01*
X129445121Y-100970536D01*
X129598006Y-100741728D01*
X129703315Y-100487491D01*
X129757001Y-100217593D01*
X129757001Y-99942409D01*
X129703315Y-99672511D01*
X129598006Y-99418274D01*
X129445121Y-99189466D01*
X129250536Y-98994881D01*
X129021728Y-98841996D01*
X128944486Y-98810001D01*
X129021728Y-98778006D01*
X129250536Y-98625121D01*
X129445121Y-98430536D01*
X129598006Y-98201728D01*
X129703315Y-97947491D01*
X129757001Y-97677593D01*
X129757001Y-97402409D01*
X129703315Y-97132511D01*
X129598006Y-96878274D01*
X129445121Y-96649466D01*
X129250536Y-96454881D01*
X129021728Y-96301996D01*
X128944486Y-96270001D01*
X129021728Y-96238006D01*
X129250536Y-96085121D01*
X129445121Y-95890536D01*
X129598006Y-95661728D01*
X129703315Y-95407491D01*
X129757001Y-95137593D01*
X129757001Y-94862409D01*
X129703315Y-94592511D01*
X129598006Y-94338274D01*
X129445121Y-94109466D01*
X129250536Y-93914881D01*
X129021728Y-93761996D01*
X128944486Y-93730001D01*
X129021728Y-93698006D01*
X129250536Y-93545121D01*
X129445121Y-93350536D01*
X129598006Y-93121728D01*
X129703315Y-92867491D01*
X129757001Y-92597593D01*
X129757001Y-92322409D01*
X129703315Y-92052511D01*
X129598006Y-91798274D01*
X129445121Y-91569466D01*
X129250536Y-91374881D01*
X129021728Y-91221996D01*
X128944486Y-91190001D01*
X129021728Y-91158006D01*
X129250536Y-91005121D01*
X129445121Y-90810536D01*
X129598006Y-90581728D01*
X129703315Y-90327491D01*
X129757001Y-90057593D01*
X129757001Y-89782409D01*
X129703315Y-89512511D01*
X129598006Y-89258274D01*
X129445121Y-89029466D01*
X129250536Y-88834881D01*
X129021728Y-88681996D01*
X128944486Y-88650001D01*
X129021728Y-88618006D01*
X129250536Y-88465121D01*
X129445121Y-88270536D01*
X129598006Y-88041728D01*
X129703315Y-87787491D01*
X129757001Y-87517593D01*
X129757001Y-87242409D01*
X129703315Y-86972511D01*
X129598006Y-86718274D01*
X129445121Y-86489466D01*
X129250536Y-86294881D01*
X129021728Y-86141996D01*
X128767491Y-86036687D01*
X128497593Y-85983001D01*
X128222409Y-85983001D01*
X127952511Y-86036687D01*
X127698274Y-86141996D01*
X127469466Y-86294881D01*
X127274881Y-86489466D01*
X127121996Y-86718274D01*
X127016687Y-86972511D01*
X126963001Y-87242409D01*
X104360073Y-87242409D01*
X104360073Y-86618001D01*
X104347813Y-86493519D01*
X104311503Y-86373821D01*
X104252538Y-86263507D01*
X104173186Y-86166816D01*
X104076495Y-86087464D01*
X103966181Y-86028499D01*
X103846483Y-85992189D01*
X103722001Y-85979929D01*
X102198001Y-85979929D01*
X102073519Y-85992189D01*
X101953821Y-86028499D01*
X101843507Y-86087464D01*
X101746816Y-86166816D01*
X101667464Y-86263507D01*
X101608499Y-86373821D01*
X101572189Y-86493519D01*
X101559929Y-86618001D01*
X91797253Y-86618001D01*
X91795000Y-85375750D01*
X91636250Y-85217000D01*
X133155000Y-85217000D01*
X133155000Y-86207000D01*
X133211000Y-86521582D01*
X133327296Y-86819194D01*
X133499419Y-87088399D01*
X133720754Y-87318852D01*
X133982795Y-87501696D01*
X134275472Y-87629905D01*
X134401135Y-87660218D01*
X134653000Y-87540740D01*
X134653000Y-85217000D01*
X134907000Y-85217000D01*
X134907000Y-87540740D01*
X135158865Y-87660218D01*
X135284528Y-87629905D01*
X135577205Y-87501696D01*
X135839246Y-87318852D01*
X136060581Y-87088399D01*
X136232704Y-86819194D01*
X136349000Y-86521582D01*
X136405000Y-86207000D01*
X136405000Y-86159823D01*
X138155000Y-86159823D01*
X138178513Y-86398555D01*
X138271432Y-86704868D01*
X138422325Y-86987169D01*
X138625392Y-87234608D01*
X138872830Y-87437675D01*
X139155131Y-87588568D01*
X139461444Y-87681487D01*
X139780000Y-87712862D01*
X140098555Y-87681487D01*
X140404868Y-87588568D01*
X140687169Y-87437675D01*
X140934608Y-87234608D01*
X141137675Y-86987170D01*
X141288568Y-86704869D01*
X141381487Y-86398556D01*
X141405000Y-86159824D01*
X141405000Y-84020176D01*
X141381487Y-83781444D01*
X141288568Y-83475131D01*
X141137675Y-83192830D01*
X140934608Y-82945392D01*
X140687170Y-82742325D01*
X140404869Y-82591432D01*
X140098556Y-82498513D01*
X139780000Y-82467138D01*
X139461445Y-82498513D01*
X139155132Y-82591432D01*
X138872831Y-82742325D01*
X138625393Y-82945392D01*
X138422326Y-83192830D01*
X138271433Y-83475131D01*
X138178514Y-83781444D01*
X138155001Y-84020176D01*
X138155000Y-86159823D01*
X136405000Y-86159823D01*
X136405000Y-85217000D01*
X134907000Y-85217000D01*
X134653000Y-85217000D01*
X133155000Y-85217000D01*
X91636250Y-85217000D01*
X90297000Y-85217000D01*
X90043000Y-85217000D01*
X88703750Y-85217000D01*
X88545000Y-85375750D01*
X88541928Y-87070000D01*
X86459698Y-87070000D01*
X86527675Y-86987170D01*
X86678568Y-86704869D01*
X86771487Y-86398556D01*
X86795000Y-86159824D01*
X86795000Y-84020176D01*
X86771487Y-83781444D01*
X86678568Y-83475131D01*
X86527675Y-83192830D01*
X86459699Y-83110000D01*
X88541928Y-83110000D01*
X88545000Y-84804250D01*
X88703750Y-84963000D01*
X90043000Y-84963000D01*
X90043000Y-82633750D01*
X90297000Y-82633750D01*
X90297000Y-84963000D01*
X91636250Y-84963000D01*
X91795000Y-84804250D01*
X91796507Y-83973000D01*
X133155000Y-83973000D01*
X133155000Y-84963000D01*
X134653000Y-84963000D01*
X134653000Y-82639260D01*
X134907000Y-82639260D01*
X134907000Y-84963000D01*
X136405000Y-84963000D01*
X136405000Y-83973000D01*
X136349000Y-83658418D01*
X136232704Y-83360806D01*
X136060581Y-83091601D01*
X135839246Y-82861148D01*
X135577205Y-82678304D01*
X135284528Y-82550095D01*
X135158865Y-82519782D01*
X134907000Y-82639260D01*
X134653000Y-82639260D01*
X134401135Y-82519782D01*
X134275472Y-82550095D01*
X133982795Y-82678304D01*
X133720754Y-82861148D01*
X133499419Y-83091601D01*
X133327296Y-83360806D01*
X133211000Y-83658418D01*
X133155000Y-83973000D01*
X91796507Y-83973000D01*
X91798072Y-83110000D01*
X91785812Y-82985518D01*
X91749502Y-82865820D01*
X91690537Y-82755506D01*
X91611185Y-82658815D01*
X91514494Y-82579463D01*
X91404180Y-82520498D01*
X91284482Y-82484188D01*
X91160000Y-82471928D01*
X90455750Y-82475000D01*
X90297000Y-82633750D01*
X90043000Y-82633750D01*
X89884250Y-82475000D01*
X89180000Y-82471928D01*
X89055518Y-82484188D01*
X88935820Y-82520498D01*
X88825506Y-82579463D01*
X88728815Y-82658815D01*
X88649463Y-82755506D01*
X88590498Y-82865820D01*
X88554188Y-82985518D01*
X88541928Y-83110000D01*
X86459699Y-83110000D01*
X86324608Y-82945392D01*
X86077170Y-82742325D01*
X85794869Y-82591432D01*
X85488556Y-82498513D01*
X85170000Y-82467138D01*
X84851445Y-82498513D01*
X84545132Y-82591432D01*
X84262831Y-82742325D01*
X84015393Y-82945392D01*
X83812326Y-83192830D01*
X83661433Y-83475131D01*
X83568514Y-83781444D01*
X83545001Y-84020176D01*
X83545000Y-86159823D01*
X74175001Y-86159823D01*
X74175001Y-86152323D01*
X74178677Y-86115000D01*
X74175001Y-86077677D01*
X74175001Y-86077668D01*
X74164004Y-85966015D01*
X74120547Y-85822754D01*
X74049975Y-85690725D01*
X74018072Y-85651851D01*
X74018072Y-83110000D01*
X74005812Y-82985518D01*
X73969502Y-82865820D01*
X73910537Y-82755506D01*
X73831185Y-82658815D01*
X73734494Y-82579463D01*
X73624180Y-82520498D01*
X73504482Y-82484188D01*
X73380000Y-82471928D01*
X71400000Y-82471928D01*
X71275518Y-82484188D01*
X71155820Y-82520498D01*
X71045506Y-82579463D01*
X70948815Y-82658815D01*
X70869463Y-82755506D01*
X70810498Y-82865820D01*
X70774188Y-82985518D01*
X70761928Y-83110000D01*
X70761928Y-87070000D01*
X70774188Y-87194482D01*
X70810498Y-87314180D01*
X70869463Y-87424494D01*
X70948815Y-87521185D01*
X71045506Y-87600537D01*
X71155820Y-87659502D01*
X71275518Y-87695812D01*
X71400000Y-87708072D01*
X72655001Y-87708072D01*
X72655001Y-96481558D01*
X72521486Y-96455000D01*
X72258514Y-96455000D01*
X72000595Y-96506304D01*
X71757641Y-96606939D01*
X71538987Y-96753038D01*
X71353038Y-96938987D01*
X71206939Y-97157641D01*
X71106304Y-97400595D01*
X71055000Y-97658514D01*
X71055000Y-97921486D01*
X71106304Y-98179405D01*
X71206939Y-98422359D01*
X71353038Y-98641013D01*
X71538987Y-98826962D01*
X71757641Y-98973061D01*
X72000595Y-99073696D01*
X72258514Y-99125000D01*
X72521486Y-99125000D01*
X72655002Y-99098442D01*
X72655002Y-104101558D01*
X72521486Y-104075000D01*
X72258514Y-104075000D01*
X72000595Y-104126304D01*
X71757641Y-104226939D01*
X71538987Y-104373038D01*
X71353038Y-104558987D01*
X71292225Y-104650000D01*
X64672341Y-104650000D01*
X64585120Y-104519465D01*
X64390535Y-104324880D01*
X64161727Y-104171995D01*
X63907490Y-104066686D01*
X63637592Y-104013000D01*
X63362408Y-104013000D01*
X63092510Y-104066686D01*
X62838273Y-104171995D01*
X62609465Y-104324880D01*
X62414880Y-104519465D01*
X62261995Y-104748273D01*
X62156686Y-105002510D01*
X62103000Y-105272408D01*
X62103000Y-105547592D01*
X62156686Y-105817490D01*
X62261995Y-106071727D01*
X62414880Y-106300535D01*
X62609465Y-106495120D01*
X62838273Y-106648005D01*
X62915515Y-106680000D01*
X62838273Y-106711995D01*
X62609465Y-106864880D01*
X62414880Y-107059465D01*
X62261995Y-107288273D01*
X62156686Y-107542510D01*
X62103000Y-107812408D01*
X62103000Y-108087592D01*
X62156686Y-108357490D01*
X62261995Y-108611727D01*
X62414880Y-108840535D01*
X62609465Y-109035120D01*
X62697465Y-109093920D01*
X62613518Y-109102188D01*
X62493820Y-109138498D01*
X62383506Y-109197463D01*
X62286815Y-109276815D01*
X62207463Y-109373506D01*
X62148498Y-109483820D01*
X62112188Y-109603518D01*
X62099928Y-109728000D01*
X50927000Y-109728000D01*
X50927000Y-85217000D01*
X65765000Y-85217000D01*
X65765000Y-86207000D01*
X65821000Y-86521582D01*
X65937296Y-86819194D01*
X66109419Y-87088399D01*
X66330754Y-87318852D01*
X66592795Y-87501696D01*
X66885472Y-87629905D01*
X67011135Y-87660218D01*
X67263000Y-87540740D01*
X67263000Y-85217000D01*
X67517000Y-85217000D01*
X67517000Y-87540740D01*
X67768865Y-87660218D01*
X67894528Y-87629905D01*
X68187205Y-87501696D01*
X68449246Y-87318852D01*
X68670581Y-87088399D01*
X68842704Y-86819194D01*
X68959000Y-86521582D01*
X69015000Y-86207000D01*
X69015000Y-85217000D01*
X67517000Y-85217000D01*
X67263000Y-85217000D01*
X65765000Y-85217000D01*
X50927000Y-85217000D01*
X50927000Y-83973000D01*
X65765000Y-83973000D01*
X65765000Y-84963000D01*
X67263000Y-84963000D01*
X67263000Y-82639260D01*
X67517000Y-82639260D01*
X67517000Y-84963000D01*
X69015000Y-84963000D01*
X69015000Y-83973000D01*
X68959000Y-83658418D01*
X68842704Y-83360806D01*
X68670581Y-83091601D01*
X68449246Y-82861148D01*
X68187205Y-82678304D01*
X67894528Y-82550095D01*
X67768865Y-82519782D01*
X67517000Y-82639260D01*
X67263000Y-82639260D01*
X67011135Y-82519782D01*
X66885472Y-82550095D01*
X66592795Y-82678304D01*
X66330754Y-82861148D01*
X66109419Y-83091601D01*
X65937296Y-83360806D01*
X65821000Y-83658418D01*
X65765000Y-83973000D01*
X50927000Y-83973000D01*
X50927000Y-80855000D01*
X189436928Y-80855000D01*
X189436928Y-81705000D01*
X189449188Y-81829482D01*
X189485498Y-81949180D01*
X189544463Y-82059494D01*
X189623815Y-82156185D01*
X189720506Y-82235537D01*
X189740000Y-82245957D01*
X189740001Y-90474043D01*
X189720506Y-90484463D01*
X189623815Y-90563815D01*
X189544463Y-90660506D01*
X189485498Y-90770820D01*
X189449188Y-90890518D01*
X189436928Y-91015000D01*
X189436928Y-91865000D01*
X189449188Y-91989482D01*
X189485498Y-92109180D01*
X189544463Y-92219494D01*
X189623815Y-92316185D01*
X189720506Y-92395537D01*
X189830820Y-92454502D01*
X189950518Y-92490812D01*
X190075000Y-92503072D01*
X190925000Y-92503072D01*
X191049482Y-92490812D01*
X191169180Y-92454502D01*
X191279494Y-92395537D01*
X191376185Y-92316185D01*
X191455537Y-92219494D01*
X191514502Y-92109180D01*
X191550812Y-91989482D01*
X191563072Y-91865000D01*
X191976928Y-91865000D01*
X191989188Y-91989482D01*
X192025498Y-92109180D01*
X192084463Y-92219494D01*
X192163815Y-92316185D01*
X192260506Y-92395537D01*
X192370820Y-92454502D01*
X192490518Y-92490812D01*
X192615000Y-92503072D01*
X192754250Y-92500000D01*
X192913000Y-92341250D01*
X192913000Y-91567000D01*
X193167000Y-91567000D01*
X193167000Y-92341250D01*
X193325750Y-92500000D01*
X193465000Y-92503072D01*
X193589482Y-92490812D01*
X193709180Y-92454502D01*
X193819494Y-92395537D01*
X193916185Y-92316185D01*
X193995537Y-92219494D01*
X194054502Y-92109180D01*
X194090812Y-91989482D01*
X194103072Y-91865000D01*
X194100000Y-91725750D01*
X193941250Y-91567000D01*
X193167000Y-91567000D01*
X192913000Y-91567000D01*
X192138750Y-91567000D01*
X191980000Y-91725750D01*
X191976928Y-91865000D01*
X191563072Y-91865000D01*
X191563072Y-91015000D01*
X191976928Y-91015000D01*
X191980000Y-91154250D01*
X192138750Y-91313000D01*
X192913000Y-91313000D01*
X192913000Y-90538750D01*
X193167000Y-90538750D01*
X193167000Y-91313000D01*
X193941250Y-91313000D01*
X194100000Y-91154250D01*
X194103072Y-91015000D01*
X232616928Y-91015000D01*
X232616928Y-91865000D01*
X232629188Y-91989482D01*
X232665498Y-92109180D01*
X232724463Y-92219494D01*
X232803815Y-92316185D01*
X232900506Y-92395537D01*
X233010820Y-92454502D01*
X233130518Y-92490812D01*
X233255000Y-92503072D01*
X234105000Y-92503072D01*
X234229482Y-92490812D01*
X234349180Y-92454502D01*
X234459494Y-92395537D01*
X234556185Y-92316185D01*
X234635537Y-92219494D01*
X234694502Y-92109180D01*
X234730812Y-91989482D01*
X234743072Y-91865000D01*
X235156928Y-91865000D01*
X235169188Y-91989482D01*
X235205498Y-92109180D01*
X235264463Y-92219494D01*
X235343815Y-92316185D01*
X235440506Y-92395537D01*
X235550820Y-92454502D01*
X235670518Y-92490812D01*
X235795000Y-92503072D01*
X235934250Y-92500000D01*
X236093000Y-92341250D01*
X236093000Y-91567000D01*
X236347000Y-91567000D01*
X236347000Y-92341250D01*
X236505750Y-92500000D01*
X236645000Y-92503072D01*
X236769482Y-92490812D01*
X236889180Y-92454502D01*
X236999494Y-92395537D01*
X237096185Y-92316185D01*
X237175537Y-92219494D01*
X237234502Y-92109180D01*
X237270812Y-91989482D01*
X237283072Y-91865000D01*
X237280000Y-91725750D01*
X237121250Y-91567000D01*
X236347000Y-91567000D01*
X236093000Y-91567000D01*
X235318750Y-91567000D01*
X235160000Y-91725750D01*
X235156928Y-91865000D01*
X234743072Y-91865000D01*
X234743072Y-91015000D01*
X235156928Y-91015000D01*
X235160000Y-91154250D01*
X235318750Y-91313000D01*
X236093000Y-91313000D01*
X236093000Y-90538750D01*
X236347000Y-90538750D01*
X236347000Y-91313000D01*
X237121250Y-91313000D01*
X237280000Y-91154250D01*
X237283072Y-91015000D01*
X237270812Y-90890518D01*
X237234502Y-90770820D01*
X237175537Y-90660506D01*
X237096185Y-90563815D01*
X236999494Y-90484463D01*
X236889180Y-90425498D01*
X236769482Y-90389188D01*
X236645000Y-90376928D01*
X236505750Y-90380000D01*
X236347000Y-90538750D01*
X236093000Y-90538750D01*
X235934250Y-90380000D01*
X235795000Y-90376928D01*
X235670518Y-90389188D01*
X235550820Y-90425498D01*
X235440506Y-90484463D01*
X235343815Y-90563815D01*
X235264463Y-90660506D01*
X235205498Y-90770820D01*
X235169188Y-90890518D01*
X235156928Y-91015000D01*
X234743072Y-91015000D01*
X234730812Y-90890518D01*
X234694502Y-90770820D01*
X234635537Y-90660506D01*
X234556185Y-90563815D01*
X234459494Y-90484463D01*
X234349180Y-90425498D01*
X234229482Y-90389188D01*
X234105000Y-90376928D01*
X233255000Y-90376928D01*
X233130518Y-90389188D01*
X233010820Y-90425498D01*
X232900506Y-90484463D01*
X232803815Y-90563815D01*
X232724463Y-90660506D01*
X232665498Y-90770820D01*
X232629188Y-90890518D01*
X232616928Y-91015000D01*
X194103072Y-91015000D01*
X194090812Y-90890518D01*
X194054502Y-90770820D01*
X193995537Y-90660506D01*
X193916185Y-90563815D01*
X193819494Y-90484463D01*
X193709180Y-90425498D01*
X193589482Y-90389188D01*
X193465000Y-90376928D01*
X193325750Y-90380000D01*
X193167000Y-90538750D01*
X192913000Y-90538750D01*
X192754250Y-90380000D01*
X192615000Y-90376928D01*
X192490518Y-90389188D01*
X192370820Y-90425498D01*
X192260506Y-90484463D01*
X192163815Y-90563815D01*
X192084463Y-90660506D01*
X192025498Y-90770820D01*
X191989188Y-90890518D01*
X191976928Y-91015000D01*
X191563072Y-91015000D01*
X191550812Y-90890518D01*
X191514502Y-90770820D01*
X191455537Y-90660506D01*
X191376185Y-90563815D01*
X191279494Y-90484463D01*
X191260000Y-90474043D01*
X191260000Y-82245957D01*
X191279494Y-82235537D01*
X191376185Y-82156185D01*
X191455537Y-82059494D01*
X191514502Y-81949180D01*
X191550812Y-81829482D01*
X191563072Y-81705000D01*
X191976928Y-81705000D01*
X191989188Y-81829482D01*
X192025498Y-81949180D01*
X192084463Y-82059494D01*
X192163815Y-82156185D01*
X192260506Y-82235537D01*
X192370820Y-82294502D01*
X192490518Y-82330812D01*
X192615000Y-82343072D01*
X192754250Y-82340000D01*
X192913000Y-82181250D01*
X192913000Y-81407000D01*
X193167000Y-81407000D01*
X193167000Y-82181250D01*
X193325750Y-82340000D01*
X193465000Y-82343072D01*
X193589482Y-82330812D01*
X193709180Y-82294502D01*
X193819494Y-82235537D01*
X193916185Y-82156185D01*
X193995537Y-82059494D01*
X194054502Y-81949180D01*
X194090812Y-81829482D01*
X194103072Y-81705000D01*
X194100000Y-81565750D01*
X193941250Y-81407000D01*
X193167000Y-81407000D01*
X192913000Y-81407000D01*
X192138750Y-81407000D01*
X191980000Y-81565750D01*
X191976928Y-81705000D01*
X191563072Y-81705000D01*
X191563072Y-80855000D01*
X191976928Y-80855000D01*
X191980000Y-80994250D01*
X192138750Y-81153000D01*
X192913000Y-81153000D01*
X192913000Y-80378750D01*
X193167000Y-80378750D01*
X193167000Y-81153000D01*
X193941250Y-81153000D01*
X194100000Y-80994250D01*
X194103072Y-80855000D01*
X232616928Y-80855000D01*
X232616928Y-81705000D01*
X232629188Y-81829482D01*
X232665498Y-81949180D01*
X232724463Y-82059494D01*
X232803815Y-82156185D01*
X232900506Y-82235537D01*
X233010820Y-82294502D01*
X233130518Y-82330812D01*
X233255000Y-82343072D01*
X234105000Y-82343072D01*
X234229482Y-82330812D01*
X234349180Y-82294502D01*
X234459494Y-82235537D01*
X234556185Y-82156185D01*
X234635537Y-82059494D01*
X234694502Y-81949180D01*
X234730812Y-81829482D01*
X234743072Y-81705000D01*
X235156928Y-81705000D01*
X235169188Y-81829482D01*
X235205498Y-81949180D01*
X235264463Y-82059494D01*
X235343815Y-82156185D01*
X235440506Y-82235537D01*
X235550820Y-82294502D01*
X235670518Y-82330812D01*
X235795000Y-82343072D01*
X235934250Y-82340000D01*
X236093000Y-82181250D01*
X236093000Y-81407000D01*
X236347000Y-81407000D01*
X236347000Y-82181250D01*
X236505750Y-82340000D01*
X236645000Y-82343072D01*
X236769482Y-82330812D01*
X236889180Y-82294502D01*
X236999494Y-82235537D01*
X237096185Y-82156185D01*
X237175537Y-82059494D01*
X237234502Y-81949180D01*
X237270812Y-81829482D01*
X237283072Y-81705000D01*
X237280000Y-81565750D01*
X237121250Y-81407000D01*
X236347000Y-81407000D01*
X236093000Y-81407000D01*
X235318750Y-81407000D01*
X235160000Y-81565750D01*
X235156928Y-81705000D01*
X234743072Y-81705000D01*
X234743072Y-80855000D01*
X235156928Y-80855000D01*
X235160000Y-80994250D01*
X235318750Y-81153000D01*
X236093000Y-81153000D01*
X236093000Y-80378750D01*
X236347000Y-80378750D01*
X236347000Y-81153000D01*
X237121250Y-81153000D01*
X237280000Y-80994250D01*
X237283072Y-80855000D01*
X237270812Y-80730518D01*
X237234502Y-80610820D01*
X237175537Y-80500506D01*
X237096185Y-80403815D01*
X236999494Y-80324463D01*
X236889180Y-80265498D01*
X236769482Y-80229188D01*
X236645000Y-80216928D01*
X236505750Y-80220000D01*
X236347000Y-80378750D01*
X236093000Y-80378750D01*
X235934250Y-80220000D01*
X235795000Y-80216928D01*
X235670518Y-80229188D01*
X235550820Y-80265498D01*
X235440506Y-80324463D01*
X235343815Y-80403815D01*
X235264463Y-80500506D01*
X235205498Y-80610820D01*
X235169188Y-80730518D01*
X235156928Y-80855000D01*
X234743072Y-80855000D01*
X234730812Y-80730518D01*
X234694502Y-80610820D01*
X234635537Y-80500506D01*
X234556185Y-80403815D01*
X234459494Y-80324463D01*
X234349180Y-80265498D01*
X234229482Y-80229188D01*
X234105000Y-80216928D01*
X233255000Y-80216928D01*
X233130518Y-80229188D01*
X233010820Y-80265498D01*
X232900506Y-80324463D01*
X232803815Y-80403815D01*
X232724463Y-80500506D01*
X232665498Y-80610820D01*
X232629188Y-80730518D01*
X232616928Y-80855000D01*
X194103072Y-80855000D01*
X194090812Y-80730518D01*
X194054502Y-80610820D01*
X193995537Y-80500506D01*
X193916185Y-80403815D01*
X193819494Y-80324463D01*
X193709180Y-80265498D01*
X193589482Y-80229188D01*
X193465000Y-80216928D01*
X193325750Y-80220000D01*
X193167000Y-80378750D01*
X192913000Y-80378750D01*
X192754250Y-80220000D01*
X192615000Y-80216928D01*
X192490518Y-80229188D01*
X192370820Y-80265498D01*
X192260506Y-80324463D01*
X192163815Y-80403815D01*
X192084463Y-80500506D01*
X192025498Y-80610820D01*
X191989188Y-80730518D01*
X191976928Y-80855000D01*
X191563072Y-80855000D01*
X191550812Y-80730518D01*
X191514502Y-80610820D01*
X191455537Y-80500506D01*
X191376185Y-80403815D01*
X191279494Y-80324463D01*
X191169180Y-80265498D01*
X191049482Y-80229188D01*
X190925000Y-80216928D01*
X190075000Y-80216928D01*
X189950518Y-80229188D01*
X189830820Y-80265498D01*
X189720506Y-80324463D01*
X189623815Y-80403815D01*
X189544463Y-80500506D01*
X189485498Y-80610820D01*
X189449188Y-80730518D01*
X189436928Y-80855000D01*
X50927000Y-80855000D01*
X50927000Y-76327000D01*
X239903000Y-76327000D01*
X239903000Y-135763000D01*
G37*
%TD.AperFunction*%
%TD*%
M02*
