M48
; DRILL file {KiCad (5.1.9)-1} date 04/28/21 21:36:17
; FORMAT={-:-/ absolute / inch / decimal}
; #@! TF.CreationDate,2021-04-28T21:36:17-07:00
; #@! TF.GenerationSoftware,Kicad,Pcbnew,(5.1.9)-1
FMAT,2
INCH
T1C0.0157
T2C0.0197
T3C0.0276
T4C0.0300
T5C0.0315
T6C0.0394
T7C0.0520
%
G90
G05
T1
X2.6Y-3.85
X2.7Y-3.75
X3.35Y-3.6
X6.15Y-3.7
X6.35Y-3.6
X6.55Y-4.2
X6.6Y-4.1
X6.95Y-4.35
X7.1Y-4.4
T2
X6.9425Y-4.7972
X7.0425Y-4.7972
X7.1425Y-4.7972
X7.5Y-3.2
X7.5Y-3.6
X7.6Y-3.2
X7.6Y-3.6
X9.2Y-3.2
X9.2Y-3.6
X9.3Y-3.2
X9.3Y-3.6
T3
X2.85Y-3.85
X2.85Y-4.15
X5.3Y-4.1
X5.45Y-4.25
X5.45Y-4.55
X5.45Y-4.7
X5.45Y-5.0
X5.6Y-4.1
T4
X2.5Y-4.15
X2.5Y-4.25
X2.5Y-4.35
X4.0535Y-3.4402
X4.0535Y-3.5402
X4.0535Y-3.6402
X4.0535Y-3.7402
X4.0535Y-3.8402
X4.0535Y-3.9402
X4.0535Y-4.0402
X4.0535Y-4.1402
X4.0535Y-4.2402
X4.0535Y-4.3402
X4.0535Y-4.4402
X4.0535Y-4.5402
X4.0535Y-4.6402
X4.0535Y-4.7402
X4.0535Y-4.8402
X5.0535Y-3.4402
X5.0535Y-3.5402
X5.0535Y-3.6402
X5.0535Y-3.7402
X5.0535Y-3.8402
X5.0535Y-3.9402
X5.0535Y-4.0402
X5.0535Y-4.1402
X5.0535Y-4.2402
X5.0535Y-4.3402
X5.0535Y-4.4402
X5.0535Y-4.5402
X5.0535Y-4.6402
X5.0535Y-4.7402
X5.0535Y-4.8402
X6.2Y-4.6
X6.2Y-4.7
X6.2Y-4.8
X6.2Y-4.9
X6.5Y-4.6
X6.5Y-4.7
X6.5Y-4.8
X6.5Y-4.9
T5
X2.9Y-4.2531
X2.9Y-4.45
X6.8031Y-4.1
X7.0Y-4.1
T6
X3.3Y-3.85
X3.3Y-4.4406
X5.8Y-4.1
X6.3906Y-4.1
T7
X2.6531Y-3.35
X2.85Y-3.35
X3.3531Y-3.35
X3.55Y-3.35
X5.3063Y-3.35
X5.5031Y-3.35
X5.7Y-3.35
X6.5531Y-3.35
X6.75Y-3.35
T0
M30
