G04 #@! TF.GenerationSoftware,KiCad,Pcbnew,(5.1.9)-1*
G04 #@! TF.CreationDate,2021-05-12T12:10:18-07:00*
G04 #@! TF.ProjectId,Senior Project - Second Board,53656e69-6f72-4205-9072-6f6a65637420,rev?*
G04 #@! TF.SameCoordinates,Original*
G04 #@! TF.FileFunction,Legend,Top*
G04 #@! TF.FilePolarity,Positive*
%FSLAX46Y46*%
G04 Gerber Fmt 4.6, Leading zero omitted, Abs format (unit mm)*
G04 Created by KiCad (PCBNEW (5.1.9)-1) date 2021-05-12 12:10:18*
%MOMM*%
%LPD*%
G01*
G04 APERTURE LIST*
%ADD10C,0.120000*%
%ADD11C,0.150000*%
%ADD12R,1.600000X1.600000*%
%ADD13C,1.600000*%
%ADD14R,3.960000X1.980000*%
%ADD15O,3.960000X1.980000*%
%ADD16O,1.980000X3.960000*%
%ADD17R,1.980000X3.960000*%
%ADD18C,1.400000*%
%ADD19O,1.400000X1.400000*%
G04 APERTURE END LIST*
D10*
X134807712Y-93690000D02*
X134807712Y-94140000D01*
X134582712Y-93915000D02*
X135032712Y-93915000D01*
X139239740Y-94190000D02*
G75*
G03*
X135000259Y-94190000I-2119740J-1060000D01*
G01*
X139239740Y-96310000D02*
G75*
G02*
X135000259Y-96310000I-2119740J1060000D01*
G01*
X143560000Y-99750000D02*
X143560000Y-110600000D01*
X148660000Y-99750000D02*
X143560000Y-99750000D01*
X148360000Y-100250000D02*
X148660000Y-99750000D01*
X153760000Y-100250000D02*
X148360000Y-100250000D01*
X153510000Y-99750000D02*
X153760000Y-100250000D01*
X153560000Y-99750000D02*
X153510000Y-99750000D01*
X155460000Y-99750000D02*
X153560000Y-99750000D01*
X155210000Y-100250000D02*
X155460000Y-99750000D01*
X156160000Y-100250000D02*
X155210000Y-100250000D01*
X156160000Y-110600000D02*
X156160000Y-100250000D01*
X143560000Y-110600000D02*
X156160000Y-110600000D01*
X137270000Y-88850000D02*
X137270000Y-76250000D01*
X137270000Y-76250000D02*
X126920000Y-76250000D01*
X126920000Y-76250000D02*
X126920000Y-77200000D01*
X126920000Y-77200000D02*
X126420000Y-76950000D01*
X126420000Y-76950000D02*
X126420000Y-78850000D01*
X126420000Y-78850000D02*
X126420000Y-78900000D01*
X126420000Y-78900000D02*
X126920000Y-78650000D01*
X126920000Y-78650000D02*
X126920000Y-84050000D01*
X126920000Y-84050000D02*
X126420000Y-83750000D01*
X126420000Y-83750000D02*
X126420000Y-88850000D01*
X126420000Y-88850000D02*
X137270000Y-88850000D01*
X128270000Y-92380000D02*
X128270000Y-93330000D01*
X128270000Y-98120000D02*
X128270000Y-97170000D01*
X127350000Y-93330000D02*
X127350000Y-97170000D01*
X129190000Y-93330000D02*
X127350000Y-93330000D01*
X129190000Y-97170000D02*
X129190000Y-93330000D01*
X127350000Y-97170000D02*
X129190000Y-97170000D01*
X129190000Y-108600000D02*
X129190000Y-104760000D01*
X127350000Y-108600000D02*
X127350000Y-104760000D01*
D11*
X136953333Y-92107142D02*
X136905714Y-92154761D01*
X136762857Y-92202380D01*
X136667619Y-92202380D01*
X136524761Y-92154761D01*
X136429523Y-92059523D01*
X136381904Y-91964285D01*
X136334285Y-91773809D01*
X136334285Y-91630952D01*
X136381904Y-91440476D01*
X136429523Y-91345238D01*
X136524761Y-91250000D01*
X136667619Y-91202380D01*
X136762857Y-91202380D01*
X136905714Y-91250000D01*
X136953333Y-91297619D01*
X137858095Y-91202380D02*
X137381904Y-91202380D01*
X137334285Y-91678571D01*
X137381904Y-91630952D01*
X137477142Y-91583333D01*
X137715238Y-91583333D01*
X137810476Y-91630952D01*
X137858095Y-91678571D01*
X137905714Y-91773809D01*
X137905714Y-92011904D01*
X137858095Y-92107142D01*
X137810476Y-92154761D01*
X137715238Y-92202380D01*
X137477142Y-92202380D01*
X137381904Y-92154761D01*
X137334285Y-92107142D01*
X142322380Y-110203333D02*
X143036666Y-110203333D01*
X143179523Y-110250952D01*
X143274761Y-110346190D01*
X143322380Y-110489047D01*
X143322380Y-110584285D01*
X143322380Y-109203333D02*
X143322380Y-109774761D01*
X143322380Y-109489047D02*
X142322380Y-109489047D01*
X142465238Y-109584285D01*
X142560476Y-109679523D01*
X142608095Y-109774761D01*
X126802380Y-95416666D02*
X126326190Y-95750000D01*
X126802380Y-95988095D02*
X125802380Y-95988095D01*
X125802380Y-95607142D01*
X125850000Y-95511904D01*
X125897619Y-95464285D01*
X125992857Y-95416666D01*
X126135714Y-95416666D01*
X126230952Y-95464285D01*
X126278571Y-95511904D01*
X126326190Y-95607142D01*
X126326190Y-95988095D01*
X126802380Y-94464285D02*
X126802380Y-95035714D01*
X126802380Y-94750000D02*
X125802380Y-94750000D01*
X125945238Y-94845238D01*
X126040476Y-94940476D01*
X126088095Y-95035714D01*
X126802380Y-106846666D02*
X126326190Y-107180000D01*
X126802380Y-107418095D02*
X125802380Y-107418095D01*
X125802380Y-107037142D01*
X125850000Y-106941904D01*
X125897619Y-106894285D01*
X125992857Y-106846666D01*
X126135714Y-106846666D01*
X126230952Y-106894285D01*
X126278571Y-106941904D01*
X126326190Y-107037142D01*
X126326190Y-107418095D01*
X125897619Y-106465714D02*
X125850000Y-106418095D01*
X125802380Y-106322857D01*
X125802380Y-106084761D01*
X125850000Y-105989523D01*
X125897619Y-105941904D01*
X125992857Y-105894285D01*
X126088095Y-105894285D01*
X126230952Y-105941904D01*
X126802380Y-106513333D01*
X126802380Y-105894285D01*
%LPC*%
D12*
X134620000Y-95250000D03*
D13*
X139620000Y-95250000D03*
D14*
X149860000Y-107950000D03*
D15*
X149860000Y-102950000D03*
D16*
X129620000Y-82550000D03*
D17*
X134620000Y-82550000D03*
D18*
X128270000Y-99060000D03*
D19*
X128270000Y-91440000D03*
D18*
X128270000Y-109220000D03*
D19*
X128270000Y-104140000D03*
M02*
