G04 #@! TF.GenerationSoftware,KiCad,Pcbnew,(5.1.9)-1*
G04 #@! TF.CreationDate,2021-05-12T12:10:18-07:00*
G04 #@! TF.ProjectId,Senior Project - Second Board,53656e69-6f72-4205-9072-6f6a65637420,rev?*
G04 #@! TF.SameCoordinates,Original*
G04 #@! TF.FileFunction,Copper,L1,Top*
G04 #@! TF.FilePolarity,Positive*
%FSLAX46Y46*%
G04 Gerber Fmt 4.6, Leading zero omitted, Abs format (unit mm)*
G04 Created by KiCad (PCBNEW (5.1.9)-1) date 2021-05-12 12:10:18*
%MOMM*%
%LPD*%
G01*
G04 APERTURE LIST*
G04 #@! TA.AperFunction,ComponentPad*
%ADD10R,1.600000X1.600000*%
G04 #@! TD*
G04 #@! TA.AperFunction,ComponentPad*
%ADD11C,1.600000*%
G04 #@! TD*
G04 #@! TA.AperFunction,ComponentPad*
%ADD12R,3.960000X1.980000*%
G04 #@! TD*
G04 #@! TA.AperFunction,ComponentPad*
%ADD13O,3.960000X1.980000*%
G04 #@! TD*
G04 #@! TA.AperFunction,ComponentPad*
%ADD14O,1.980000X3.960000*%
G04 #@! TD*
G04 #@! TA.AperFunction,ComponentPad*
%ADD15R,1.980000X3.960000*%
G04 #@! TD*
G04 #@! TA.AperFunction,ComponentPad*
%ADD16C,1.400000*%
G04 #@! TD*
G04 #@! TA.AperFunction,ComponentPad*
%ADD17O,1.400000X1.400000*%
G04 #@! TD*
G04 #@! TA.AperFunction,ViaPad*
%ADD18C,0.800000*%
G04 #@! TD*
G04 #@! TA.AperFunction,Conductor*
%ADD19C,0.250000*%
G04 #@! TD*
G04 #@! TA.AperFunction,Conductor*
%ADD20C,0.254000*%
G04 #@! TD*
G04 #@! TA.AperFunction,Conductor*
%ADD21C,0.100000*%
G04 #@! TD*
G04 APERTURE END LIST*
D10*
X134620000Y-95250000D03*
D11*
X139620000Y-95250000D03*
D12*
X149860000Y-107950000D03*
D13*
X149860000Y-102950000D03*
D14*
X129620000Y-82550000D03*
D15*
X134620000Y-82550000D03*
D16*
X128270000Y-99060000D03*
D17*
X128270000Y-91440000D03*
D16*
X128270000Y-109220000D03*
D17*
X128270000Y-104140000D03*
D18*
X134620000Y-90170000D03*
D19*
X130810000Y-91440000D02*
X134620000Y-95250000D01*
X128270000Y-91440000D02*
X130810000Y-91440000D01*
X130810000Y-86360000D02*
X134620000Y-82550000D01*
X130810000Y-91440000D02*
X130810000Y-86360000D01*
X134620000Y-90250000D02*
X134620000Y-90170000D01*
X139620000Y-95250000D02*
X134620000Y-90250000D01*
X130730000Y-104140000D02*
X139620000Y-95250000D01*
X128270000Y-104140000D02*
X130730000Y-104140000D01*
X142160000Y-95250000D02*
X149860000Y-102950000D01*
X139620000Y-95250000D02*
X142160000Y-95250000D01*
X127244999Y-108194999D02*
X128270000Y-109220000D01*
X127244999Y-100085001D02*
X127244999Y-108194999D01*
X128270000Y-99060000D02*
X127244999Y-100085001D01*
X148590000Y-109220000D02*
X149860000Y-107950000D01*
X128270000Y-109220000D02*
X148590000Y-109220000D01*
D20*
X158623000Y-114173000D02*
X124587000Y-114173000D01*
X124587000Y-100085001D01*
X126481323Y-100085001D01*
X126484999Y-100122323D01*
X126485000Y-108157667D01*
X126481323Y-108194999D01*
X126495997Y-108343984D01*
X126539453Y-108487245D01*
X126610025Y-108619275D01*
X126681200Y-108706001D01*
X126704999Y-108735000D01*
X126733997Y-108758798D01*
X126956355Y-108981156D01*
X126935000Y-109088514D01*
X126935000Y-109351486D01*
X126986304Y-109609405D01*
X127086939Y-109852359D01*
X127233038Y-110071013D01*
X127418987Y-110256962D01*
X127637641Y-110403061D01*
X127880595Y-110503696D01*
X128138514Y-110555000D01*
X128401486Y-110555000D01*
X128659405Y-110503696D01*
X128902359Y-110403061D01*
X129121013Y-110256962D01*
X129306962Y-110071013D01*
X129367775Y-109980000D01*
X148552678Y-109980000D01*
X148590000Y-109983676D01*
X148627322Y-109980000D01*
X148627333Y-109980000D01*
X148738986Y-109969003D01*
X148882247Y-109925546D01*
X149014276Y-109854974D01*
X149130001Y-109760001D01*
X149153804Y-109730997D01*
X149306729Y-109578072D01*
X151840000Y-109578072D01*
X151964482Y-109565812D01*
X152084180Y-109529502D01*
X152194494Y-109470537D01*
X152291185Y-109391185D01*
X152370537Y-109294494D01*
X152429502Y-109184180D01*
X152465812Y-109064482D01*
X152478072Y-108940000D01*
X152478072Y-106960000D01*
X152465812Y-106835518D01*
X152429502Y-106715820D01*
X152370537Y-106605506D01*
X152291185Y-106508815D01*
X152194494Y-106429463D01*
X152084180Y-106370498D01*
X151964482Y-106334188D01*
X151840000Y-106321928D01*
X147880000Y-106321928D01*
X147755518Y-106334188D01*
X147635820Y-106370498D01*
X147525506Y-106429463D01*
X147428815Y-106508815D01*
X147349463Y-106605506D01*
X147290498Y-106715820D01*
X147254188Y-106835518D01*
X147241928Y-106960000D01*
X147241928Y-108460000D01*
X129367775Y-108460000D01*
X129306962Y-108368987D01*
X129121013Y-108183038D01*
X128902359Y-108036939D01*
X128659405Y-107936304D01*
X128401486Y-107885000D01*
X128138514Y-107885000D01*
X128031156Y-107906355D01*
X128004999Y-107880198D01*
X128004999Y-105391870D01*
X128143000Y-105309374D01*
X128143000Y-104267000D01*
X128397000Y-104267000D01*
X128397000Y-105309374D01*
X128603329Y-105432716D01*
X128711044Y-105400047D01*
X128948392Y-105289792D01*
X129159670Y-105135351D01*
X129336759Y-104942660D01*
X129472853Y-104719123D01*
X129562722Y-104473330D01*
X129440201Y-104267000D01*
X128397000Y-104267000D01*
X128143000Y-104267000D01*
X128123000Y-104267000D01*
X128123000Y-104013000D01*
X128143000Y-104013000D01*
X128143000Y-102970626D01*
X128397000Y-102970626D01*
X128397000Y-104013000D01*
X129440201Y-104013000D01*
X129562722Y-103806670D01*
X129472853Y-103560877D01*
X129336759Y-103337340D01*
X129328971Y-103328865D01*
X147289782Y-103328865D01*
X147320095Y-103454528D01*
X147448304Y-103747205D01*
X147631148Y-104009246D01*
X147861601Y-104230581D01*
X148130806Y-104402704D01*
X148428418Y-104519000D01*
X148743000Y-104575000D01*
X149733000Y-104575000D01*
X149733000Y-103077000D01*
X149987000Y-103077000D01*
X149987000Y-104575000D01*
X150977000Y-104575000D01*
X151291582Y-104519000D01*
X151589194Y-104402704D01*
X151858399Y-104230581D01*
X152088852Y-104009246D01*
X152271696Y-103747205D01*
X152399905Y-103454528D01*
X152430218Y-103328865D01*
X152310740Y-103077000D01*
X149987000Y-103077000D01*
X149733000Y-103077000D01*
X147409260Y-103077000D01*
X147289782Y-103328865D01*
X129328971Y-103328865D01*
X129159670Y-103144649D01*
X128948392Y-102990208D01*
X128711044Y-102879953D01*
X128603329Y-102847284D01*
X128397000Y-102970626D01*
X128143000Y-102970626D01*
X128004999Y-102888130D01*
X128004999Y-102571135D01*
X147289782Y-102571135D01*
X147409260Y-102823000D01*
X149733000Y-102823000D01*
X149733000Y-101325000D01*
X149987000Y-101325000D01*
X149987000Y-102823000D01*
X152310740Y-102823000D01*
X152430218Y-102571135D01*
X152399905Y-102445472D01*
X152271696Y-102152795D01*
X152088852Y-101890754D01*
X151858399Y-101669419D01*
X151589194Y-101497296D01*
X151291582Y-101381000D01*
X150977000Y-101325000D01*
X149987000Y-101325000D01*
X149733000Y-101325000D01*
X148743000Y-101325000D01*
X148428418Y-101381000D01*
X148130806Y-101497296D01*
X147861601Y-101669419D01*
X147631148Y-101890754D01*
X147448304Y-102152795D01*
X147320095Y-102445472D01*
X147289782Y-102571135D01*
X128004999Y-102571135D01*
X128004999Y-100399802D01*
X128031156Y-100373645D01*
X128138514Y-100395000D01*
X128401486Y-100395000D01*
X128659405Y-100343696D01*
X128902359Y-100243061D01*
X129121013Y-100096962D01*
X129306962Y-99911013D01*
X129453061Y-99692359D01*
X129553696Y-99449405D01*
X129605000Y-99191486D01*
X129605000Y-98928514D01*
X129553696Y-98670595D01*
X129453061Y-98427641D01*
X129306962Y-98208987D01*
X129121013Y-98023038D01*
X128902359Y-97876939D01*
X128659405Y-97776304D01*
X128401486Y-97725000D01*
X128138514Y-97725000D01*
X127880595Y-97776304D01*
X127637641Y-97876939D01*
X127418987Y-98023038D01*
X127233038Y-98208987D01*
X127086939Y-98427641D01*
X126986304Y-98670595D01*
X126935000Y-98928514D01*
X126935000Y-99191486D01*
X126956355Y-99298844D01*
X126734001Y-99521197D01*
X126704998Y-99545000D01*
X126649870Y-99612175D01*
X126610025Y-99660725D01*
X126539454Y-99792754D01*
X126539453Y-99792755D01*
X126495996Y-99936016D01*
X126484999Y-100047669D01*
X126484999Y-100047679D01*
X126481323Y-100085001D01*
X124587000Y-100085001D01*
X124587000Y-91308514D01*
X126935000Y-91308514D01*
X126935000Y-91571486D01*
X126986304Y-91829405D01*
X127086939Y-92072359D01*
X127233038Y-92291013D01*
X127418987Y-92476962D01*
X127637641Y-92623061D01*
X127880595Y-92723696D01*
X128138514Y-92775000D01*
X128401486Y-92775000D01*
X128659405Y-92723696D01*
X128902359Y-92623061D01*
X129121013Y-92476962D01*
X129306962Y-92291013D01*
X129367775Y-92200000D01*
X130495199Y-92200000D01*
X133181928Y-94886730D01*
X133181928Y-96050000D01*
X133194188Y-96174482D01*
X133230498Y-96294180D01*
X133289463Y-96404494D01*
X133368815Y-96501185D01*
X133465506Y-96580537D01*
X133575820Y-96639502D01*
X133695518Y-96675812D01*
X133820000Y-96688072D01*
X135420000Y-96688072D01*
X135544482Y-96675812D01*
X135664180Y-96639502D01*
X135774494Y-96580537D01*
X135871185Y-96501185D01*
X135950537Y-96404494D01*
X136009502Y-96294180D01*
X136025117Y-96242702D01*
X138806903Y-96242702D01*
X138878486Y-96486671D01*
X139133996Y-96607571D01*
X139408184Y-96676300D01*
X139690512Y-96690217D01*
X139970130Y-96648787D01*
X140236292Y-96553603D01*
X140361514Y-96486671D01*
X140433097Y-96242702D01*
X139620000Y-95429605D01*
X138806903Y-96242702D01*
X136025117Y-96242702D01*
X136045812Y-96174482D01*
X136058072Y-96050000D01*
X136058072Y-95320512D01*
X138179783Y-95320512D01*
X138221213Y-95600130D01*
X138316397Y-95866292D01*
X138383329Y-95991514D01*
X138627298Y-96063097D01*
X139440395Y-95250000D01*
X139799605Y-95250000D01*
X140612702Y-96063097D01*
X140856671Y-95991514D01*
X140977571Y-95736004D01*
X141046300Y-95461816D01*
X141060217Y-95179488D01*
X141018787Y-94899870D01*
X140923603Y-94633708D01*
X140856671Y-94508486D01*
X140612702Y-94436903D01*
X139799605Y-95250000D01*
X139440395Y-95250000D01*
X138627298Y-94436903D01*
X138383329Y-94508486D01*
X138262429Y-94763996D01*
X138193700Y-95038184D01*
X138179783Y-95320512D01*
X136058072Y-95320512D01*
X136058072Y-94450000D01*
X136045812Y-94325518D01*
X136025118Y-94257298D01*
X138806903Y-94257298D01*
X139620000Y-95070395D01*
X140433097Y-94257298D01*
X140361514Y-94013329D01*
X140106004Y-93892429D01*
X139831816Y-93823700D01*
X139549488Y-93809783D01*
X139269870Y-93851213D01*
X139003708Y-93946397D01*
X138878486Y-94013329D01*
X138806903Y-94257298D01*
X136025118Y-94257298D01*
X136009502Y-94205820D01*
X135950537Y-94095506D01*
X135871185Y-93998815D01*
X135774494Y-93919463D01*
X135664180Y-93860498D01*
X135544482Y-93824188D01*
X135420000Y-93811928D01*
X134256730Y-93811928D01*
X131570000Y-91125199D01*
X131570000Y-86674801D01*
X133225392Y-85019410D01*
X133275506Y-85060537D01*
X133385820Y-85119502D01*
X133505518Y-85155812D01*
X133630000Y-85168072D01*
X135610000Y-85168072D01*
X135734482Y-85155812D01*
X135854180Y-85119502D01*
X135964494Y-85060537D01*
X136061185Y-84981185D01*
X136140537Y-84884494D01*
X136199502Y-84774180D01*
X136235812Y-84654482D01*
X136248072Y-84530000D01*
X136248072Y-80570000D01*
X136235812Y-80445518D01*
X136199502Y-80325820D01*
X136140537Y-80215506D01*
X136061185Y-80118815D01*
X135964494Y-80039463D01*
X135854180Y-79980498D01*
X135734482Y-79944188D01*
X135610000Y-79931928D01*
X133630000Y-79931928D01*
X133505518Y-79944188D01*
X133385820Y-79980498D01*
X133275506Y-80039463D01*
X133178815Y-80118815D01*
X133099463Y-80215506D01*
X133040498Y-80325820D01*
X133004188Y-80445518D01*
X132991928Y-80570000D01*
X132991928Y-83103270D01*
X130298998Y-85796201D01*
X130270000Y-85819999D01*
X130246202Y-85848997D01*
X130246201Y-85848998D01*
X130175026Y-85935724D01*
X130104454Y-86067754D01*
X130060998Y-86211015D01*
X130046324Y-86360000D01*
X130050001Y-86397332D01*
X130050000Y-90680000D01*
X129367775Y-90680000D01*
X129306962Y-90588987D01*
X129121013Y-90403038D01*
X128902359Y-90256939D01*
X128659405Y-90156304D01*
X128401486Y-90105000D01*
X128138514Y-90105000D01*
X127880595Y-90156304D01*
X127637641Y-90256939D01*
X127418987Y-90403038D01*
X127233038Y-90588987D01*
X127086939Y-90807641D01*
X126986304Y-91050595D01*
X126935000Y-91308514D01*
X124587000Y-91308514D01*
X124587000Y-82677000D01*
X127995000Y-82677000D01*
X127995000Y-83667000D01*
X128051000Y-83981582D01*
X128167296Y-84279194D01*
X128339419Y-84548399D01*
X128560754Y-84778852D01*
X128822795Y-84961696D01*
X129115472Y-85089905D01*
X129241135Y-85120218D01*
X129493000Y-85000740D01*
X129493000Y-82677000D01*
X129747000Y-82677000D01*
X129747000Y-85000740D01*
X129998865Y-85120218D01*
X130124528Y-85089905D01*
X130417205Y-84961696D01*
X130679246Y-84778852D01*
X130900581Y-84548399D01*
X131072704Y-84279194D01*
X131189000Y-83981582D01*
X131245000Y-83667000D01*
X131245000Y-82677000D01*
X129747000Y-82677000D01*
X129493000Y-82677000D01*
X127995000Y-82677000D01*
X124587000Y-82677000D01*
X124587000Y-81433000D01*
X127995000Y-81433000D01*
X127995000Y-82423000D01*
X129493000Y-82423000D01*
X129493000Y-80099260D01*
X129747000Y-80099260D01*
X129747000Y-82423000D01*
X131245000Y-82423000D01*
X131245000Y-81433000D01*
X131189000Y-81118418D01*
X131072704Y-80820806D01*
X130900581Y-80551601D01*
X130679246Y-80321148D01*
X130417205Y-80138304D01*
X130124528Y-80010095D01*
X129998865Y-79979782D01*
X129747000Y-80099260D01*
X129493000Y-80099260D01*
X129241135Y-79979782D01*
X129115472Y-80010095D01*
X128822795Y-80138304D01*
X128560754Y-80321148D01*
X128339419Y-80551601D01*
X128167296Y-80820806D01*
X128051000Y-81118418D01*
X127995000Y-81433000D01*
X124587000Y-81433000D01*
X124587000Y-73787000D01*
X158623000Y-73787000D01*
X158623000Y-114173000D01*
G04 #@! TA.AperFunction,Conductor*
D21*
G36*
X158623000Y-114173000D02*
G01*
X124587000Y-114173000D01*
X124587000Y-100085001D01*
X126481323Y-100085001D01*
X126484999Y-100122323D01*
X126485000Y-108157667D01*
X126481323Y-108194999D01*
X126495997Y-108343984D01*
X126539453Y-108487245D01*
X126610025Y-108619275D01*
X126681200Y-108706001D01*
X126704999Y-108735000D01*
X126733997Y-108758798D01*
X126956355Y-108981156D01*
X126935000Y-109088514D01*
X126935000Y-109351486D01*
X126986304Y-109609405D01*
X127086939Y-109852359D01*
X127233038Y-110071013D01*
X127418987Y-110256962D01*
X127637641Y-110403061D01*
X127880595Y-110503696D01*
X128138514Y-110555000D01*
X128401486Y-110555000D01*
X128659405Y-110503696D01*
X128902359Y-110403061D01*
X129121013Y-110256962D01*
X129306962Y-110071013D01*
X129367775Y-109980000D01*
X148552678Y-109980000D01*
X148590000Y-109983676D01*
X148627322Y-109980000D01*
X148627333Y-109980000D01*
X148738986Y-109969003D01*
X148882247Y-109925546D01*
X149014276Y-109854974D01*
X149130001Y-109760001D01*
X149153804Y-109730997D01*
X149306729Y-109578072D01*
X151840000Y-109578072D01*
X151964482Y-109565812D01*
X152084180Y-109529502D01*
X152194494Y-109470537D01*
X152291185Y-109391185D01*
X152370537Y-109294494D01*
X152429502Y-109184180D01*
X152465812Y-109064482D01*
X152478072Y-108940000D01*
X152478072Y-106960000D01*
X152465812Y-106835518D01*
X152429502Y-106715820D01*
X152370537Y-106605506D01*
X152291185Y-106508815D01*
X152194494Y-106429463D01*
X152084180Y-106370498D01*
X151964482Y-106334188D01*
X151840000Y-106321928D01*
X147880000Y-106321928D01*
X147755518Y-106334188D01*
X147635820Y-106370498D01*
X147525506Y-106429463D01*
X147428815Y-106508815D01*
X147349463Y-106605506D01*
X147290498Y-106715820D01*
X147254188Y-106835518D01*
X147241928Y-106960000D01*
X147241928Y-108460000D01*
X129367775Y-108460000D01*
X129306962Y-108368987D01*
X129121013Y-108183038D01*
X128902359Y-108036939D01*
X128659405Y-107936304D01*
X128401486Y-107885000D01*
X128138514Y-107885000D01*
X128031156Y-107906355D01*
X128004999Y-107880198D01*
X128004999Y-105391870D01*
X128143000Y-105309374D01*
X128143000Y-104267000D01*
X128397000Y-104267000D01*
X128397000Y-105309374D01*
X128603329Y-105432716D01*
X128711044Y-105400047D01*
X128948392Y-105289792D01*
X129159670Y-105135351D01*
X129336759Y-104942660D01*
X129472853Y-104719123D01*
X129562722Y-104473330D01*
X129440201Y-104267000D01*
X128397000Y-104267000D01*
X128143000Y-104267000D01*
X128123000Y-104267000D01*
X128123000Y-104013000D01*
X128143000Y-104013000D01*
X128143000Y-102970626D01*
X128397000Y-102970626D01*
X128397000Y-104013000D01*
X129440201Y-104013000D01*
X129562722Y-103806670D01*
X129472853Y-103560877D01*
X129336759Y-103337340D01*
X129328971Y-103328865D01*
X147289782Y-103328865D01*
X147320095Y-103454528D01*
X147448304Y-103747205D01*
X147631148Y-104009246D01*
X147861601Y-104230581D01*
X148130806Y-104402704D01*
X148428418Y-104519000D01*
X148743000Y-104575000D01*
X149733000Y-104575000D01*
X149733000Y-103077000D01*
X149987000Y-103077000D01*
X149987000Y-104575000D01*
X150977000Y-104575000D01*
X151291582Y-104519000D01*
X151589194Y-104402704D01*
X151858399Y-104230581D01*
X152088852Y-104009246D01*
X152271696Y-103747205D01*
X152399905Y-103454528D01*
X152430218Y-103328865D01*
X152310740Y-103077000D01*
X149987000Y-103077000D01*
X149733000Y-103077000D01*
X147409260Y-103077000D01*
X147289782Y-103328865D01*
X129328971Y-103328865D01*
X129159670Y-103144649D01*
X128948392Y-102990208D01*
X128711044Y-102879953D01*
X128603329Y-102847284D01*
X128397000Y-102970626D01*
X128143000Y-102970626D01*
X128004999Y-102888130D01*
X128004999Y-102571135D01*
X147289782Y-102571135D01*
X147409260Y-102823000D01*
X149733000Y-102823000D01*
X149733000Y-101325000D01*
X149987000Y-101325000D01*
X149987000Y-102823000D01*
X152310740Y-102823000D01*
X152430218Y-102571135D01*
X152399905Y-102445472D01*
X152271696Y-102152795D01*
X152088852Y-101890754D01*
X151858399Y-101669419D01*
X151589194Y-101497296D01*
X151291582Y-101381000D01*
X150977000Y-101325000D01*
X149987000Y-101325000D01*
X149733000Y-101325000D01*
X148743000Y-101325000D01*
X148428418Y-101381000D01*
X148130806Y-101497296D01*
X147861601Y-101669419D01*
X147631148Y-101890754D01*
X147448304Y-102152795D01*
X147320095Y-102445472D01*
X147289782Y-102571135D01*
X128004999Y-102571135D01*
X128004999Y-100399802D01*
X128031156Y-100373645D01*
X128138514Y-100395000D01*
X128401486Y-100395000D01*
X128659405Y-100343696D01*
X128902359Y-100243061D01*
X129121013Y-100096962D01*
X129306962Y-99911013D01*
X129453061Y-99692359D01*
X129553696Y-99449405D01*
X129605000Y-99191486D01*
X129605000Y-98928514D01*
X129553696Y-98670595D01*
X129453061Y-98427641D01*
X129306962Y-98208987D01*
X129121013Y-98023038D01*
X128902359Y-97876939D01*
X128659405Y-97776304D01*
X128401486Y-97725000D01*
X128138514Y-97725000D01*
X127880595Y-97776304D01*
X127637641Y-97876939D01*
X127418987Y-98023038D01*
X127233038Y-98208987D01*
X127086939Y-98427641D01*
X126986304Y-98670595D01*
X126935000Y-98928514D01*
X126935000Y-99191486D01*
X126956355Y-99298844D01*
X126734001Y-99521197D01*
X126704998Y-99545000D01*
X126649870Y-99612175D01*
X126610025Y-99660725D01*
X126539454Y-99792754D01*
X126539453Y-99792755D01*
X126495996Y-99936016D01*
X126484999Y-100047669D01*
X126484999Y-100047679D01*
X126481323Y-100085001D01*
X124587000Y-100085001D01*
X124587000Y-91308514D01*
X126935000Y-91308514D01*
X126935000Y-91571486D01*
X126986304Y-91829405D01*
X127086939Y-92072359D01*
X127233038Y-92291013D01*
X127418987Y-92476962D01*
X127637641Y-92623061D01*
X127880595Y-92723696D01*
X128138514Y-92775000D01*
X128401486Y-92775000D01*
X128659405Y-92723696D01*
X128902359Y-92623061D01*
X129121013Y-92476962D01*
X129306962Y-92291013D01*
X129367775Y-92200000D01*
X130495199Y-92200000D01*
X133181928Y-94886730D01*
X133181928Y-96050000D01*
X133194188Y-96174482D01*
X133230498Y-96294180D01*
X133289463Y-96404494D01*
X133368815Y-96501185D01*
X133465506Y-96580537D01*
X133575820Y-96639502D01*
X133695518Y-96675812D01*
X133820000Y-96688072D01*
X135420000Y-96688072D01*
X135544482Y-96675812D01*
X135664180Y-96639502D01*
X135774494Y-96580537D01*
X135871185Y-96501185D01*
X135950537Y-96404494D01*
X136009502Y-96294180D01*
X136025117Y-96242702D01*
X138806903Y-96242702D01*
X138878486Y-96486671D01*
X139133996Y-96607571D01*
X139408184Y-96676300D01*
X139690512Y-96690217D01*
X139970130Y-96648787D01*
X140236292Y-96553603D01*
X140361514Y-96486671D01*
X140433097Y-96242702D01*
X139620000Y-95429605D01*
X138806903Y-96242702D01*
X136025117Y-96242702D01*
X136045812Y-96174482D01*
X136058072Y-96050000D01*
X136058072Y-95320512D01*
X138179783Y-95320512D01*
X138221213Y-95600130D01*
X138316397Y-95866292D01*
X138383329Y-95991514D01*
X138627298Y-96063097D01*
X139440395Y-95250000D01*
X139799605Y-95250000D01*
X140612702Y-96063097D01*
X140856671Y-95991514D01*
X140977571Y-95736004D01*
X141046300Y-95461816D01*
X141060217Y-95179488D01*
X141018787Y-94899870D01*
X140923603Y-94633708D01*
X140856671Y-94508486D01*
X140612702Y-94436903D01*
X139799605Y-95250000D01*
X139440395Y-95250000D01*
X138627298Y-94436903D01*
X138383329Y-94508486D01*
X138262429Y-94763996D01*
X138193700Y-95038184D01*
X138179783Y-95320512D01*
X136058072Y-95320512D01*
X136058072Y-94450000D01*
X136045812Y-94325518D01*
X136025118Y-94257298D01*
X138806903Y-94257298D01*
X139620000Y-95070395D01*
X140433097Y-94257298D01*
X140361514Y-94013329D01*
X140106004Y-93892429D01*
X139831816Y-93823700D01*
X139549488Y-93809783D01*
X139269870Y-93851213D01*
X139003708Y-93946397D01*
X138878486Y-94013329D01*
X138806903Y-94257298D01*
X136025118Y-94257298D01*
X136009502Y-94205820D01*
X135950537Y-94095506D01*
X135871185Y-93998815D01*
X135774494Y-93919463D01*
X135664180Y-93860498D01*
X135544482Y-93824188D01*
X135420000Y-93811928D01*
X134256730Y-93811928D01*
X131570000Y-91125199D01*
X131570000Y-86674801D01*
X133225392Y-85019410D01*
X133275506Y-85060537D01*
X133385820Y-85119502D01*
X133505518Y-85155812D01*
X133630000Y-85168072D01*
X135610000Y-85168072D01*
X135734482Y-85155812D01*
X135854180Y-85119502D01*
X135964494Y-85060537D01*
X136061185Y-84981185D01*
X136140537Y-84884494D01*
X136199502Y-84774180D01*
X136235812Y-84654482D01*
X136248072Y-84530000D01*
X136248072Y-80570000D01*
X136235812Y-80445518D01*
X136199502Y-80325820D01*
X136140537Y-80215506D01*
X136061185Y-80118815D01*
X135964494Y-80039463D01*
X135854180Y-79980498D01*
X135734482Y-79944188D01*
X135610000Y-79931928D01*
X133630000Y-79931928D01*
X133505518Y-79944188D01*
X133385820Y-79980498D01*
X133275506Y-80039463D01*
X133178815Y-80118815D01*
X133099463Y-80215506D01*
X133040498Y-80325820D01*
X133004188Y-80445518D01*
X132991928Y-80570000D01*
X132991928Y-83103270D01*
X130298998Y-85796201D01*
X130270000Y-85819999D01*
X130246202Y-85848997D01*
X130246201Y-85848998D01*
X130175026Y-85935724D01*
X130104454Y-86067754D01*
X130060998Y-86211015D01*
X130046324Y-86360000D01*
X130050001Y-86397332D01*
X130050000Y-90680000D01*
X129367775Y-90680000D01*
X129306962Y-90588987D01*
X129121013Y-90403038D01*
X128902359Y-90256939D01*
X128659405Y-90156304D01*
X128401486Y-90105000D01*
X128138514Y-90105000D01*
X127880595Y-90156304D01*
X127637641Y-90256939D01*
X127418987Y-90403038D01*
X127233038Y-90588987D01*
X127086939Y-90807641D01*
X126986304Y-91050595D01*
X126935000Y-91308514D01*
X124587000Y-91308514D01*
X124587000Y-82677000D01*
X127995000Y-82677000D01*
X127995000Y-83667000D01*
X128051000Y-83981582D01*
X128167296Y-84279194D01*
X128339419Y-84548399D01*
X128560754Y-84778852D01*
X128822795Y-84961696D01*
X129115472Y-85089905D01*
X129241135Y-85120218D01*
X129493000Y-85000740D01*
X129493000Y-82677000D01*
X129747000Y-82677000D01*
X129747000Y-85000740D01*
X129998865Y-85120218D01*
X130124528Y-85089905D01*
X130417205Y-84961696D01*
X130679246Y-84778852D01*
X130900581Y-84548399D01*
X131072704Y-84279194D01*
X131189000Y-83981582D01*
X131245000Y-83667000D01*
X131245000Y-82677000D01*
X129747000Y-82677000D01*
X129493000Y-82677000D01*
X127995000Y-82677000D01*
X124587000Y-82677000D01*
X124587000Y-81433000D01*
X127995000Y-81433000D01*
X127995000Y-82423000D01*
X129493000Y-82423000D01*
X129493000Y-80099260D01*
X129747000Y-80099260D01*
X129747000Y-82423000D01*
X131245000Y-82423000D01*
X131245000Y-81433000D01*
X131189000Y-81118418D01*
X131072704Y-80820806D01*
X130900581Y-80551601D01*
X130679246Y-80321148D01*
X130417205Y-80138304D01*
X130124528Y-80010095D01*
X129998865Y-79979782D01*
X129747000Y-80099260D01*
X129493000Y-80099260D01*
X129241135Y-79979782D01*
X129115472Y-80010095D01*
X128822795Y-80138304D01*
X128560754Y-80321148D01*
X128339419Y-80551601D01*
X128167296Y-80820806D01*
X128051000Y-81118418D01*
X127995000Y-81433000D01*
X124587000Y-81433000D01*
X124587000Y-73787000D01*
X158623000Y-73787000D01*
X158623000Y-114173000D01*
G37*
G04 #@! TD.AperFunction*
M02*
