M48
; DRILL file {KiCad (5.1.9)-1} date 05/17/21 17:45:43
; FORMAT={-:-/ absolute / metric / decimal}
; #@! TF.CreationDate,2021-05-17T17:45:43-07:00
; #@! TF.GenerationSoftware,Kicad,Pcbnew,(5.1.9)-1
; #@! TF.FileFunction,Plated,1,2,PTH
FMAT,2
METRIC
T1C0.400
T2C0.700
T3C0.762
T4C0.800
T5C1.000
T6C1.320
%
G90
G05
T1
X66.04Y-97.79
X68.58Y-95.25
X85.09Y-91.44
X156.21Y-93.98
X161.29Y-91.44
X166.37Y-106.68
X167.64Y-104.14
X176.53Y-110.49
X180.34Y-111.76
T2
X72.39Y-97.79
X72.39Y-105.41
X134.62Y-104.14
X138.43Y-107.95
X138.43Y-115.57
X138.43Y-119.38
X138.43Y-127.0
X142.24Y-104.14
T3
X63.5Y-105.41
X63.5Y-107.95
X63.5Y-110.49
X102.96Y-87.38
X102.96Y-89.92
X102.96Y-92.46
X102.96Y-95.0
X102.96Y-97.54
X102.96Y-100.08
X102.96Y-102.62
X102.96Y-105.16
X102.96Y-107.7
X102.96Y-110.24
X102.96Y-112.78
X102.96Y-115.32
X102.96Y-117.86
X102.96Y-120.4
X102.96Y-122.94
X128.36Y-87.38
X128.36Y-89.92
X128.36Y-92.46
X128.36Y-95.0
X128.36Y-97.54
X128.36Y-100.08
X128.36Y-102.62
X128.36Y-105.16
X128.36Y-107.7
X128.36Y-110.24
X128.36Y-112.78
X128.36Y-115.32
X128.36Y-117.86
X128.36Y-120.4
X128.36Y-122.94
X157.48Y-116.84
X157.48Y-119.38
X157.48Y-121.92
X157.48Y-124.46
X165.1Y-116.84
X165.1Y-119.38
X165.1Y-121.92
X165.1Y-124.46
T4
X73.66Y-108.03
X73.66Y-113.03
X172.8Y-104.14
X176.276Y-121.666
X177.8Y-104.14
X178.816Y-121.666
X181.356Y-121.666
X190.5Y-81.28
X190.5Y-91.44
X193.04Y-81.28
X193.04Y-91.44
X233.68Y-81.28
X233.68Y-91.44
X236.22Y-81.28
X236.22Y-91.44
T5
X83.82Y-97.79
X83.82Y-112.79
X147.32Y-104.14
X162.32Y-104.14
T6
X67.39Y-85.09
X72.39Y-85.09
X85.17Y-85.09
X90.17Y-85.09
X134.78Y-85.09
X139.78Y-85.09
X144.78Y-85.09
X166.45Y-85.09
X171.45Y-85.09
T0
M30
