%TF.GenerationSoftware,KiCad,Pcbnew,(5.1.9)-1*%
%TF.CreationDate,2021-05-17T17:45:37-07:00*%
%TF.ProjectId,Senior Project,53656e69-6f72-4205-9072-6f6a6563742e,rev?*%
%TF.SameCoordinates,Original*%
%TF.FileFunction,Legend,Bot*%
%TF.FilePolarity,Positive*%
%FSLAX46Y46*%
G04 Gerber Fmt 4.6, Leading zero omitted, Abs format (unit mm)*
G04 Created by KiCad (PCBNEW (5.1.9)-1) date 2021-05-17 17:45:37*
%MOMM*%
%LPD*%
G01*
G04 APERTURE LIST*
%ADD10R,1.100000X1.100000*%
%ADD11C,1.400000*%
%ADD12O,1.400000X1.400000*%
%ADD13R,1.600000X1.600000*%
%ADD14C,1.600000*%
%ADD15R,2.000000X2.000000*%
%ADD16O,2.000000X2.000000*%
%ADD17R,1.980000X3.960000*%
%ADD18O,1.980000X3.960000*%
%ADD19R,1.524000X1.524000*%
%ADD20C,1.524000*%
G04 APERTURE END LIST*
%LPC*%
D10*
%TO.C,J9*%
X178816000Y-121666000D03*
%TD*%
D11*
%TO.C,1k*%
X138430000Y-127000000D03*
D12*
X138430000Y-119380000D03*
%TD*%
D13*
%TO.C,C1*%
X73660000Y-113030000D03*
D14*
X73660000Y-108030000D03*
%TD*%
D15*
%TO.C,C2*%
X83820000Y-97790000D03*
D16*
X83820000Y-112790000D03*
%TD*%
%TO.C,C3*%
X162320000Y-104140000D03*
D15*
X147320000Y-104140000D03*
%TD*%
D14*
%TO.C,C4*%
X172800000Y-104140000D03*
D13*
X177800000Y-104140000D03*
%TD*%
D10*
%TO.C,J1*%
X190500000Y-91440000D03*
%TD*%
D17*
%TO.C,J2*%
X72390000Y-85090000D03*
D18*
X67390000Y-85090000D03*
%TD*%
D17*
%TO.C,J3*%
X144780000Y-85090000D03*
D18*
X139780000Y-85090000D03*
X134780000Y-85090000D03*
%TD*%
D17*
%TO.C,J4*%
X171450000Y-85090000D03*
D18*
X166450000Y-85090000D03*
%TD*%
D17*
%TO.C,J5*%
X90170000Y-85090000D03*
D18*
X85170000Y-85090000D03*
%TD*%
D10*
%TO.C,J6*%
X233680000Y-81280000D03*
%TD*%
%TO.C,J7*%
X193040000Y-81280000D03*
%TD*%
%TO.C,J8*%
X181356000Y-121666000D03*
%TD*%
%TO.C,J10*%
X176276000Y-121666000D03*
%TD*%
D12*
%TO.C,R3*%
X72390000Y-105410000D03*
D11*
X72390000Y-97790000D03*
%TD*%
%TO.C,R4*%
X142240000Y-104140000D03*
D12*
X134620000Y-104140000D03*
%TD*%
%TO.C,R5*%
X138430000Y-115570000D03*
D11*
X138430000Y-107950000D03*
%TD*%
D19*
%TO.C,U1*%
X63500000Y-110490000D03*
D20*
X63500000Y-107950000D03*
X63500000Y-105410000D03*
%TD*%
%TO.C,U2*%
X128360001Y-87380001D03*
X128360001Y-89920001D03*
X128360001Y-92460001D03*
X128360001Y-95000001D03*
X128360001Y-97540001D03*
X128360001Y-100080001D03*
X128360001Y-102620001D03*
X128360001Y-105160001D03*
X128360001Y-107700001D03*
X128360001Y-110240001D03*
X128360001Y-112780001D03*
X128360001Y-115320001D03*
X128360001Y-117860001D03*
X128360001Y-120400001D03*
X128360001Y-122940001D03*
X102960001Y-122940001D03*
X102960001Y-120400001D03*
X102960001Y-117860001D03*
X102960001Y-115320001D03*
X102960001Y-112780001D03*
X102960001Y-110240001D03*
X102960001Y-107700001D03*
X102960001Y-105160001D03*
X102960001Y-102620001D03*
X102960001Y-100080001D03*
X102960001Y-97540001D03*
X102960001Y-95000001D03*
X102960001Y-92460001D03*
X102960001Y-89920001D03*
D19*
X102960001Y-87380001D03*
%TD*%
%TO.C,U4*%
X157480000Y-116840000D03*
D20*
X157480000Y-119380000D03*
X157480000Y-121920000D03*
X157480000Y-124460000D03*
X165100000Y-124460000D03*
X165100000Y-121920000D03*
X165100000Y-119380000D03*
X165100000Y-116840000D03*
%TD*%
D10*
%TO.C,J11*%
X190500000Y-81280000D03*
%TD*%
%TO.C,J12*%
X233680000Y-91440000D03*
%TD*%
%TO.C,J13*%
X193040000Y-91440000D03*
%TD*%
%TO.C,J14*%
X236220000Y-81280000D03*
%TD*%
%TO.C,J15*%
X236220000Y-91440000D03*
%TD*%
M02*
