%TF.GenerationSoftware,KiCad,Pcbnew,(5.1.9)-1*%
%TF.CreationDate,2021-05-17T17:45:37-07:00*%
%TF.ProjectId,Senior Project,53656e69-6f72-4205-9072-6f6a6563742e,rev?*%
%TF.SameCoordinates,Original*%
%TF.FileFunction,Legend,Top*%
%TF.FilePolarity,Positive*%
%FSLAX46Y46*%
G04 Gerber Fmt 4.6, Leading zero omitted, Abs format (unit mm)*
G04 Created by KiCad (PCBNEW (5.1.9)-1) date 2021-05-17 17:45:37*
%MOMM*%
%LPD*%
G01*
G04 APERTURE LIST*
%ADD10C,0.120000*%
%ADD11C,1.000000*%
%ADD12C,0.800000*%
%ADD13C,0.150000*%
%ADD14R,1.100000X1.100000*%
%ADD15C,1.400000*%
%ADD16O,1.400000X1.400000*%
%ADD17R,1.600000X1.600000*%
%ADD18C,1.600000*%
%ADD19R,2.000000X2.000000*%
%ADD20O,2.000000X2.000000*%
%ADD21R,1.980000X3.960000*%
%ADD22O,1.980000X3.960000*%
%ADD23R,1.524000X1.524000*%
%ADD24C,1.524000*%
G04 APERTURE END LIST*
D10*
%TO.C,J9*%
X179501000Y-120981000D02*
X179501000Y-121666000D01*
X178816000Y-120981000D02*
X179501000Y-120981000D01*
X178726000Y-122976000D02*
X178726000Y-124976000D01*
X178846000Y-122976000D02*
X178846000Y-124976000D01*
X178966000Y-122976000D02*
X178966000Y-124976000D01*
X178606000Y-124976000D02*
X178606000Y-122976000D01*
X179026000Y-124976000D02*
X178606000Y-124976000D01*
X179026000Y-122976000D02*
X179026000Y-124976000D01*
X178256000Y-122976000D02*
X178256000Y-122351000D01*
X179376000Y-122976000D02*
X178256000Y-122976000D01*
X179376000Y-122351000D02*
X179376000Y-122976000D01*
%TO.C,1k*%
X138430000Y-120320000D02*
X138430000Y-121270000D01*
X138430000Y-126060000D02*
X138430000Y-125110000D01*
X137510000Y-121270000D02*
X137510000Y-125110000D01*
X139350000Y-121270000D02*
X137510000Y-121270000D01*
X139350000Y-125110000D02*
X139350000Y-121270000D01*
X137510000Y-125110000D02*
X139350000Y-125110000D01*
%TO.C,C1*%
X72100000Y-112842288D02*
X72550000Y-112842288D01*
X72325000Y-113067288D02*
X72325000Y-112617288D01*
X72600000Y-108410260D02*
G75*
G03*
X72600000Y-112649741I1060000J-2119740D01*
G01*
X74720000Y-108410260D02*
G75*
G02*
X74720000Y-112649741I-1060000J-2119740D01*
G01*
%TO.C,C2*%
X83820000Y-111550000D02*
X83820000Y-110410000D01*
X83820000Y-99030000D02*
X83820000Y-100170000D01*
X81450000Y-103170000D02*
X81450000Y-110410000D01*
X82200000Y-102420000D02*
X81450000Y-103170000D01*
X81450000Y-101670000D02*
X82200000Y-102420000D01*
X81450000Y-100170000D02*
X81450000Y-101670000D01*
X86190000Y-103170000D02*
X86190000Y-110410000D01*
X85440000Y-102420000D02*
X86190000Y-103170000D01*
X86190000Y-101670000D02*
X85440000Y-102420000D01*
X86190000Y-100170000D02*
X86190000Y-101670000D01*
X86190000Y-110410000D02*
X81450000Y-110410000D01*
X86190000Y-100170000D02*
X81450000Y-100170000D01*
X86770000Y-99170000D02*
X85270000Y-99170000D01*
X86020000Y-98420000D02*
X86020000Y-99920000D01*
%TO.C,C3*%
X147950000Y-101940000D02*
X149450000Y-101940000D01*
X148700000Y-101190000D02*
X148700000Y-102690000D01*
X149700000Y-101770000D02*
X149700000Y-106510000D01*
X159940000Y-101770000D02*
X159940000Y-106510000D01*
X149700000Y-101770000D02*
X151200000Y-101770000D01*
X151200000Y-101770000D02*
X151950000Y-102520000D01*
X151950000Y-102520000D02*
X152700000Y-101770000D01*
X152700000Y-101770000D02*
X159940000Y-101770000D01*
X149700000Y-106510000D02*
X151200000Y-106510000D01*
X151200000Y-106510000D02*
X151950000Y-105760000D01*
X151950000Y-105760000D02*
X152700000Y-106510000D01*
X152700000Y-106510000D02*
X159940000Y-106510000D01*
X148560000Y-104140000D02*
X149700000Y-104140000D01*
X161080000Y-104140000D02*
X159940000Y-104140000D01*
%TO.C,C4*%
X177837288Y-105475000D02*
X177387288Y-105475000D01*
X177612288Y-105700000D02*
X177612288Y-105250000D01*
X173180260Y-103080000D02*
G75*
G02*
X177419741Y-103080000I2119740J-1060000D01*
G01*
X173180260Y-105200000D02*
G75*
G03*
X177419741Y-105200000I2119740J1060000D01*
G01*
%TO.C,J1*%
X191185000Y-90755000D02*
X191185000Y-91440000D01*
X190500000Y-90755000D02*
X191185000Y-90755000D01*
X190410000Y-92750000D02*
X190410000Y-94750000D01*
X190530000Y-92750000D02*
X190530000Y-94750000D01*
X190650000Y-92750000D02*
X190650000Y-94750000D01*
X190290000Y-94750000D02*
X190290000Y-92750000D01*
X190710000Y-94750000D02*
X190290000Y-94750000D01*
X190710000Y-92750000D02*
X190710000Y-94750000D01*
X189940000Y-92750000D02*
X189940000Y-92125000D01*
X191060000Y-92750000D02*
X189940000Y-92750000D01*
X191060000Y-92125000D02*
X191060000Y-92750000D01*
%TO.C,J2*%
X64190000Y-91390000D02*
X75040000Y-91390000D01*
X64190000Y-86290000D02*
X64190000Y-91390000D01*
X64690000Y-86590000D02*
X64190000Y-86290000D01*
X64690000Y-81190000D02*
X64690000Y-86590000D01*
X64190000Y-81440000D02*
X64690000Y-81190000D01*
X64190000Y-81390000D02*
X64190000Y-81440000D01*
X64190000Y-79490000D02*
X64190000Y-81390000D01*
X64690000Y-79740000D02*
X64190000Y-79490000D01*
X64690000Y-78790000D02*
X64690000Y-79740000D01*
X75040000Y-78790000D02*
X64690000Y-78790000D01*
X75040000Y-91390000D02*
X75040000Y-78790000D01*
%TO.C,J3*%
X131530000Y-91390000D02*
X147430000Y-91390000D01*
X131530000Y-86340000D02*
X131530000Y-91390000D01*
X132030000Y-86590000D02*
X131530000Y-86340000D01*
X132030000Y-81190000D02*
X132030000Y-86590000D01*
X131530000Y-81440000D02*
X132030000Y-81190000D01*
X131530000Y-79440000D02*
X131530000Y-81440000D01*
X132030000Y-79740000D02*
X131530000Y-79440000D01*
X132030000Y-78790000D02*
X132030000Y-79740000D01*
X147430000Y-78790000D02*
X132030000Y-78790000D01*
X147430000Y-91390000D02*
X147430000Y-78790000D01*
%TO.C,J4*%
X163250000Y-91390000D02*
X174100000Y-91390000D01*
X163250000Y-86290000D02*
X163250000Y-91390000D01*
X163750000Y-86590000D02*
X163250000Y-86290000D01*
X163750000Y-81190000D02*
X163750000Y-86590000D01*
X163250000Y-81440000D02*
X163750000Y-81190000D01*
X163250000Y-81390000D02*
X163250000Y-81440000D01*
X163250000Y-79490000D02*
X163250000Y-81390000D01*
X163750000Y-79740000D02*
X163250000Y-79490000D01*
X163750000Y-78790000D02*
X163750000Y-79740000D01*
X174100000Y-78790000D02*
X163750000Y-78790000D01*
X174100000Y-91390000D02*
X174100000Y-78790000D01*
%TO.C,J5*%
X81970000Y-91390000D02*
X92820000Y-91390000D01*
X81970000Y-86290000D02*
X81970000Y-91390000D01*
X82470000Y-86590000D02*
X81970000Y-86290000D01*
X82470000Y-81190000D02*
X82470000Y-86590000D01*
X81970000Y-81440000D02*
X82470000Y-81190000D01*
X81970000Y-81390000D02*
X81970000Y-81440000D01*
X81970000Y-79490000D02*
X81970000Y-81390000D01*
X82470000Y-79740000D02*
X81970000Y-79490000D01*
X82470000Y-78790000D02*
X82470000Y-79740000D01*
X92820000Y-78790000D02*
X82470000Y-78790000D01*
X92820000Y-91390000D02*
X92820000Y-78790000D01*
%TO.C,J6*%
X234240000Y-81965000D02*
X234240000Y-82590000D01*
X234240000Y-82590000D02*
X233120000Y-82590000D01*
X233120000Y-82590000D02*
X233120000Y-81965000D01*
X233890000Y-82590000D02*
X233890000Y-84590000D01*
X233890000Y-84590000D02*
X233470000Y-84590000D01*
X233470000Y-84590000D02*
X233470000Y-82590000D01*
X233830000Y-82590000D02*
X233830000Y-84590000D01*
X233710000Y-82590000D02*
X233710000Y-84590000D01*
X233590000Y-82590000D02*
X233590000Y-84590000D01*
X233680000Y-80595000D02*
X234365000Y-80595000D01*
X234365000Y-80595000D02*
X234365000Y-81280000D01*
%TO.C,J7*%
X193725000Y-80595000D02*
X193725000Y-81280000D01*
X193040000Y-80595000D02*
X193725000Y-80595000D01*
X192950000Y-82590000D02*
X192950000Y-84590000D01*
X193070000Y-82590000D02*
X193070000Y-84590000D01*
X193190000Y-82590000D02*
X193190000Y-84590000D01*
X192830000Y-84590000D02*
X192830000Y-82590000D01*
X193250000Y-84590000D02*
X192830000Y-84590000D01*
X193250000Y-82590000D02*
X193250000Y-84590000D01*
X192480000Y-82590000D02*
X192480000Y-81965000D01*
X193600000Y-82590000D02*
X192480000Y-82590000D01*
X193600000Y-81965000D02*
X193600000Y-82590000D01*
%TO.C,J8*%
X182041000Y-120981000D02*
X182041000Y-121666000D01*
X181356000Y-120981000D02*
X182041000Y-120981000D01*
X181266000Y-122976000D02*
X181266000Y-124976000D01*
X181386000Y-122976000D02*
X181386000Y-124976000D01*
X181506000Y-122976000D02*
X181506000Y-124976000D01*
X181146000Y-124976000D02*
X181146000Y-122976000D01*
X181566000Y-124976000D02*
X181146000Y-124976000D01*
X181566000Y-122976000D02*
X181566000Y-124976000D01*
X180796000Y-122976000D02*
X180796000Y-122351000D01*
X181916000Y-122976000D02*
X180796000Y-122976000D01*
X181916000Y-122351000D02*
X181916000Y-122976000D01*
%TO.C,J10*%
X176836000Y-122351000D02*
X176836000Y-122976000D01*
X176836000Y-122976000D02*
X175716000Y-122976000D01*
X175716000Y-122976000D02*
X175716000Y-122351000D01*
X176486000Y-122976000D02*
X176486000Y-124976000D01*
X176486000Y-124976000D02*
X176066000Y-124976000D01*
X176066000Y-124976000D02*
X176066000Y-122976000D01*
X176426000Y-122976000D02*
X176426000Y-124976000D01*
X176306000Y-122976000D02*
X176306000Y-124976000D01*
X176186000Y-122976000D02*
X176186000Y-124976000D01*
X176276000Y-120981000D02*
X176961000Y-120981000D01*
X176961000Y-120981000D02*
X176961000Y-121666000D01*
%TO.C,R3*%
X73310000Y-99680000D02*
X71470000Y-99680000D01*
X71470000Y-99680000D02*
X71470000Y-103520000D01*
X71470000Y-103520000D02*
X73310000Y-103520000D01*
X73310000Y-103520000D02*
X73310000Y-99680000D01*
X72390000Y-98730000D02*
X72390000Y-99680000D01*
X72390000Y-104470000D02*
X72390000Y-103520000D01*
%TO.C,R4*%
X135560000Y-104140000D02*
X136510000Y-104140000D01*
X141300000Y-104140000D02*
X140350000Y-104140000D01*
X136510000Y-105060000D02*
X140350000Y-105060000D01*
X136510000Y-103220000D02*
X136510000Y-105060000D01*
X140350000Y-103220000D02*
X136510000Y-103220000D01*
X140350000Y-105060000D02*
X140350000Y-103220000D01*
%TO.C,R5*%
X139350000Y-109840000D02*
X137510000Y-109840000D01*
X137510000Y-109840000D02*
X137510000Y-113680000D01*
X137510000Y-113680000D02*
X139350000Y-113680000D01*
X139350000Y-113680000D02*
X139350000Y-109840000D01*
X138430000Y-108890000D02*
X138430000Y-109840000D01*
X138430000Y-114630000D02*
X138430000Y-113680000D01*
%TO.C,U1*%
X62500000Y-111450000D02*
X63500000Y-111450000D01*
X62500000Y-104450000D02*
X62500000Y-111450000D01*
X64500000Y-104450000D02*
X62500000Y-104450000D01*
X64500000Y-111450000D02*
X64500000Y-104450000D01*
X63500000Y-111450000D02*
X64500000Y-111450000D01*
D11*
%TO.C,U2*%
X123580001Y-130235001D02*
G75*
G03*
X123580001Y-130235001I-300000J0D01*
G01*
X108340001Y-130235001D02*
G75*
G03*
X108340001Y-130235001I-300000J0D01*
G01*
D10*
X109310001Y-128330001D02*
X109310001Y-132140001D01*
X106770001Y-128330001D02*
X109310001Y-128330001D01*
X106770001Y-132140001D02*
X106770001Y-128330001D01*
X109310001Y-132140001D02*
X106770001Y-132140001D01*
X122010001Y-132140001D02*
X122010001Y-128330001D01*
X124550001Y-132140001D02*
X122010001Y-132140001D01*
X124550001Y-128330001D02*
X124550001Y-132140001D01*
X122010001Y-128330001D02*
X124550001Y-128330001D01*
D12*
X110980001Y-104200001D02*
G75*
G03*
X110980001Y-104200001I-400000J0D01*
G01*
D10*
X108160001Y-106340001D02*
X108160001Y-88340001D01*
X123160001Y-106340001D02*
X108160001Y-106340001D01*
X123160001Y-88340001D02*
X123160001Y-106340001D01*
X108160001Y-88340001D02*
X123160001Y-88340001D01*
X120740001Y-83372001D02*
X120740001Y-86928001D01*
X123280001Y-83372001D02*
X123280001Y-86928001D01*
X118200001Y-83372001D02*
X123280001Y-83372001D01*
X118200001Y-85404001D02*
X118200001Y-83372001D01*
X115660001Y-85404001D02*
X118200001Y-85404001D01*
X115660001Y-83372001D02*
X115660001Y-85404001D01*
X113120001Y-83372001D02*
X115660001Y-83372001D01*
X113120001Y-85404001D02*
X113120001Y-83372001D01*
X110580001Y-85404001D02*
X113120001Y-85404001D01*
X110580001Y-83372001D02*
X110580001Y-85404001D01*
X108040001Y-83372001D02*
X110580001Y-83372001D01*
X108040001Y-86928001D02*
X108040001Y-83372001D01*
X106770001Y-87690001D02*
X106770001Y-82610001D01*
X124550001Y-87690001D02*
X106770001Y-87690001D01*
X124550001Y-82610001D02*
X124550001Y-87690001D01*
X106770001Y-82610001D02*
X124550001Y-82610001D01*
X111660001Y-126840001D02*
X119660001Y-126840001D01*
X119660001Y-126840001D02*
X119660001Y-132840001D01*
X111660001Y-126840001D02*
X111660001Y-132840001D01*
X128860001Y-130840001D02*
G75*
G03*
X128860001Y-130840001I-1500000J0D01*
G01*
X105460001Y-130840001D02*
G75*
G03*
X105460001Y-130840001I-1500000J0D01*
G01*
X103660001Y-81340001D02*
X127660001Y-81340001D01*
X103660001Y-132840001D02*
X127660001Y-132840001D01*
X101660001Y-83340001D02*
X101660001Y-130840001D01*
X129660001Y-130840001D02*
X129660001Y-83340001D01*
X128860001Y-83340001D02*
G75*
G03*
X128860001Y-83340001I-1500000J0D01*
G01*
X105460001Y-83340001D02*
G75*
G03*
X105460001Y-83340001I-1500000J0D01*
G01*
X129660001Y-130840001D02*
G75*
G02*
X127660001Y-132840001I-2000000J0D01*
G01*
X103660001Y-132840001D02*
G75*
G02*
X101660001Y-130840001I0J2000000D01*
G01*
X101660001Y-83340001D02*
G75*
G02*
X103660001Y-81340001I2000000J0D01*
G01*
X127660001Y-81340001D02*
G75*
G02*
X129660001Y-83340001I0J-2000000D01*
G01*
%TO.C,U4*%
X158560000Y-116800000D02*
X160060000Y-115300000D01*
X164060000Y-115300000D02*
X158560000Y-115300000D01*
X164060000Y-125800000D02*
X164060000Y-115300000D01*
X158560000Y-125800000D02*
X164060000Y-125800000D01*
X158560000Y-115300000D02*
X158560000Y-125800000D01*
%TO.C,J11*%
X191185000Y-80595000D02*
X191185000Y-81280000D01*
X190500000Y-80595000D02*
X191185000Y-80595000D01*
X190410000Y-82590000D02*
X190410000Y-84590000D01*
X190530000Y-82590000D02*
X190530000Y-84590000D01*
X190650000Y-82590000D02*
X190650000Y-84590000D01*
X190290000Y-84590000D02*
X190290000Y-82590000D01*
X190710000Y-84590000D02*
X190290000Y-84590000D01*
X190710000Y-82590000D02*
X190710000Y-84590000D01*
X189940000Y-82590000D02*
X189940000Y-81965000D01*
X191060000Y-82590000D02*
X189940000Y-82590000D01*
X191060000Y-81965000D02*
X191060000Y-82590000D01*
%TO.C,J12*%
X234240000Y-92125000D02*
X234240000Y-92750000D01*
X234240000Y-92750000D02*
X233120000Y-92750000D01*
X233120000Y-92750000D02*
X233120000Y-92125000D01*
X233890000Y-92750000D02*
X233890000Y-94750000D01*
X233890000Y-94750000D02*
X233470000Y-94750000D01*
X233470000Y-94750000D02*
X233470000Y-92750000D01*
X233830000Y-92750000D02*
X233830000Y-94750000D01*
X233710000Y-92750000D02*
X233710000Y-94750000D01*
X233590000Y-92750000D02*
X233590000Y-94750000D01*
X233680000Y-90755000D02*
X234365000Y-90755000D01*
X234365000Y-90755000D02*
X234365000Y-91440000D01*
%TO.C,J13*%
X193725000Y-90755000D02*
X193725000Y-91440000D01*
X193040000Y-90755000D02*
X193725000Y-90755000D01*
X192950000Y-92750000D02*
X192950000Y-94750000D01*
X193070000Y-92750000D02*
X193070000Y-94750000D01*
X193190000Y-92750000D02*
X193190000Y-94750000D01*
X192830000Y-94750000D02*
X192830000Y-92750000D01*
X193250000Y-94750000D02*
X192830000Y-94750000D01*
X193250000Y-92750000D02*
X193250000Y-94750000D01*
X192480000Y-92750000D02*
X192480000Y-92125000D01*
X193600000Y-92750000D02*
X192480000Y-92750000D01*
X193600000Y-92125000D02*
X193600000Y-92750000D01*
%TO.C,J14*%
X236780000Y-81965000D02*
X236780000Y-82590000D01*
X236780000Y-82590000D02*
X235660000Y-82590000D01*
X235660000Y-82590000D02*
X235660000Y-81965000D01*
X236430000Y-82590000D02*
X236430000Y-84590000D01*
X236430000Y-84590000D02*
X236010000Y-84590000D01*
X236010000Y-84590000D02*
X236010000Y-82590000D01*
X236370000Y-82590000D02*
X236370000Y-84590000D01*
X236250000Y-82590000D02*
X236250000Y-84590000D01*
X236130000Y-82590000D02*
X236130000Y-84590000D01*
X236220000Y-80595000D02*
X236905000Y-80595000D01*
X236905000Y-80595000D02*
X236905000Y-81280000D01*
%TO.C,J15*%
X236905000Y-90755000D02*
X236905000Y-91440000D01*
X236220000Y-90755000D02*
X236905000Y-90755000D01*
X236130000Y-92750000D02*
X236130000Y-94750000D01*
X236250000Y-92750000D02*
X236250000Y-94750000D01*
X236370000Y-92750000D02*
X236370000Y-94750000D01*
X236010000Y-94750000D02*
X236010000Y-92750000D01*
X236430000Y-94750000D02*
X236010000Y-94750000D01*
X236430000Y-92750000D02*
X236430000Y-94750000D01*
X235660000Y-92750000D02*
X235660000Y-92125000D01*
X236780000Y-92750000D02*
X235660000Y-92750000D01*
X236780000Y-92125000D02*
X236780000Y-92750000D01*
%TO.C,J9*%
D13*
X179768380Y-123374333D02*
X180482666Y-123374333D01*
X180625523Y-123421952D01*
X180720761Y-123517190D01*
X180768380Y-123660047D01*
X180768380Y-123755285D01*
X180768380Y-122850523D02*
X180768380Y-122660047D01*
X180720761Y-122564809D01*
X180673142Y-122517190D01*
X180530285Y-122421952D01*
X180339809Y-122374333D01*
X179958857Y-122374333D01*
X179863619Y-122421952D01*
X179816000Y-122469571D01*
X179768380Y-122564809D01*
X179768380Y-122755285D01*
X179816000Y-122850523D01*
X179863619Y-122898142D01*
X179958857Y-122945761D01*
X180196952Y-122945761D01*
X180292190Y-122898142D01*
X180339809Y-122850523D01*
X180387428Y-122755285D01*
X180387428Y-122564809D01*
X180339809Y-122469571D01*
X180292190Y-122421952D01*
X180196952Y-122374333D01*
%TO.C,1k*%
X136962380Y-123309047D02*
X136962380Y-123880476D01*
X136962380Y-123594761D02*
X135962380Y-123594761D01*
X136105238Y-123690000D01*
X136200476Y-123785238D01*
X136248095Y-123880476D01*
X136962380Y-122880476D02*
X135962380Y-122880476D01*
X136581428Y-122785238D02*
X136962380Y-122499523D01*
X136295714Y-122499523D02*
X136676666Y-122880476D01*
%TO.C,C1*%
X70517142Y-110696666D02*
X70564761Y-110744285D01*
X70612380Y-110887142D01*
X70612380Y-110982380D01*
X70564761Y-111125238D01*
X70469523Y-111220476D01*
X70374285Y-111268095D01*
X70183809Y-111315714D01*
X70040952Y-111315714D01*
X69850476Y-111268095D01*
X69755238Y-111220476D01*
X69660000Y-111125238D01*
X69612380Y-110982380D01*
X69612380Y-110887142D01*
X69660000Y-110744285D01*
X69707619Y-110696666D01*
X70612380Y-109744285D02*
X70612380Y-110315714D01*
X70612380Y-110030000D02*
X69612380Y-110030000D01*
X69755238Y-110125238D01*
X69850476Y-110220476D01*
X69898095Y-110315714D01*
%TO.C,C2*%
X87547142Y-105456666D02*
X87594761Y-105504285D01*
X87642380Y-105647142D01*
X87642380Y-105742380D01*
X87594761Y-105885238D01*
X87499523Y-105980476D01*
X87404285Y-106028095D01*
X87213809Y-106075714D01*
X87070952Y-106075714D01*
X86880476Y-106028095D01*
X86785238Y-105980476D01*
X86690000Y-105885238D01*
X86642380Y-105742380D01*
X86642380Y-105647142D01*
X86690000Y-105504285D01*
X86737619Y-105456666D01*
X86737619Y-105075714D02*
X86690000Y-105028095D01*
X86642380Y-104932857D01*
X86642380Y-104694761D01*
X86690000Y-104599523D01*
X86737619Y-104551904D01*
X86832857Y-104504285D01*
X86928095Y-104504285D01*
X87070952Y-104551904D01*
X87642380Y-105123333D01*
X87642380Y-104504285D01*
%TO.C,C3*%
X154653333Y-101127142D02*
X154605714Y-101174761D01*
X154462857Y-101222380D01*
X154367619Y-101222380D01*
X154224761Y-101174761D01*
X154129523Y-101079523D01*
X154081904Y-100984285D01*
X154034285Y-100793809D01*
X154034285Y-100650952D01*
X154081904Y-100460476D01*
X154129523Y-100365238D01*
X154224761Y-100270000D01*
X154367619Y-100222380D01*
X154462857Y-100222380D01*
X154605714Y-100270000D01*
X154653333Y-100317619D01*
X154986666Y-100222380D02*
X155605714Y-100222380D01*
X155272380Y-100603333D01*
X155415238Y-100603333D01*
X155510476Y-100650952D01*
X155558095Y-100698571D01*
X155605714Y-100793809D01*
X155605714Y-101031904D01*
X155558095Y-101127142D01*
X155510476Y-101174761D01*
X155415238Y-101222380D01*
X155129523Y-101222380D01*
X155034285Y-101174761D01*
X154986666Y-101127142D01*
%TO.C,C4*%
X175133333Y-107997142D02*
X175085714Y-108044761D01*
X174942857Y-108092380D01*
X174847619Y-108092380D01*
X174704761Y-108044761D01*
X174609523Y-107949523D01*
X174561904Y-107854285D01*
X174514285Y-107663809D01*
X174514285Y-107520952D01*
X174561904Y-107330476D01*
X174609523Y-107235238D01*
X174704761Y-107140000D01*
X174847619Y-107092380D01*
X174942857Y-107092380D01*
X175085714Y-107140000D01*
X175133333Y-107187619D01*
X175990476Y-107425714D02*
X175990476Y-108092380D01*
X175752380Y-107044761D02*
X175514285Y-107759047D01*
X176133333Y-107759047D01*
%TO.C,J1*%
X191452380Y-93148333D02*
X192166666Y-93148333D01*
X192309523Y-93195952D01*
X192404761Y-93291190D01*
X192452380Y-93434047D01*
X192452380Y-93529285D01*
X192452380Y-92148333D02*
X192452380Y-92719761D01*
X192452380Y-92434047D02*
X191452380Y-92434047D01*
X191595238Y-92529285D01*
X191690476Y-92624523D01*
X191738095Y-92719761D01*
%TO.C,J2*%
X73976666Y-91532380D02*
X73976666Y-92246666D01*
X73929047Y-92389523D01*
X73833809Y-92484761D01*
X73690952Y-92532380D01*
X73595714Y-92532380D01*
X74405238Y-91627619D02*
X74452857Y-91580000D01*
X74548095Y-91532380D01*
X74786190Y-91532380D01*
X74881428Y-91580000D01*
X74929047Y-91627619D01*
X74976666Y-91722857D01*
X74976666Y-91818095D01*
X74929047Y-91960952D01*
X74357619Y-92532380D01*
X74976666Y-92532380D01*
%TO.C,J3*%
X139446666Y-91642380D02*
X139446666Y-92356666D01*
X139399047Y-92499523D01*
X139303809Y-92594761D01*
X139160952Y-92642380D01*
X139065714Y-92642380D01*
X139827619Y-91642380D02*
X140446666Y-91642380D01*
X140113333Y-92023333D01*
X140256190Y-92023333D01*
X140351428Y-92070952D01*
X140399047Y-92118571D01*
X140446666Y-92213809D01*
X140446666Y-92451904D01*
X140399047Y-92547142D01*
X140351428Y-92594761D01*
X140256190Y-92642380D01*
X139970476Y-92642380D01*
X139875238Y-92594761D01*
X139827619Y-92547142D01*
%TO.C,J4*%
X173036666Y-91532380D02*
X173036666Y-92246666D01*
X172989047Y-92389523D01*
X172893809Y-92484761D01*
X172750952Y-92532380D01*
X172655714Y-92532380D01*
X173941428Y-91865714D02*
X173941428Y-92532380D01*
X173703333Y-91484761D02*
X173465238Y-92199047D01*
X174084285Y-92199047D01*
%TO.C,J5*%
X91756666Y-91532380D02*
X91756666Y-92246666D01*
X91709047Y-92389523D01*
X91613809Y-92484761D01*
X91470952Y-92532380D01*
X91375714Y-92532380D01*
X92709047Y-91532380D02*
X92232857Y-91532380D01*
X92185238Y-92008571D01*
X92232857Y-91960952D01*
X92328095Y-91913333D01*
X92566190Y-91913333D01*
X92661428Y-91960952D01*
X92709047Y-92008571D01*
X92756666Y-92103809D01*
X92756666Y-92341904D01*
X92709047Y-92437142D01*
X92661428Y-92484761D01*
X92566190Y-92532380D01*
X92328095Y-92532380D01*
X92232857Y-92484761D01*
X92185238Y-92437142D01*
%TO.C,J6*%
X234632380Y-82988333D02*
X235346666Y-82988333D01*
X235489523Y-83035952D01*
X235584761Y-83131190D01*
X235632380Y-83274047D01*
X235632380Y-83369285D01*
X234632380Y-82083571D02*
X234632380Y-82274047D01*
X234680000Y-82369285D01*
X234727619Y-82416904D01*
X234870476Y-82512142D01*
X235060952Y-82559761D01*
X235441904Y-82559761D01*
X235537142Y-82512142D01*
X235584761Y-82464523D01*
X235632380Y-82369285D01*
X235632380Y-82178809D01*
X235584761Y-82083571D01*
X235537142Y-82035952D01*
X235441904Y-81988333D01*
X235203809Y-81988333D01*
X235108571Y-82035952D01*
X235060952Y-82083571D01*
X235013333Y-82178809D01*
X235013333Y-82369285D01*
X235060952Y-82464523D01*
X235108571Y-82512142D01*
X235203809Y-82559761D01*
%TO.C,J7*%
X193992380Y-82988333D02*
X194706666Y-82988333D01*
X194849523Y-83035952D01*
X194944761Y-83131190D01*
X194992380Y-83274047D01*
X194992380Y-83369285D01*
X193992380Y-82607380D02*
X193992380Y-81940714D01*
X194992380Y-82369285D01*
%TO.C,J8*%
X182308380Y-123374333D02*
X183022666Y-123374333D01*
X183165523Y-123421952D01*
X183260761Y-123517190D01*
X183308380Y-123660047D01*
X183308380Y-123755285D01*
X182736952Y-122755285D02*
X182689333Y-122850523D01*
X182641714Y-122898142D01*
X182546476Y-122945761D01*
X182498857Y-122945761D01*
X182403619Y-122898142D01*
X182356000Y-122850523D01*
X182308380Y-122755285D01*
X182308380Y-122564809D01*
X182356000Y-122469571D01*
X182403619Y-122421952D01*
X182498857Y-122374333D01*
X182546476Y-122374333D01*
X182641714Y-122421952D01*
X182689333Y-122469571D01*
X182736952Y-122564809D01*
X182736952Y-122755285D01*
X182784571Y-122850523D01*
X182832190Y-122898142D01*
X182927428Y-122945761D01*
X183117904Y-122945761D01*
X183213142Y-122898142D01*
X183260761Y-122850523D01*
X183308380Y-122755285D01*
X183308380Y-122564809D01*
X183260761Y-122469571D01*
X183213142Y-122421952D01*
X183117904Y-122374333D01*
X182927428Y-122374333D01*
X182832190Y-122421952D01*
X182784571Y-122469571D01*
X182736952Y-122564809D01*
%TO.C,J10*%
X177228380Y-123850523D02*
X177942666Y-123850523D01*
X178085523Y-123898142D01*
X178180761Y-123993380D01*
X178228380Y-124136238D01*
X178228380Y-124231476D01*
X178228380Y-122850523D02*
X178228380Y-123421952D01*
X178228380Y-123136238D02*
X177228380Y-123136238D01*
X177371238Y-123231476D01*
X177466476Y-123326714D01*
X177514095Y-123421952D01*
X177228380Y-122231476D02*
X177228380Y-122136238D01*
X177276000Y-122041000D01*
X177323619Y-121993380D01*
X177418857Y-121945761D01*
X177609333Y-121898142D01*
X177847428Y-121898142D01*
X178037904Y-121945761D01*
X178133142Y-121993380D01*
X178180761Y-122041000D01*
X178228380Y-122136238D01*
X178228380Y-122231476D01*
X178180761Y-122326714D01*
X178133142Y-122374333D01*
X178037904Y-122421952D01*
X177847428Y-122469571D01*
X177609333Y-122469571D01*
X177418857Y-122421952D01*
X177323619Y-122374333D01*
X177276000Y-122326714D01*
X177228380Y-122231476D01*
%TO.C,R3*%
X74762380Y-101766666D02*
X74286190Y-102100000D01*
X74762380Y-102338095D02*
X73762380Y-102338095D01*
X73762380Y-101957142D01*
X73810000Y-101861904D01*
X73857619Y-101814285D01*
X73952857Y-101766666D01*
X74095714Y-101766666D01*
X74190952Y-101814285D01*
X74238571Y-101861904D01*
X74286190Y-101957142D01*
X74286190Y-102338095D01*
X73762380Y-101433333D02*
X73762380Y-100814285D01*
X74143333Y-101147619D01*
X74143333Y-101004761D01*
X74190952Y-100909523D01*
X74238571Y-100861904D01*
X74333809Y-100814285D01*
X74571904Y-100814285D01*
X74667142Y-100861904D01*
X74714761Y-100909523D01*
X74762380Y-101004761D01*
X74762380Y-101290476D01*
X74714761Y-101385714D01*
X74667142Y-101433333D01*
%TO.C,R4*%
X138263333Y-106512380D02*
X137930000Y-106036190D01*
X137691904Y-106512380D02*
X137691904Y-105512380D01*
X138072857Y-105512380D01*
X138168095Y-105560000D01*
X138215714Y-105607619D01*
X138263333Y-105702857D01*
X138263333Y-105845714D01*
X138215714Y-105940952D01*
X138168095Y-105988571D01*
X138072857Y-106036190D01*
X137691904Y-106036190D01*
X139120476Y-105845714D02*
X139120476Y-106512380D01*
X138882380Y-105464761D02*
X138644285Y-106179047D01*
X139263333Y-106179047D01*
%TO.C,R5*%
X140802380Y-111926666D02*
X140326190Y-112260000D01*
X140802380Y-112498095D02*
X139802380Y-112498095D01*
X139802380Y-112117142D01*
X139850000Y-112021904D01*
X139897619Y-111974285D01*
X139992857Y-111926666D01*
X140135714Y-111926666D01*
X140230952Y-111974285D01*
X140278571Y-112021904D01*
X140326190Y-112117142D01*
X140326190Y-112498095D01*
X139802380Y-111021904D02*
X139802380Y-111498095D01*
X140278571Y-111545714D01*
X140230952Y-111498095D01*
X140183333Y-111402857D01*
X140183333Y-111164761D01*
X140230952Y-111069523D01*
X140278571Y-111021904D01*
X140373809Y-110974285D01*
X140611904Y-110974285D01*
X140707142Y-111021904D01*
X140754761Y-111069523D01*
X140802380Y-111164761D01*
X140802380Y-111402857D01*
X140754761Y-111498095D01*
X140707142Y-111545714D01*
%TO.C,U1*%
X60412380Y-108711904D02*
X61221904Y-108711904D01*
X61317142Y-108664285D01*
X61364761Y-108616666D01*
X61412380Y-108521428D01*
X61412380Y-108330952D01*
X61364761Y-108235714D01*
X61317142Y-108188095D01*
X61221904Y-108140476D01*
X60412380Y-108140476D01*
X61412380Y-107140476D02*
X61412380Y-107711904D01*
X61412380Y-107426190D02*
X60412380Y-107426190D01*
X60555238Y-107521428D01*
X60650476Y-107616666D01*
X60698095Y-107711904D01*
%TO.C,U2*%
X114898096Y-97302381D02*
X114898096Y-98111905D01*
X114945715Y-98207143D01*
X114993334Y-98254762D01*
X115088572Y-98302381D01*
X115279048Y-98302381D01*
X115374286Y-98254762D01*
X115421905Y-98207143D01*
X115469524Y-98111905D01*
X115469524Y-97302381D01*
X115898096Y-97397620D02*
X115945715Y-97350001D01*
X116040953Y-97302381D01*
X116279048Y-97302381D01*
X116374286Y-97350001D01*
X116421905Y-97397620D01*
X116469524Y-97492858D01*
X116469524Y-97588096D01*
X116421905Y-97730953D01*
X115850477Y-98302381D01*
X116469524Y-98302381D01*
X105778096Y-126988572D02*
X106111429Y-126988572D01*
X106254286Y-127512381D02*
X105778096Y-127512381D01*
X105778096Y-126512381D01*
X106254286Y-126512381D01*
X106682858Y-126845715D02*
X106682858Y-127512381D01*
X106682858Y-126940953D02*
X106730477Y-126893334D01*
X106825715Y-126845715D01*
X106968572Y-126845715D01*
X107063810Y-126893334D01*
X107111429Y-126988572D01*
X107111429Y-127512381D01*
X108016191Y-127512381D02*
X108016191Y-126988572D01*
X107968572Y-126893334D01*
X107873334Y-126845715D01*
X107682858Y-126845715D01*
X107587620Y-126893334D01*
X108016191Y-127464762D02*
X107920953Y-127512381D01*
X107682858Y-127512381D01*
X107587620Y-127464762D01*
X107540001Y-127369524D01*
X107540001Y-127274286D01*
X107587620Y-127179048D01*
X107682858Y-127131429D01*
X107920953Y-127131429D01*
X108016191Y-127083810D01*
X108492381Y-127512381D02*
X108492381Y-126512381D01*
X108492381Y-126893334D02*
X108587620Y-126845715D01*
X108778096Y-126845715D01*
X108873334Y-126893334D01*
X108920953Y-126940953D01*
X108968572Y-127036191D01*
X108968572Y-127321905D01*
X108920953Y-127417143D01*
X108873334Y-127464762D01*
X108778096Y-127512381D01*
X108587620Y-127512381D01*
X108492381Y-127464762D01*
X109540001Y-127512381D02*
X109444762Y-127464762D01*
X109397143Y-127369524D01*
X109397143Y-126512381D01*
X110301905Y-127464762D02*
X110206667Y-127512381D01*
X110016191Y-127512381D01*
X109920953Y-127464762D01*
X109873334Y-127369524D01*
X109873334Y-126988572D01*
X109920953Y-126893334D01*
X110016191Y-126845715D01*
X110206667Y-126845715D01*
X110301905Y-126893334D01*
X110349524Y-126988572D01*
X110349524Y-127083810D01*
X109873334Y-127179048D01*
X122160953Y-126988572D02*
X122303810Y-127036191D01*
X122351429Y-127083810D01*
X122399048Y-127179048D01*
X122399048Y-127321905D01*
X122351429Y-127417143D01*
X122303810Y-127464762D01*
X122208572Y-127512381D01*
X121827620Y-127512381D01*
X121827620Y-126512381D01*
X122160953Y-126512381D01*
X122256191Y-126560001D01*
X122303810Y-126607620D01*
X122351429Y-126702858D01*
X122351429Y-126798096D01*
X122303810Y-126893334D01*
X122256191Y-126940953D01*
X122160953Y-126988572D01*
X121827620Y-126988572D01*
X122970477Y-127512381D02*
X122875239Y-127464762D01*
X122827620Y-127417143D01*
X122780001Y-127321905D01*
X122780001Y-127036191D01*
X122827620Y-126940953D01*
X122875239Y-126893334D01*
X122970477Y-126845715D01*
X123113334Y-126845715D01*
X123208572Y-126893334D01*
X123256191Y-126940953D01*
X123303810Y-127036191D01*
X123303810Y-127321905D01*
X123256191Y-127417143D01*
X123208572Y-127464762D01*
X123113334Y-127512381D01*
X122970477Y-127512381D01*
X123875239Y-127512381D02*
X123780001Y-127464762D01*
X123732381Y-127417143D01*
X123684762Y-127321905D01*
X123684762Y-127036191D01*
X123732381Y-126940953D01*
X123780001Y-126893334D01*
X123875239Y-126845715D01*
X124018096Y-126845715D01*
X124113334Y-126893334D01*
X124160953Y-126940953D01*
X124208572Y-127036191D01*
X124208572Y-127321905D01*
X124160953Y-127417143D01*
X124113334Y-127464762D01*
X124018096Y-127512381D01*
X123875239Y-127512381D01*
X124494286Y-126845715D02*
X124875239Y-126845715D01*
X124637143Y-126512381D02*
X124637143Y-127369524D01*
X124684762Y-127464762D01*
X124780001Y-127512381D01*
X124875239Y-127512381D01*
X114398096Y-130322381D02*
X114398096Y-131131905D01*
X114445715Y-131227143D01*
X114493334Y-131274762D01*
X114588572Y-131322381D01*
X114779048Y-131322381D01*
X114874286Y-131274762D01*
X114921905Y-131227143D01*
X114969524Y-131131905D01*
X114969524Y-130322381D01*
X115398096Y-131274762D02*
X115540953Y-131322381D01*
X115779048Y-131322381D01*
X115874286Y-131274762D01*
X115921905Y-131227143D01*
X115969524Y-131131905D01*
X115969524Y-131036667D01*
X115921905Y-130941429D01*
X115874286Y-130893810D01*
X115779048Y-130846191D01*
X115588572Y-130798572D01*
X115493334Y-130750953D01*
X115445715Y-130703334D01*
X115398096Y-130608096D01*
X115398096Y-130512858D01*
X115445715Y-130417620D01*
X115493334Y-130370001D01*
X115588572Y-130322381D01*
X115826667Y-130322381D01*
X115969524Y-130370001D01*
X116731429Y-130798572D02*
X116874286Y-130846191D01*
X116921905Y-130893810D01*
X116969524Y-130989048D01*
X116969524Y-131131905D01*
X116921905Y-131227143D01*
X116874286Y-131274762D01*
X116779048Y-131322381D01*
X116398096Y-131322381D01*
X116398096Y-130322381D01*
X116731429Y-130322381D01*
X116826667Y-130370001D01*
X116874286Y-130417620D01*
X116921905Y-130512858D01*
X116921905Y-130608096D01*
X116874286Y-130703334D01*
X116826667Y-130750953D01*
X116731429Y-130798572D01*
X116398096Y-130798572D01*
%TO.C,U4*%
X162298095Y-111212380D02*
X162298095Y-112021904D01*
X162345714Y-112117142D01*
X162393333Y-112164761D01*
X162488571Y-112212380D01*
X162679047Y-112212380D01*
X162774285Y-112164761D01*
X162821904Y-112117142D01*
X162869523Y-112021904D01*
X162869523Y-111212380D01*
X163774285Y-111545714D02*
X163774285Y-112212380D01*
X163536190Y-111164761D02*
X163298095Y-111879047D01*
X163917142Y-111879047D01*
%TO.C,J11*%
X191452380Y-83464523D02*
X192166666Y-83464523D01*
X192309523Y-83512142D01*
X192404761Y-83607380D01*
X192452380Y-83750238D01*
X192452380Y-83845476D01*
X192452380Y-82464523D02*
X192452380Y-83035952D01*
X192452380Y-82750238D02*
X191452380Y-82750238D01*
X191595238Y-82845476D01*
X191690476Y-82940714D01*
X191738095Y-83035952D01*
X192452380Y-81512142D02*
X192452380Y-82083571D01*
X192452380Y-81797857D02*
X191452380Y-81797857D01*
X191595238Y-81893095D01*
X191690476Y-81988333D01*
X191738095Y-82083571D01*
%TO.C,J12*%
X234632380Y-93624523D02*
X235346666Y-93624523D01*
X235489523Y-93672142D01*
X235584761Y-93767380D01*
X235632380Y-93910238D01*
X235632380Y-94005476D01*
X235632380Y-92624523D02*
X235632380Y-93195952D01*
X235632380Y-92910238D02*
X234632380Y-92910238D01*
X234775238Y-93005476D01*
X234870476Y-93100714D01*
X234918095Y-93195952D01*
X234727619Y-92243571D02*
X234680000Y-92195952D01*
X234632380Y-92100714D01*
X234632380Y-91862619D01*
X234680000Y-91767380D01*
X234727619Y-91719761D01*
X234822857Y-91672142D01*
X234918095Y-91672142D01*
X235060952Y-91719761D01*
X235632380Y-92291190D01*
X235632380Y-91672142D01*
%TO.C,J13*%
X193992380Y-93624523D02*
X194706666Y-93624523D01*
X194849523Y-93672142D01*
X194944761Y-93767380D01*
X194992380Y-93910238D01*
X194992380Y-94005476D01*
X194992380Y-92624523D02*
X194992380Y-93195952D01*
X194992380Y-92910238D02*
X193992380Y-92910238D01*
X194135238Y-93005476D01*
X194230476Y-93100714D01*
X194278095Y-93195952D01*
X193992380Y-92291190D02*
X193992380Y-91672142D01*
X194373333Y-92005476D01*
X194373333Y-91862619D01*
X194420952Y-91767380D01*
X194468571Y-91719761D01*
X194563809Y-91672142D01*
X194801904Y-91672142D01*
X194897142Y-91719761D01*
X194944761Y-91767380D01*
X194992380Y-91862619D01*
X194992380Y-92148333D01*
X194944761Y-92243571D01*
X194897142Y-92291190D01*
%TO.C,J14*%
X237172380Y-83464523D02*
X237886666Y-83464523D01*
X238029523Y-83512142D01*
X238124761Y-83607380D01*
X238172380Y-83750238D01*
X238172380Y-83845476D01*
X238172380Y-82464523D02*
X238172380Y-83035952D01*
X238172380Y-82750238D02*
X237172380Y-82750238D01*
X237315238Y-82845476D01*
X237410476Y-82940714D01*
X237458095Y-83035952D01*
X237505714Y-81607380D02*
X238172380Y-81607380D01*
X237124761Y-81845476D02*
X237839047Y-82083571D01*
X237839047Y-81464523D01*
%TO.C,J15*%
X237172380Y-93624523D02*
X237886666Y-93624523D01*
X238029523Y-93672142D01*
X238124761Y-93767380D01*
X238172380Y-93910238D01*
X238172380Y-94005476D01*
X238172380Y-92624523D02*
X238172380Y-93195952D01*
X238172380Y-92910238D02*
X237172380Y-92910238D01*
X237315238Y-93005476D01*
X237410476Y-93100714D01*
X237458095Y-93195952D01*
X237172380Y-91719761D02*
X237172380Y-92195952D01*
X237648571Y-92243571D01*
X237600952Y-92195952D01*
X237553333Y-92100714D01*
X237553333Y-91862619D01*
X237600952Y-91767380D01*
X237648571Y-91719761D01*
X237743809Y-91672142D01*
X237981904Y-91672142D01*
X238077142Y-91719761D01*
X238124761Y-91767380D01*
X238172380Y-91862619D01*
X238172380Y-92100714D01*
X238124761Y-92195952D01*
X238077142Y-92243571D01*
%TD*%
%LPC*%
D14*
%TO.C,J9*%
X178816000Y-121666000D03*
%TD*%
D15*
%TO.C,1k*%
X138430000Y-127000000D03*
D16*
X138430000Y-119380000D03*
%TD*%
D17*
%TO.C,C1*%
X73660000Y-113030000D03*
D18*
X73660000Y-108030000D03*
%TD*%
D19*
%TO.C,C2*%
X83820000Y-97790000D03*
D20*
X83820000Y-112790000D03*
%TD*%
%TO.C,C3*%
X162320000Y-104140000D03*
D19*
X147320000Y-104140000D03*
%TD*%
D18*
%TO.C,C4*%
X172800000Y-104140000D03*
D17*
X177800000Y-104140000D03*
%TD*%
D14*
%TO.C,J1*%
X190500000Y-91440000D03*
%TD*%
D21*
%TO.C,J2*%
X72390000Y-85090000D03*
D22*
X67390000Y-85090000D03*
%TD*%
D21*
%TO.C,J3*%
X144780000Y-85090000D03*
D22*
X139780000Y-85090000D03*
X134780000Y-85090000D03*
%TD*%
D21*
%TO.C,J4*%
X171450000Y-85090000D03*
D22*
X166450000Y-85090000D03*
%TD*%
D21*
%TO.C,J5*%
X90170000Y-85090000D03*
D22*
X85170000Y-85090000D03*
%TD*%
D14*
%TO.C,J6*%
X233680000Y-81280000D03*
%TD*%
%TO.C,J7*%
X193040000Y-81280000D03*
%TD*%
%TO.C,J8*%
X181356000Y-121666000D03*
%TD*%
%TO.C,J10*%
X176276000Y-121666000D03*
%TD*%
D16*
%TO.C,R3*%
X72390000Y-105410000D03*
D15*
X72390000Y-97790000D03*
%TD*%
%TO.C,R4*%
X142240000Y-104140000D03*
D16*
X134620000Y-104140000D03*
%TD*%
%TO.C,R5*%
X138430000Y-115570000D03*
D15*
X138430000Y-107950000D03*
%TD*%
D23*
%TO.C,U1*%
X63500000Y-110490000D03*
D24*
X63500000Y-107950000D03*
X63500000Y-105410000D03*
%TD*%
%TO.C,U2*%
X128360001Y-87380001D03*
X128360001Y-89920001D03*
X128360001Y-92460001D03*
X128360001Y-95000001D03*
X128360001Y-97540001D03*
X128360001Y-100080001D03*
X128360001Y-102620001D03*
X128360001Y-105160001D03*
X128360001Y-107700001D03*
X128360001Y-110240001D03*
X128360001Y-112780001D03*
X128360001Y-115320001D03*
X128360001Y-117860001D03*
X128360001Y-120400001D03*
X128360001Y-122940001D03*
X102960001Y-122940001D03*
X102960001Y-120400001D03*
X102960001Y-117860001D03*
X102960001Y-115320001D03*
X102960001Y-112780001D03*
X102960001Y-110240001D03*
X102960001Y-107700001D03*
X102960001Y-105160001D03*
X102960001Y-102620001D03*
X102960001Y-100080001D03*
X102960001Y-97540001D03*
X102960001Y-95000001D03*
X102960001Y-92460001D03*
X102960001Y-89920001D03*
D23*
X102960001Y-87380001D03*
%TD*%
%TO.C,U4*%
X157480000Y-116840000D03*
D24*
X157480000Y-119380000D03*
X157480000Y-121920000D03*
X157480000Y-124460000D03*
X165100000Y-124460000D03*
X165100000Y-121920000D03*
X165100000Y-119380000D03*
X165100000Y-116840000D03*
%TD*%
D14*
%TO.C,J11*%
X190500000Y-81280000D03*
%TD*%
%TO.C,J12*%
X233680000Y-91440000D03*
%TD*%
%TO.C,J13*%
X193040000Y-91440000D03*
%TD*%
%TO.C,J14*%
X236220000Y-81280000D03*
%TD*%
%TO.C,J15*%
X236220000Y-91440000D03*
%TD*%
M02*
